<!--?xml version="1.0" encoding="utf-8"?-->
<!-- Generator: Adobe Illustrator 18.0.0, SVG Export Plug-In . SVG Version: 6.00 Build 0)  -->

<svg version="1.1" id="_x31_0" xmlns="http://www.w3.org/2000/svg" xmlns:xlink="http://www.w3.org/1999/xlink" x="0px" y="0px" viewBox="0 0 512 512" style="width: 32px; height: 32px; opacity: 1;" xml:space="preserve">
<style type="text/css">
	.st0{fill:#374149;}
</style>
<g>
	<path class="st0" d="M256,0C114.617,0,0,114.614,0,256s114.617,256,256,256c141.386,0,256-114.614,256-256S397.386,0,256,0z
		 M256,453.484c-108.894,0-197.484-88.59-197.484-197.484S147.106,58.512,256,58.512S453.488,147.106,453.488,256
		S364.894,453.484,256,453.484z" style="fill: rgb(112, 112, 112);"></path>
	<polygon class="st0" points="326.621,198.711 373.359,137.676 318.774,137.676 278.226,190.594 273.262,197.05 256,219.652 
		238.738,197.05 233.778,190.594 193.226,137.676 138.641,137.676 185.383,198.711 216.215,238.938 217.66,240.82 151.195,240.82 
		151.195,268.402 234.793,268.402 234.793,299.121 151.195,299.121 151.195,326.699 234.793,326.699 234.793,397.778 
		277.207,397.778 277.207,326.699 360.848,326.699 360.848,299.121 277.207,299.121 277.207,268.402 360.848,268.402 
		360.848,240.82 294.344,240.82 295.785,238.938 	" style="fill: rgb(112, 112, 112);"></polygon>
</g>
</svg>
