<!--?xml version="1.0" encoding="utf-8"?-->
<!-- Generator: Adobe Illustrator 18.0.0, SVG Export Plug-In . SVG Version: 6.00 Build 0)  -->

<svg version="1.1" id="_x31_0" xmlns="http://www.w3.org/2000/svg" xmlns:xlink="http://www.w3.org/1999/xlink" x="0px" y="0px" viewBox="0 0 512 512" style="width: 256px; height: 256px; opacity: 1;" xml:space="preserve">
<style type="text/css">
	.st0{fill:#374149;}
</style>
<g>
	<path class="st0" d="M256,0C114.617,0,0,114.614,0,256s114.617,256,256,256c141.386,0,256-114.614,256-256S397.386,0,256,0z
		 M279.141,407.461c-6.422,6.574-14.321,9.906-23.477,9.906c-9.18,0-16.906-3.222-22.977-9.582
		c-6.007-6.297-9.054-14.094-9.054-23.179c0-9.102,3.118-16.918,9.274-23.219c6.195-6.332,13.977-9.542,23.125-9.542
		c9.125,0,16.953,3.199,23.258,9.504c6.305,6.304,9.5,14.133,9.5,23.258C288.789,393.226,285.547,400.914,279.141,407.461z
		 M291.969,173.633c-1.711,10.859-4.149,25.285-7.289,43.285c-2.829,15.286-5.118,29.594-6.813,42.574
		c-1.711,13.114-3.562,27.649-5.547,43.606c-1.102,6.59-3.203,10.977-6.453,13.618c-2.718,2.21-5.703,3.332-8.859,3.332
		c-0.734,0-1.477-0.059-2.226-0.184c-3.618-0.606-6.898-2.461-9.774-5.512c-2.875-3.078-4.524-6.613-4.906-10.519
		c-1.985-14.641-3.977-29.035-5.969-43c-1.961-13.734-4.398-28.496-7.242-43.867c-3.21-17.82-5.531-31.875-7.086-42.984
		c-1.618-11.43-2.398-18.645-2.398-22.059c0-15.289,3.359-27.363,9.992-35.886c6.922-8.894,16.547-13.402,28.602-13.402
		c12.054,0,21.68,4.508,28.602,13.402c6.633,8.535,9.992,20.61,9.992,35.886C294.594,155.375,293.758,162.274,291.969,173.633z" style="fill: rgba(112, 112, 112, 0.56);"></path>
</g>
</svg>
