<?xml version="1.0" encoding="UTF-8"?>
<svg id="_レイヤー_2" data-name="レイヤー_2" xmlns="http://www.w3.org/2000/svg" xmlns:xlink="http://www.w3.org/1999/xlink" viewBox="0 0 567.86 129.28">
  <defs>
    <style>
      .cls-1 {
        stroke-width: .29px;
      }

      .cls-1, .cls-2, .cls-3, .cls-4, .cls-5, .cls-6, .cls-7, .cls-8, .cls-9, .cls-10, .cls-11 {
        stroke: #000;
        stroke-miterlimit: 10;
      }

      .cls-2 {
        fill: url(#_名称未設定グラデーション_43);
      }

      .cls-3 {
        fill: url(#_名称未設定グラデーション_35);
      }

      .cls-4 {
        fill: #7d85c3;
        stroke-width: 1.67px;
      }

      .cls-12 {
        fill: #fff;
      }

      .cls-5 {
        fill: url(#_名称未設定グラデーション_38);
        stroke-width: 1.23px;
      }

      .cls-6 {
        fill: url(#_名称未設定グラデーション_43-5);
      }

      .cls-7 {
        fill: url(#_名称未設定グラデーション_43-4);
      }

      .cls-8 {
        fill: url(#_名称未設定グラデーション_43-2);
      }

      .cls-9 {
        fill: url(#_名称未設定グラデーション_43-3);
      }

      .cls-10 {
        fill: url(#_名称未設定グラデーション_38-3);
      }

      .cls-11 {
        fill: url(#_名称未設定グラデーション_38-2);
      }
    </style>
    <linearGradient id="_名称未設定グラデーション_38" data-name="名称未設定グラデーション 38" x1=".61" y1="63.59" x2="98.16" y2="63.59" gradientUnits="userSpaceOnUse">
      <stop offset="0" stop-color="#d6daf6"/>
      <stop offset=".37" stop-color="#d7d7f3"/>
      <stop offset=".6" stop-color="#dbceeb"/>
      <stop offset=".8" stop-color="#e3c0dd"/>
      <stop offset=".97" stop-color="#edabc9"/>
      <stop offset="1" stop-color="#f0a7c5"/>
    </linearGradient>
    <linearGradient id="_名称未設定グラデーション_43" data-name="名称未設定グラデーション 43" x1="135.61" y1="88.68" x2="194.52" y2="88.68" gradientTransform="translate(-51.97 43.54) rotate(-12.7)" gradientUnits="userSpaceOnUse">
      <stop offset="0" stop-color="#f0a7c5"/>
      <stop offset=".36" stop-color="#eea9c7"/>
      <stop offset=".59" stop-color="#eab2d0"/>
      <stop offset=".8" stop-color="#e2c1de"/>
      <stop offset=".98" stop-color="#d7d6f2"/>
      <stop offset="1" stop-color="#d6daf6"/>
    </linearGradient>
    <linearGradient id="_名称未設定グラデーション_35" data-name="名称未設定グラデーション 35" x1="141.61" y1="89.78" x2="199.96" y2="89.78" gradientTransform="translate(49.52 -40.54) rotate(10.67)" gradientUnits="userSpaceOnUse">
      <stop offset="0" stop-color="#d6daf6"/>
      <stop offset=".37" stop-color="#d7d7f3"/>
      <stop offset=".6" stop-color="#dbceeb"/>
      <stop offset=".8" stop-color="#e3c0dd"/>
      <stop offset=".97" stop-color="#edabc9"/>
      <stop offset="1" stop-color="#f0a7c5"/>
    </linearGradient>
    <linearGradient id="_名称未設定グラデーション_43-2" data-name="名称未設定グラデーション 43" x1="264.09" y1="89.64" x2="317.85" y2="89.64" gradientTransform="translate(-39.97 54.14) rotate(-9.88)" xlink:href="#_名称未設定グラデーション_43"/>
    <linearGradient id="_名称未設定グラデーション_38-2" data-name="名称未設定グラデーション 38" x1="299.39" y1="67.15" x2="394.39" y2="67.15" xlink:href="#_名称未設定グラデーション_38"/>
    <linearGradient id="_名称未設定グラデーション_43-3" data-name="名称未設定グラデーション 43" x1="401.05" y1="92.13" x2="466.08" y2="92.13" gradientTransform="translate(57.22 -143.37) rotate(19.96)" xlink:href="#_名称未設定グラデーション_43"/>
    <linearGradient id="_名称未設定グラデーション_38-3" data-name="名称未設定グラデーション 38" x1="478.02" y1="90.43" x2="535.39" y2="90.43" gradientTransform="translate(33.27 296.68) rotate(-34.26)" xlink:href="#_名称未設定グラデーション_38"/>
    <linearGradient id="_名称未設定グラデーション_43-4" data-name="名称未設定グラデーション 43" x1="564.94" y1="86.64" x2="581.52" y2="86.64" gradientTransform="translate(-9.46 -90.29) rotate(10)" xlink:href="#_名称未設定グラデーション_43"/>
    <linearGradient id="_名称未設定グラデーション_43-5" data-name="名称未設定グラデーション 43" x1="564.94" y1="38.52" x2="581.52" y2="38.52" gradientTransform="translate(-9.46 -90.29) rotate(10)" xlink:href="#_名称未設定グラデーション_43"/>
  </defs>
  <g id="_文字_x2460_" data-name="文字_x2460_">
    <path d="M11.73,125V0h59.86c10.23,0,18.27,2.9,24.13,8.7,5.85,5.8,8.78,13.59,8.78,23.36,0,8.87-2.13,15.46-6.4,19.78-4.26,4.32-9.75,6.71-16.46,7.16v1.02c4.21,0,8.44,1.02,12.7,3.07,4.26,2.05,7.82,5.26,10.66,9.63,2.84,4.38,4.26,9.92,4.26,16.63s-1.42,12.45-4.26,17.91c-2.84,5.46-6.71,9.78-11.6,12.96-4.89,3.18-10.35,4.78-16.37,4.78H11.73ZM65.62,51.67c3.86,0,6.88-1.08,9.04-3.24s3.24-5.17,3.24-9.04v-5.29c0-3.75-1.08-6.74-3.24-8.95-2.16-2.22-5.17-3.32-9.04-3.32h-27.97v29.84h27.97ZM69.71,103.17c3.98,0,7.08-1.11,9.29-3.33s3.33-5.26,3.33-9.12v-5.8c0-3.86-1.11-6.85-3.33-8.95-2.22-2.1-5.32-3.15-9.29-3.15h-32.06v30.35h32.06Z"/>
    <path d="M121.91,124.67c-4.04-2.47-6.66-6.37-7.86-11.7-1.4-6.21-.21-11.39,3.56-15.54,3.77-4.15,9.81-7.16,18.11-9.03l9.72-2.19-.89-3.93c-1.49-6.63-5.7-9.16-12.62-7.6-3.13.71-5.59,1.94-7.38,3.7-1.78,1.76-3.19,3.92-4.22,6.49l-11.53-6.31c1.64-4.25,4.14-7.78,7.49-10.59,3.35-2.81,7.97-4.88,13.87-6.21,8.3-1.87,15.04-1.42,20.22,1.35,5.18,2.78,8.57,7.7,10.16,14.76l6.11,27.1,5.68-1.28,2.83,12.56-8.96,2.02c-3.06.69-5.8.31-8.23-1.13-2.43-1.44-4.22-3.72-5.38-6.82l-.66.15c-.08,4.07-1.45,7.48-4.12,10.23-2.67,2.74-6.3,4.64-10.89,5.67-5.97,1.35-10.98.79-15.02-1.68ZM147.57,109.87c1.72-1.89,2.27-4.19,1.66-6.91l-1.71-7.59-8.63,1.95c-3.5.79-6.01,2.01-7.55,3.67-1.54,1.66-2.04,3.66-1.52,6.01l.4,1.76c1.04,4.62,4.37,6.3,9.98,5.04,3.2-.72,5.67-2.03,7.38-3.92Z"/>
    <path d="M191.4,118.65l-16.29-3.07,16.12-85.52,16.29,3.07-9.6,50.96.55.1,9.8-9.66,15.57-12.45,18.05,3.4-24.85,19.37,15.42,41.54-19.37-3.65-9.04-28.83-9.34,7.24-3.3,17.5Z"/>
    <path d="M255.98,119.94c-4.04-3.62-6.73-9.25-8.06-16.9l-6.63-38.07,16.33-2.84,6.4,36.74c.72,4.12,1.97,7.05,3.75,8.78,1.78,1.74,4.25,2.33,7.42,1.78s5.69-1.82,7.58-3.82c1.89-1.99,2.58-4.46,2.06-7.41l-6.9-39.61,16.33-2.84,10.57,60.69-16.33,2.84-1.77-10.15-.55.1c-.64,3.75-2.15,6.91-4.54,9.49s-5.83,4.26-10.32,5.04c-6.18,1.08-11.29-.19-15.33-3.81Z"/>
    <path d="M334.46,125.88h-22.95V8.25h26.64l33.54,57.61,11.23,23.91h.64V8.25h22.95v117.63h-26.64l-33.54-57.61-11.39-23.91h-.48v81.52Z"/>
    <path d="M414.01,115.36c-2.83-3.8-3.8-8.39-2.93-13.79,1.02-6.28,4.05-10.65,9.1-13.09,5.05-2.44,11.77-2.98,20.18-1.62l9.84,1.6.65-3.98c1.09-6.71-1.87-10.63-8.87-11.76-3.17-.51-5.91-.29-8.22.68-2.31.97-4.43,2.45-6.34,4.45l-8.34-10.16c3.11-3.33,6.74-5.67,10.9-7.03,4.15-1.36,9.22-1.55,15.19-.58,8.4,1.36,14.49,4.3,18.26,8.81,3.77,4.51,5.07,10.34,3.92,17.48l-4.45,27.42,5.75.93-2.06,12.71-9.07-1.47c-3.1-.5-5.5-1.87-7.22-4.12-1.72-2.24-2.53-5.02-2.45-8.34l-.66-.11c-1.59,3.75-4.14,6.4-7.64,7.95-3.5,1.55-7.58,1.95-12.22,1.2-6.04-.98-10.48-3.37-13.3-7.17ZM443.33,111.21c2.3-1.11,3.67-3.04,4.12-5.79l1.25-7.68-8.73-1.42c-3.54-.57-6.33-.38-8.38.58-2.05.96-3.26,2.63-3.65,5.01l-.29,1.78c-.76,4.68,1.7,7.47,7.38,8.39,3.24.53,6.01.23,8.31-.88Z"/>
    <path d="M523.28,113.97l-18.96,5.39-36.35-53.7,15.73-4.47,14.64,22.39,11.56,19.77.97-.28-.47-22.92.45-26.68,15.08-4.29-2.64,64.8Z"/>
    <path d="M553.61,129.28l-16.32-2.88,10.7-60.66,16.32,2.88-10.7,60.66Z"/>
    <path d="M560.38,58.72l-5.33-.94c-3.04-.54-5.06-3.43-4.53-6.47l.93-5.28c.54-3.04,3.43-5.06,6.47-4.53l5.33.94c3.04.54,5.06,3.43,4.53,6.47l-.93,5.28c-.54,3.04-3.43,5.06-6.47,4.53Z"/>
    <path class="cls-5" d="M.61,126.09V1.09h59.86c10.23,0,18.27,2.9,24.13,8.7,5.85,5.8,8.78,13.59,8.78,23.36,0,8.87-2.13,15.46-6.4,19.78-4.26,4.32-9.75,6.71-16.46,7.16v1.02c4.21,0,8.44,1.02,12.7,3.07,4.26,2.05,7.82,5.26,10.66,9.63,2.84,4.38,4.26,9.92,4.26,16.63s-1.42,12.45-4.26,17.91c-2.84,5.46-6.71,9.78-11.6,12.96-4.89,3.18-10.35,4.78-16.37,4.78H.61ZM54.5,52.76c3.86,0,6.88-1.08,9.04-3.24s3.24-5.17,3.24-9.04v-5.29c0-3.75-1.08-6.74-3.24-8.95-2.16-2.22-5.17-3.32-9.04-3.32h-27.97v29.84h27.97ZM58.59,104.26c3.98,0,7.08-1.11,9.29-3.33s3.33-5.26,3.33-9.12v-5.8c0-3.86-1.11-6.85-3.33-8.95-2.22-2.1-5.32-3.15-9.29-3.15H26.53v30.35h32.06Z"/>
    <path class="cls-2" d="M110.8,125.76c-4.04-2.47-6.66-6.37-7.86-11.7-1.4-6.21-.21-11.39,3.56-15.54,3.77-4.15,9.81-7.16,18.11-9.03l9.72-2.19-.89-3.93c-1.49-6.63-5.7-9.16-12.62-7.6-3.13.71-5.59,1.94-7.38,3.7-1.78,1.76-3.19,3.92-4.22,6.49l-11.53-6.31c1.64-4.25,4.14-7.78,7.49-10.59,3.35-2.81,7.97-4.88,13.87-6.21,8.3-1.87,15.04-1.42,20.22,1.35,5.18,2.78,8.57,7.7,10.16,14.76l6.11,27.1,5.68-1.28,2.83,12.56-8.96,2.02c-3.06.69-5.8.31-8.23-1.13-2.43-1.44-4.22-3.72-5.38-6.82l-.66.15c-.08,4.07-1.45,7.48-4.12,10.23-2.67,2.74-6.3,4.64-10.89,5.67-5.97,1.35-10.98.79-15.02-1.68ZM136.45,110.96c1.72-1.89,2.27-4.19,1.66-6.91l-1.71-7.59-8.63,1.95c-3.5.79-6.01,2.01-7.55,3.67-1.54,1.66-2.04,3.66-1.52,6.01l.4,1.76c1.04,4.62,4.37,6.3,9.98,5.04,3.2-.72,5.67-2.03,7.38-3.92Z"/>
    <path class="cls-3" d="M180.28,119.74l-16.29-3.07,16.12-85.52,16.29,3.07-9.6,50.96.55.1,9.8-9.66,15.57-12.45,18.05,3.4-24.85,19.37,15.42,41.54-19.37-3.65-9.04-28.83-9.34,7.24-3.3,17.5Z"/>
    <path class="cls-8" d="M244.86,121.03c-4.04-3.62-6.73-9.25-8.06-16.9l-6.63-38.07,16.33-2.84,6.4,36.74c.72,4.12,1.97,7.05,3.75,8.78,1.78,1.74,4.25,2.33,7.42,1.78s5.69-1.82,7.58-3.82c1.89-1.99,2.58-4.46,2.06-7.41l-6.9-39.61,16.33-2.84,10.57,60.69-16.33,2.84-1.77-10.15-.55.1c-.64,3.75-2.15,6.91-4.54,9.49s-5.83,4.26-10.32,5.04c-6.18,1.08-11.29-.19-15.33-3.81Z"/>
    <path class="cls-11" d="M322.34,125.97h-22.95V8.34h26.64l33.54,57.61,11.23,23.91h.64V8.34h22.95v117.63h-26.64l-33.54-57.61-11.39-23.91h-.48v81.52Z"/>
    <path class="cls-9" d="M403.19,112.59c-2.83-3.8-3.8-8.39-2.93-13.79,1.02-6.28,4.05-10.65,9.1-13.09,5.05-2.44,11.77-2.98,20.18-1.62l9.84,1.6.65-3.98c1.09-6.71-1.87-10.63-8.87-11.76-3.17-.51-5.91-.29-8.22.68-2.31.97-4.43,2.45-6.34,4.45l-8.34-10.16c3.11-3.33,6.74-5.67,10.9-7.03,4.15-1.36,9.22-1.55,15.19-.58,8.4,1.36,14.49,4.3,18.26,8.81,3.77,4.51,5.07,10.34,3.92,17.48l-4.45,27.42,5.75.93-2.06,12.71-9.07-1.47c-3.1-.5-5.5-1.87-7.22-4.12-1.72-2.24-2.53-5.02-2.45-8.34l-.66-.11c-1.59,3.75-4.14,6.4-7.64,7.95-3.5,1.55-7.58,1.95-12.22,1.2-6.04-.98-10.48-3.37-13.3-7.17ZM432.51,108.44c2.3-1.11,3.67-3.04,4.12-5.79l1.25-7.68-8.73-1.42c-3.54-.57-6.33-.38-8.38.58-2.05.96-3.26,2.63-3.65,5.01l-.29,1.78c-.76,4.68,1.7,7.47,7.38,8.39,3.24.53,6.01.23,8.31-.88Z"/>
    <path class="cls-10" d="M514.71,121.13l-18.96,5.39-36.35-53.7,15.73-4.47,14.64,22.39,11.56,19.77.97-.28-.47-22.92.45-26.68,15.08-4.29-2.64,64.8Z"/>
    <path class="cls-7" d="M542.83,126.35l-16.32-2.88,10.7-60.66,16.32,2.88-10.7,60.66Z"/>
    <path class="cls-6" d="M549.6,55.79l-5.33-.94c-3.04-.54-5.06-3.43-4.53-6.47l.93-5.28c.54-3.04,3.43-5.06,6.47-4.53l5.33.94c3.04.54,5.06,3.43,4.53,6.47l-.93,5.28c-.54,3.04-3.43,5.06-6.47,4.53Z"/>
    <g>
      <circle class="cls-4" cx="50.5" cy="90.86" r="29.5" transform="translate(-40.93 140.32) rotate(-89.34)"/>
      <path d="M12.06,55.67c-.26.51-.06,1.14.46,1.4,3.23,1.85,4.85,3.03,2.92,5.53-1.94,2.3-1.5,5.12,1.18,7.12.33.24.77.28,1.13.08h0c.67-.36.76-1.29.16-1.75-.85-.65-1.55-1.44-1.6-2.3.07-1.76,2.31-2.97,2.07-5.19-.11-1.97-1.71-3.71-4.89-5.34-.51-.27-1.14-.07-1.4.44,0,0,0,0,0,.01Z"/>
      <path d="M4.54,50.7c-.55.82-.32,1.93.5,2.48h0s2.19,1.45,2.19,1.45c.83.54,1.94.31,2.48-.51.54-.82.32-1.93-.5-2.47l-2.19-1.45c-.82-.55-1.93-.32-2.48.5h0Z"/>
      <path d="M13.53,51.52c.71-.81-.17-2.96-.27-3.87-.2-.97-1.15-1.59-2.12-1.38,0,0,0,0,0,0-2.27.54-1.1,3.12-.86,4.63.22.97,1.18,1.58,2.15,1.36.44-.1.83-.36,1.09-.74Z"/>
      <path d="M16.56,48.33l-1.39,2.1c-.55.82-.33,1.93.5,2.48.82.55,1.93.33,2.48-.5,0,0,0,0,0,0l1.39-2.1c.53-.83.28-1.94-.55-2.47-.81-.52-1.89-.3-2.43.49Z"/>
      <path d="M10.04,64.66l1.39-2.1c.54-.83.31-1.94-.51-2.48-.82-.54-1.93-.32-2.47.5l-1.39,2.1c-.53.83-.28,1.94.55,2.47.81.52,1.89.3,2.43-.49Z"/>
      <path class="cls-12" d="M39.03,108.52c-1.4-2.22-4.35-3.48-5.76-5.7-1.4-2.23-1.38-5.3-2.52-7.75-.12-.19-.53-1.3-1.83-1.6-.82-.19-1.72-.06-2.48.42-1.53.97-1.19,2.52-1.03,4.54.21,2.6,1.37,5.39,2.76,7.59,1.42,2.25,3.22,3.98,5.67,5.76.18.13.18.21,1.63,1,.74.4,2.15.51,2.91.03h0c1.53-.97,1.61-2.77.64-4.3Z"/>
      <rect class="cls-12" x="41.6" y="111.38" width="4.77" height="4.77" rx="2.2" ry="2.2" transform="translate(34.39 -7.83) rotate(16.63)"/>
      <path d="M7.66,59.42c.97-.21,1.58-1.17,1.36-2.13-.21-.94-1.11-1.54-2.06-1.38l-2.52.5c-.97.21-1.58,1.17-1.36,2.13.21.94,1.11,1.54,2.06,1.38l2.52-.5Z"/>
      <path class="cls-1" d="M32.33,64.77c-2.08,1.62-5.23,4.45-8.09,8.77-2.82,4.26-4.19,8.22-4.88,10.75-2.21-1.37-3.84-2.43-4.45-2.84-.16-.11-.48-.33-.73-.75-.17-.3-.26-.63-.3-.98-.12-.92.3-1.74.52-2.1,3.26-4.92,6.51-9.84,9.77-14.76.21-.32.8-1.01,1.67-1.28.43-.13.86-.09.97-.08.47.04.82.2,1.09.33.69.36,2.33,1.42,4.44,2.94Z"/>
    </g>
  </g>
</svg>