<?xml version="1.0" encoding="UTF-8"?>
<svg id="_レイヤー_2" data-name="レイヤー_2" xmlns="http://www.w3.org/2000/svg" xmlns:xlink="http://www.w3.org/1999/xlink" viewBox="0 0 573.68 217.49">
  <defs>
    <style>
      .cls-1 {
        stroke-width: .29px;
      }

      .cls-1, .cls-2, .cls-3, .cls-4, .cls-5, .cls-6, .cls-7, .cls-8, .cls-9, .cls-10, .cls-11 {
        stroke: #000;
        stroke-miterlimit: 10;
      }

      .cls-12, .cls-13 {
        fill: #f0a7c5;
      }

      .cls-2 {
        fill: url(#_名称未設定グラデーション_43);
      }

      .cls-3 {
        fill: url(#_名称未設定グラデーション_35);
      }

      .cls-14 {
        fill: #d6daf6;
      }

      .cls-13 {
        fill-rule: evenodd;
      }

      .cls-4 {
        fill: #7d85c3;
        stroke-width: 1.67px;
      }

      .cls-15 {
        fill: #fff;
      }

      .cls-5 {
        fill: url(#_名称未設定グラデーション_38);
        stroke-width: 1.23px;
      }

      .cls-6 {
        fill: url(#_名称未設定グラデーション_43-5);
      }

      .cls-7 {
        fill: url(#_名称未設定グラデーション_43-4);
      }

      .cls-8 {
        fill: url(#_名称未設定グラデーション_43-2);
      }

      .cls-9 {
        fill: url(#_名称未設定グラデーション_43-3);
      }

      .cls-10 {
        fill: url(#_名称未設定グラデーション_38-3);
      }

      .cls-11 {
        fill: url(#_名称未設定グラデーション_38-2);
      }
    </style>
    <linearGradient id="_名称未設定グラデーション_38" data-name="名称未設定グラデーション 38" x1=".61" y1="110.82" x2="98.16" y2="110.82" gradientUnits="userSpaceOnUse">
      <stop offset="0" stop-color="#d6daf6"/>
      <stop offset=".37" stop-color="#d7d7f3"/>
      <stop offset=".6" stop-color="#dbceeb"/>
      <stop offset=".8" stop-color="#e3c0dd"/>
      <stop offset=".97" stop-color="#edabc9"/>
      <stop offset="1" stop-color="#f0a7c5"/>
    </linearGradient>
    <linearGradient id="_名称未設定グラデーション_43" data-name="名称未設定グラデーション 43" x1="135.86" y1="135.71" x2="194.77" y2="135.71" gradientTransform="translate(-62.56 44.94) rotate(-12.7)" gradientUnits="userSpaceOnUse">
      <stop offset="0" stop-color="#f0a7c5"/>
      <stop offset=".36" stop-color="#eea9c7"/>
      <stop offset=".59" stop-color="#eab2d0"/>
      <stop offset=".8" stop-color="#e2c1de"/>
      <stop offset=".98" stop-color="#d7d6f2"/>
      <stop offset="1" stop-color="#d6daf6"/>
    </linearGradient>
    <linearGradient id="_名称未設定グラデーション_35" data-name="名称未設定グラデーション 35" x1="141.44" y1="137.21" x2="199.79" y2="137.21" gradientTransform="translate(58.47 -39.89) rotate(10.67)" gradientUnits="userSpaceOnUse">
      <stop offset="0" stop-color="#d6daf6"/>
      <stop offset=".37" stop-color="#d7d7f3"/>
      <stop offset=".6" stop-color="#dbceeb"/>
      <stop offset=".8" stop-color="#e3c0dd"/>
      <stop offset=".97" stop-color="#edabc9"/>
      <stop offset="1" stop-color="#f0a7c5"/>
    </linearGradient>
    <linearGradient id="_名称未設定グラデーション_43-2" data-name="名称未設定グラデーション 43" x1="264.28" y1="136.72" x2="318.04" y2="136.72" gradientTransform="translate(-48.24 55.03) rotate(-9.88)" xlink:href="#_名称未設定グラデーション_43"/>
    <linearGradient id="_名称未設定グラデーション_38-2" data-name="名称未設定グラデーション 38" x1="299.39" y1="114.39" x2="394.39" y2="114.39" xlink:href="#_名称未設定グラデーション_38"/>
    <linearGradient id="_名称未設定グラデーション_43-3" data-name="名称未設定グラデーション 43" x1="433.6" y1="136.64" x2="492.52" y2="136.64" gradientTransform="translate(-48.96 91.78) rotate(-10.74)" xlink:href="#_名称未設定グラデーション_43"/>
    <linearGradient id="_名称未設定グラデーション_38-3" data-name="名称未設定グラデーション 38" x1="413.91" y1="161.5" x2="474.16" y2="161.5" gradientTransform="translate(122.87 -150.13) rotate(18.38)" xlink:href="#_名称未設定グラデーション_38"/>
    <linearGradient id="_名称未設定グラデーション_43-4" data-name="名称未設定グラデーション 43" x1="568.95" y1="140.43" x2="585.53" y2="140.43" gradientTransform="translate(-44.67 113.42) rotate(-10.79)" xlink:href="#_名称未設定グラデーション_43"/>
    <linearGradient id="_名称未設定グラデーション_43-5" data-name="名称未設定グラデーション 43" x1="568.95" y1="92.31" x2="585.53" y2="92.31" gradientTransform="translate(-44.67 113.42) rotate(-10.79)" xlink:href="#_名称未設定グラデーション_43"/>
  </defs>
  <g id="_装飾_x2460_" data-name="装飾_x2460_">
    <g>
      <g>
        <path class="cls-14" d="M214.15,15.58s.04-.01.04-.03-.02-.03-.04-.03-.04.01-.04.03c0,.02.02.03.04.03Z"/>
        <path class="cls-14" d="M228.52,15.81c.11,0,.2-.06.2-.15,0-.08-.09-.15-.2-.15-.11,0-.2.07-.2.15,0,.08.09.15.2.15Z"/>
        <path class="cls-14" d="M242.9,16.1c.24,0,.44-.14.44-.32,0-.18-.19-.33-.43-.33-.24,0-.44.14-.44.32,0,.18.19.33.44.33Z"/>
        <path class="cls-14" d="M257.27,16.33c.33,0,.6-.2.6-.44,0-.25-.26-.45-.59-.45-.33,0-.6.19-.6.44,0,.25.26.45.59.45Z"/>
        <path class="cls-14" d="M271.64,16.48c.35,0,.64-.21.64-.47,0-.26-.28-.48-.63-.48-.35,0-.64.21-.64.47,0,.26.28.48.63.48Z"/>
        <path class="cls-14" d="M286.02,16.56c.33,0,.6-.19.6-.44,0-.25-.26-.45-.59-.45-.33,0-.6.2-.61.44,0,.25.26.45.59.45Z"/>
        <path class="cls-14" d="M300.4,16.55c.24,0,.44-.14.44-.32,0-.18-.19-.33-.43-.33-.24,0-.44.14-.44.32,0,.18.19.33.43.33Z"/>
        <path class="cls-14" d="M314.78,16.49c.11,0,.2-.07.2-.15,0-.08-.09-.15-.2-.15-.11,0-.2.07-.2.15,0,.08.09.15.2.15Z"/>
        <path class="cls-14" d="M329.15,16.48s.04-.01.04-.03c0-.02-.02-.03-.04-.03-.02,0-.04.01-.04.03s.02.03.04.03Z"/>
        <path class="cls-14" d="M185.24,26.27c.18,0,.32-.1.32-.24,0-.13-.14-.24-.31-.24-.18,0-.32.1-.32.24,0,.13.14.24.31.24Z"/>
        <path class="cls-14" d="M199.61,26.89c.55,0,1-.32,1.01-.73,0-.41-.44-.74-.99-.75-.55,0-1,.32-1.01.73,0,.41.44.75.99.75Z"/>
        <path class="cls-14" d="M213.98,27.47c.9,0,1.64-.53,1.65-1.2,0-.67-.71-1.22-1.62-1.23-.9,0-1.64.53-1.65,1.2,0,.67.71,1.22,1.62,1.23Z"/>
        <path class="cls-14" d="M228.35,27.88c1.12,0,2.04-.66,2.05-1.5.01-.84-.89-1.52-2.01-1.53-1.12,0-2.04.66-2.06,1.5-.01.84.89,1.52,2.01,1.53Z"/>
        <path class="cls-14" d="M242.72,28.14c1.23.01,2.24-.73,2.26-1.64.01-.92-.98-1.67-2.21-1.68-1.23-.01-2.24.73-2.26,1.65-.01.92.98,1.67,2.21,1.68Z"/>
        <path class="cls-14" d="M257.1,28.35c1.3.01,2.36-.77,2.38-1.73.01-.97-1.03-1.76-2.33-1.77-1.3-.01-2.36.77-2.38,1.73-.01.97,1.03,1.76,2.33,1.77Z"/>
        <path class="cls-14" d="M271.47,28.49c1.32.01,2.4-.78,2.42-1.76.01-.98-1.05-1.79-2.37-1.8-1.32-.01-2.4.78-2.42,1.76-.01.98,1.05,1.79,2.37,1.8Z"/>
        <path class="cls-14" d="M285.85,28.57c1.3.01,2.36-.77,2.38-1.73.01-.97-1.03-1.76-2.33-1.77-1.3-.01-2.36.77-2.38,1.73-.01.97,1.03,1.76,2.33,1.77Z"/>
        <path class="cls-14" d="M300.23,28.6c1.23,0,2.24-.73,2.26-1.65.01-.92-.98-1.67-2.21-1.68-1.23,0-2.24.73-2.26,1.65-.01.92.98,1.67,2.21,1.68Z"/>
        <path class="cls-14" d="M314.6,28.56c1.12,0,2.04-.66,2.05-1.5s-.89-1.52-2.01-1.53c-1.12,0-2.04.66-2.06,1.5-.01.84.89,1.52,2.01,1.53Z"/>
        <path class="cls-14" d="M328.98,28.38c.9,0,1.64-.53,1.65-1.21.01-.67-.71-1.22-1.62-1.23-.9,0-1.64.53-1.65,1.2,0,.67.71,1.22,1.62,1.23Z"/>
        <path class="cls-14" d="M343.37,28.01c.55,0,1-.32,1.01-.73,0-.41-.44-.75-.99-.75-.55,0-1,.32-1.01.73,0,.41.44.75.99.75Z"/>
        <path class="cls-14" d="M357.75,27.62c.18,0,.32-.1.32-.24,0-.13-.14-.24-.31-.24-.18,0-.32.1-.32.24,0,.13.14.24.31.24Z"/>
        <path class="cls-14" d="M156.34,36.66c.11,0,.2-.06.2-.15,0-.08-.09-.15-.2-.15-.11,0-.2.06-.2.15,0,.08.09.15.2.15Z"/>
        <path class="cls-14" d="M170.71,37.49c.64,0,1.16-.38,1.17-.85,0-.48-.5-.86-1.14-.87-.64,0-1.16.38-1.17.85,0,.48.5.87,1.14.87Z"/>
        <path class="cls-14" d="M185.07,38.22c1.1,0,2-.65,2.01-1.47.01-.82-.87-1.49-1.97-1.5-1.1,0-2,.65-2.01,1.47-.01.82.87,1.49,1.97,1.5Z"/>
        <path class="cls-14" d="M199.44,38.66c1.34.01,2.44-.79,2.46-1.79.01-1-1.06-1.82-2.41-1.83-1.34-.01-2.44.79-2.46,1.79-.01,1,1.06,1.82,2.41,1.83Z"/>
        <path class="cls-14" d="M213.82,39.07c1.56.01,2.84-.92,2.86-2.09.02-1.16-1.24-2.12-2.8-2.13-1.56-.01-2.84.92-2.86,2.09-.02,1.16,1.24,2.12,2.8,2.13Z"/>
        <path class="cls-14" d="M228.19,39.39c1.72.01,3.12-1.01,3.14-2.29.02-1.28-1.36-2.33-3.08-2.34-1.72-.01-3.12,1.01-3.14,2.29-.02,1.28,1.36,2.33,3.08,2.34Z"/>
        <path class="cls-14" d="M242.56,39.68c1.85.01,3.36-1.09,3.38-2.47.02-1.38-1.46-2.51-3.31-2.52-1.85-.01-3.36,1.09-3.38,2.47-.02,1.38,1.46,2.51,3.31,2.52Z"/>
        <path class="cls-14" d="M256.93,39.91c1.94.02,3.52-1.14,3.55-2.58.02-1.44-1.53-2.63-3.47-2.64-1.94-.02-3.52,1.14-3.54,2.58-.02,1.44,1.53,2.63,3.47,2.64Z"/>
        <path class="cls-14" d="M271.31,40.09c1.98.01,3.6-1.17,3.63-2.64s-1.57-2.69-3.55-2.7c-1.98-.02-3.6,1.17-3.63,2.64-.02,1.48,1.57,2.68,3.55,2.7Z"/>
        <path class="cls-14" d="M285.69,40.14c1.94.01,3.52-1.14,3.54-2.59.02-1.44-1.53-2.62-3.47-2.64-1.94-.01-3.52,1.14-3.55,2.58-.02,1.44,1.53,2.63,3.47,2.64Z"/>
        <path class="cls-14" d="M300.06,40.16c1.87.01,3.4-1.1,3.42-2.5.02-1.39-1.48-2.54-3.35-2.55-1.87-.01-3.4,1.1-3.42,2.5-.02,1.39,1.48,2.54,3.35,2.55Z"/>
        <path class="cls-14" d="M314.44,40.1c1.74.01,3.16-1.02,3.18-2.32.02-1.3-1.38-2.36-3.12-2.37-1.74-.01-3.16,1.03-3.18,2.32-.02,1.3,1.38,2.36,3.12,2.37Z"/>
        <path class="cls-14" d="M328.82,39.97c1.56.01,2.84-.92,2.86-2.09.02-1.16-1.24-2.12-2.8-2.13-1.56-.01-2.84.92-2.86,2.09-.02,1.16,1.24,2.12,2.8,2.13Z"/>
        <path class="cls-14" d="M343.2,39.82c1.37.01,2.48-.8,2.5-1.82.01-1.02-1.08-1.85-2.45-1.86-1.37-.01-2.48.81-2.5,1.82-.01,1.02,1.08,1.85,2.45,1.86Z"/>
        <path class="cls-14" d="M357.58,39.6c1.12,0,2.04-.66,2.06-1.5.01-.84-.89-1.52-2.01-1.53-1.12,0-2.04.66-2.06,1.5-.01.84.89,1.52,2.01,1.53Z"/>
        <path class="cls-14" d="M371.96,39.09c.66,0,1.2-.39,1.21-.88s-.52-.89-1.18-.9c-.66,0-1.2.39-1.21.88,0,.49.52.89,1.18.9Z"/>
        <path class="cls-14" d="M386.35,38.46c.11,0,.2-.07.2-.15,0-.08-.09-.15-.2-.15-.11,0-.2.07-.2.15,0,.08.09.15.2.15Z"/>
        <path class="cls-14" d="M141.81,47.46c.26,0,.48-.16.48-.35,0-.2-.21-.36-.47-.36-.26,0-.48.16-.48.35,0,.2.21.36.47.36Z"/>
        <path class="cls-14" d="M156.17,48.5c.95,0,1.72-.56,1.73-1.26,0-.7-.75-1.28-1.7-1.29-.95,0-1.72.56-1.73,1.26-.01.7.75,1.28,1.69,1.29Z"/>
        <path class="cls-14" d="M170.54,49.11c1.32.01,2.4-.78,2.42-1.76.01-.98-1.05-1.79-2.37-1.8-1.32-.01-2.4.78-2.42,1.76-.01.98,1.05,1.79,2.37,1.8Z"/>
        <path class="cls-14" d="M184.91,49.64c1.63.01,2.96-.96,2.98-2.17.02-1.21-1.29-2.21-2.92-2.22-1.63-.01-2.96.96-2.98,2.17-.02,1.21,1.29,2.21,2.92,2.22Z"/>
        <path class="cls-14" d="M199.28,50.11c1.89.01,3.44-1.12,3.46-2.53.02-1.41-1.5-2.56-3.39-2.58-1.89-.01-3.44,1.12-3.46,2.53-.02,1.41,1.5,2.57,3.39,2.58Z"/>
        <path class="cls-14" d="M213.65,50.55c2.14.02,3.89-1.26,3.91-2.85.02-1.59-1.69-2.89-3.83-2.91-2.14-.02-3.89,1.26-3.91,2.85-.02,1.59,1.69,2.89,3.82,2.91Z"/>
        <path class="cls-14" d="M228.03,50.93c2.33.02,4.24-1.38,4.27-3.11.02-1.74-1.85-3.16-4.18-3.18-2.33-.02-4.25,1.38-4.27,3.11-.02,1.74,1.85,3.16,4.18,3.18Z"/>
        <path class="cls-14" d="M242.4,51.25c2.49.02,4.52-1.47,4.55-3.32.03-1.85-1.97-3.37-4.46-3.39-2.49-.02-4.52,1.47-4.55,3.32-.03,1.85,1.97,3.37,4.46,3.39Z"/>
        <path class="cls-14" d="M256.77,51.48c2.58.02,4.69-1.52,4.71-3.44s-2.04-3.49-4.61-3.51c-2.58-.02-4.69,1.52-4.71,3.44-.03,1.92,2.04,3.49,4.61,3.51Z"/>
        <path class="cls-14" d="M271.15,51.62c2.6.02,4.73-1.53,4.75-3.47.03-1.93-2.06-3.52-4.65-3.54-2.6-.02-4.73,1.53-4.75,3.47-.03,1.94,2.06,3.52,4.65,3.54Z"/>
        <path class="cls-14" d="M285.52,51.71c2.58.02,4.68-1.52,4.71-3.44.03-1.92-2.04-3.49-4.61-3.51-2.58-.02-4.68,1.52-4.71,3.44-.03,1.92,2.04,3.49,4.62,3.51Z"/>
        <path class="cls-14" d="M299.9,51.73c2.51.02,4.57-1.48,4.59-3.35.03-1.87-1.99-3.4-4.5-3.42s-4.57,1.48-4.59,3.35c-.03,1.87,1.99,3.4,4.5,3.42Z"/>
        <path class="cls-14" d="M314.28,51.63c2.36.02,4.28-1.39,4.31-3.14.02-1.75-1.86-3.19-4.22-3.21-2.36-.02-4.29,1.39-4.31,3.14s1.86,3.19,4.22,3.21Z"/>
        <path class="cls-14" d="M328.66,51.48c2.16.02,3.92-1.27,3.95-2.88.02-1.61-1.71-2.92-3.87-2.94s-3.93,1.27-3.95,2.88c-.02,1.61,1.71,2.92,3.87,2.94Z"/>
        <path class="cls-14" d="M343.04,51.3c1.94.02,3.52-1.14,3.54-2.58.02-1.44-1.53-2.63-3.47-2.64-1.94-.01-3.52,1.14-3.54,2.59-.02,1.44,1.53,2.62,3.47,2.64Z"/>
        <path class="cls-14" d="M357.42,51.02c1.65.01,3-.97,3.02-2.2.02-1.23-1.31-2.24-2.96-2.25-1.65-.01-3,.97-3.02,2.2-.02,1.23,1.31,2.24,2.96,2.25Z"/>
        <path class="cls-14" d="M371.8,50.72c1.34.01,2.44-.79,2.46-1.79.02-1-1.06-1.82-2.4-1.83-1.34-.01-2.44.79-2.46,1.79-.01,1,1.06,1.82,2.41,1.83Z"/>
        <path class="cls-14" d="M386.18,50.33c.97,0,1.76-.57,1.77-1.29.01-.72-.77-1.31-1.74-1.32-.97,0-1.76.57-1.77,1.29-.01.72.77,1.31,1.74,1.32Z"/>
        <path class="cls-14" d="M400.57,49.52c.29,0,.52-.17.52-.38,0-.21-.23-.39-.51-.39-.29,0-.52.17-.52.38,0,.21.23.39.51.39Z"/>
        <path class="cls-14" d="M127.29,58.06c.26,0,.48-.16.48-.35,0-.2-.21-.36-.47-.36-.26,0-.48.16-.48.35,0,.2.21.36.47.36Z"/>
        <path class="cls-14" d="M141.65,59.21c1.03,0,1.88-.61,1.89-1.38s-.82-1.4-1.85-1.41c-1.03,0-1.88.61-1.89,1.38,0,.77.82,1.4,1.85,1.41Z"/>
        <path class="cls-14" d="M156.01,59.82c1.41.01,2.56-.83,2.58-1.88.01-1.05-1.12-1.91-2.52-1.92-1.41-.01-2.56.83-2.58,1.88s1.12,1.91,2.52,1.92Z"/>
        <path class="cls-14" d="M170.38,60.44c1.78.01,3.24-1.05,3.26-2.38.02-1.33-1.41-2.42-3.19-2.43-1.78-.01-3.24,1.05-3.26,2.38-.02,1.33,1.41,2.42,3.2,2.43Z"/>
        <path class="cls-14" d="M184.75,61.03c2.13.02,3.88-1.26,3.91-2.85.02-1.59-1.69-2.89-3.83-2.91-2.14-.02-3.88,1.26-3.91,2.85-.02,1.59,1.69,2.89,3.83,2.91Z"/>
        <path class="cls-14" d="M199.12,61.56c2.44.02,4.45-1.44,4.47-3.26.02-1.82-1.93-3.31-4.38-3.33-2.44-.02-4.45,1.44-4.47,3.26-.03,1.82,1.93,3.31,4.38,3.33Z"/>
        <path class="cls-14" d="M213.49,62.03c2.71.02,4.93-1.6,4.96-3.61s-2.14-3.67-4.85-3.69c-2.71-.02-4.93,1.6-4.95,3.61s2.14,3.67,4.85,3.69Z"/>
        <path class="cls-14" d="M227.86,62.41c2.91.02,5.29-1.71,5.32-3.88.03-2.17-2.3-3.94-5.21-3.96-2.91-.02-5.29,1.71-5.32,3.88s2.3,3.94,5.21,3.96Z"/>
        <path class="cls-14" d="M242.24,62.73c3.06.02,5.57-1.8,5.6-4.08.03-2.28-2.42-4.15-5.48-4.17s-5.57,1.8-5.6,4.08c-.03,2.28,2.42,4.15,5.48,4.17Z"/>
        <path class="cls-14" d="M256.61,62.96c3.15.02,5.73-1.86,5.76-4.2.03-2.34-2.49-4.27-5.64-4.29-3.15-.02-5.73,1.86-5.76,4.2-.03,2.34,2.49,4.26,5.64,4.29Z"/>
        <path class="cls-14" d="M270.98,63.13c3.19.02,5.81-1.88,5.84-4.26.03-2.38-2.53-4.32-5.72-4.35-3.19-.03-5.81,1.88-5.84,4.26-.03,2.38,2.53,4.33,5.72,4.35Z"/>
        <path class="cls-14" d="M285.36,63.21c3.17.02,5.77-1.87,5.8-4.23.03-2.36-2.51-4.3-5.68-4.32-3.17-.03-5.77,1.87-5.8,4.23s2.51,4.3,5.68,4.32Z"/>
        <path class="cls-14" d="M299.74,63.21c3.08.02,5.61-1.82,5.64-4.11.03-2.3-2.44-4.18-5.52-4.2-3.08-.02-5.61,1.82-5.64,4.11-.03,2.3,2.44,4.17,5.52,4.2Z"/>
        <path class="cls-14" d="M314.12,63.11c2.93.02,5.33-1.73,5.36-3.91.03-2.18-2.32-3.97-5.25-3.99-2.93-.02-5.33,1.73-5.36,3.91-.03,2.18,2.32,3.97,5.25,3.99Z"/>
        <path class="cls-14" d="M328.49,62.96c2.73.02,4.97-1.61,5-3.64.03-2.03-2.16-3.7-4.89-3.72-2.73-.02-4.97,1.61-4.99,3.64-.03,2.03,2.16,3.7,4.89,3.72Z"/>
        <path class="cls-14" d="M342.88,62.71c2.46.02,4.49-1.45,4.51-3.29.03-1.84-1.95-3.34-4.42-3.36-2.47-.02-4.49,1.45-4.51,3.29-.03,1.84,1.95,3.34,4.42,3.36Z"/>
        <path class="cls-14" d="M357.26,62.41c2.16.02,3.92-1.27,3.95-2.88.02-1.61-1.71-2.92-3.87-2.94-2.16-.02-3.92,1.27-3.95,2.88-.02,1.61,1.71,2.92,3.87,2.94Z"/>
        <path class="cls-14" d="M371.64,62.05c1.8.01,3.28-1.06,3.3-2.41.02-1.34-1.43-2.45-3.24-2.46s-3.28,1.06-3.3,2.41c-.02,1.34,1.43,2.45,3.23,2.46Z"/>
        <path class="cls-14" d="M386.02,61.69c1.45.01,2.64-.86,2.66-1.94.02-1.08-1.15-1.97-2.6-1.98-1.45-.01-2.64.86-2.66,1.94-.01,1.08,1.15,1.97,2.6,1.98Z"/>
        <path class="cls-14" d="M400.4,61.27c1.06,0,1.92-.62,1.93-1.41.01-.79-.84-1.43-1.89-1.44-1.06,0-1.92.62-1.93,1.41-.01.79.84,1.43,1.89,1.44Z"/>
        <path class="cls-14" d="M414.79,60.34c.29,0,.52-.17.52-.38,0-.21-.23-.39-.51-.39-.29,0-.52.17-.52.38,0,.21.23.39.51.39Z"/>
        <path class="cls-14" d="M112.76,68.44c.11,0,.2-.07.2-.15,0-.08-.09-.15-.2-.15-.11,0-.2.06-.2.15,0,.08.09.15.2.15Z"/>
        <path class="cls-14" d="M127.12,69.68c.95,0,1.72-.56,1.73-1.26,0-.71-.75-1.28-1.7-1.29-.95,0-1.72.56-1.73,1.26,0,.7.75,1.28,1.69,1.29Z"/>
        <path class="cls-14" d="M141.49,70.39c1.39.01,2.52-.82,2.54-1.85.01-1.03-1.1-1.88-2.48-1.89-1.39-.01-2.52.82-2.54,1.85-.01,1.03,1.1,1.88,2.48,1.89Z"/>
        <path class="cls-14" d="M155.86,71.06c1.81.01,3.28-1.06,3.3-2.41.02-1.34-1.43-2.45-3.23-2.46-1.81-.01-3.28,1.06-3.3,2.41-.02,1.34,1.43,2.45,3.23,2.46Z"/>
        <path class="cls-14" d="M170.22,71.71c2.2.02,4.01-1.3,4.03-2.94.02-1.64-1.74-2.98-3.94-3s-4,1.3-4.03,2.94,1.74,2.98,3.94,3Z"/>
        <path class="cls-14" d="M184.59,72.33c2.58.02,4.68-1.52,4.71-3.44.03-1.92-2.04-3.49-4.62-3.51-2.58-.02-4.68,1.52-4.71,3.44-.03,1.92,2.04,3.49,4.61,3.51Z"/>
        <path class="cls-14" d="M198.96,72.89c2.91.02,5.29-1.71,5.32-3.88.03-2.16-2.3-3.94-5.21-3.96-2.91-.02-5.29,1.71-5.32,3.88-.03,2.16,2.3,3.94,5.21,3.96Z"/>
        <path class="cls-14" d="M213.33,73.39c3.19.02,5.81-1.88,5.84-4.26s-2.53-4.33-5.72-4.35c-3.19-.02-5.81,1.88-5.84,4.26-.03,2.38,2.53,4.33,5.72,4.35Z"/>
        <path class="cls-14" d="M227.7,73.77c3.39.03,6.17-2,6.2-4.52.04-2.52-2.68-4.59-6.07-4.62s-6.17,2-6.2,4.52c-.03,2.52,2.68,4.59,6.07,4.62Z"/>
        <path class="cls-14" d="M242.07,74.09c3.54.03,6.45-2.09,6.49-4.73.04-2.64-2.81-4.8-6.35-4.83-3.54-.03-6.45,2.09-6.49,4.73-.04,2.64,2.81,4.8,6.35,4.83Z"/>
        <path class="cls-14" d="M256.45,74.32c3.63.03,6.61-2.14,6.65-4.85.04-2.71-2.88-4.92-6.51-4.95-3.63-.03-6.61,2.14-6.65,4.85-.04,2.71,2.88,4.92,6.51,4.95Z"/>
        <path class="cls-14" d="M270.82,74.46c3.66.03,6.65-2.15,6.69-4.88.04-2.72-2.89-4.95-6.55-4.98-3.66-.03-6.65,2.16-6.69,4.88-.04,2.72,2.89,4.95,6.55,4.98Z"/>
        <path class="cls-14" d="M285.2,74.54c3.63.03,6.61-2.14,6.65-4.85.04-2.7-2.88-4.92-6.51-4.95-3.63-.03-6.61,2.14-6.65,4.85-.04,2.7,2.87,4.92,6.51,4.95Z"/>
        <path class="cls-14" d="M299.58,74.54c3.55.03,6.45-2.09,6.49-4.73.04-2.64-2.81-4.8-6.35-4.83-3.54-.03-6.45,2.09-6.49,4.73-.04,2.64,2.81,4.8,6.35,4.83Z"/>
        <path class="cls-14" d="M313.95,74.47c3.41.03,6.21-2.01,6.24-4.55.04-2.54-2.7-4.62-6.11-4.65-3.41-.03-6.21,2.01-6.24,4.55s2.7,4.62,6.11,4.65Z"/>
        <path class="cls-14" d="M328.33,74.29c3.19.02,5.81-1.88,5.84-4.26.03-2.38-2.53-4.33-5.72-4.35-3.19-.02-5.81,1.88-5.84,4.26-.03,2.38,2.53,4.32,5.72,4.35Z"/>
        <path class="cls-14" d="M342.71,74.04c2.93.02,5.33-1.73,5.36-3.91.03-2.18-2.32-3.97-5.25-3.99s-5.33,1.73-5.36,3.91c-.03,2.18,2.32,3.97,5.25,3.99Z"/>
        <path class="cls-14" d="M357.1,73.74c2.62.02,4.77-1.54,4.79-3.5.03-1.95-2.07-3.55-4.69-3.57-2.62-.02-4.77,1.54-4.79,3.5-.03,1.95,2.07,3.55,4.69,3.57Z"/>
        <path class="cls-14" d="M371.48,73.35c2.25.02,4.08-1.32,4.11-3,.02-1.67-1.78-3.04-4.02-3.06-2.25-.02-4.08,1.32-4.11,3-.02,1.67,1.78,3.04,4.02,3.06Z"/>
        <path class="cls-14" d="M385.86,72.93c1.85.01,3.36-1.09,3.38-2.47.02-1.38-1.46-2.51-3.31-2.52-1.85-.01-3.36,1.09-3.38,2.47-.02,1.38,1.46,2.51,3.31,2.52Z"/>
        <path class="cls-14" d="M400.25,72.48c1.43.01,2.6-.84,2.62-1.91.01-1.07-1.13-1.94-2.56-1.95-1.43-.01-2.6.84-2.62,1.91-.01,1.07,1.13,1.94,2.56,1.95Z"/>
        <path class="cls-14" d="M414.63,72c.99,0,1.8-.58,1.81-1.32.01-.74-.78-1.34-1.77-1.35-.99,0-1.8.58-1.81,1.32,0,.74.78,1.34,1.77,1.35Z"/>
        <path class="cls-14" d="M429.02,70.92c.11,0,.2-.07.2-.15,0-.08-.09-.15-.2-.15-.11,0-.2.06-.2.15,0,.08.09.15.2.15Z"/>
        <path class="cls-14" d="M112.6,79.77c.57,0,1.04-.34,1.05-.76,0-.43-.45-.78-1.02-.78-.57,0-1.04.34-1.05.76,0,.43.45.78,1.02.78Z"/>
        <path class="cls-14" d="M126.96,80.8c1.25,0,2.28-.74,2.29-1.67s-.99-1.7-2.25-1.71c-1.26-.01-2.28.74-2.3,1.67-.01.93.99,1.7,2.25,1.71Z"/>
        <path class="cls-14" d="M141.33,81.51c1.7.01,3.08-1,3.1-2.26.02-1.26-1.34-2.3-3.04-2.31-1.7-.01-3.08,1-3.1,2.26-.02,1.26,1.34,2.3,3.04,2.31Z"/>
        <path class="cls-14" d="M155.7,82.22c2.14.02,3.89-1.26,3.91-2.85.02-1.59-1.69-2.89-3.83-2.91-2.14-.02-3.89,1.26-3.91,2.85s1.69,2.89,3.82,2.91Z"/>
        <path class="cls-14" d="M170.07,82.89c2.55.02,4.65-1.51,4.67-3.41.03-1.9-2.02-3.46-4.58-3.48-2.55-.02-4.65,1.51-4.67,3.41-.03,1.9,2.02,3.46,4.58,3.48Z"/>
        <path class="cls-14" d="M184.43,83.54c2.95.02,5.37-1.74,5.4-3.93.03-2.2-2.34-4-5.29-4.02-2.95-.02-5.37,1.74-5.4,3.94-.03,2.2,2.34,4,5.29,4.02Z"/>
        <path class="cls-14" d="M198.8,84.1c3.28.03,5.97-1.93,6-4.38.03-2.44-2.6-4.44-5.88-4.47-3.28-.02-5.97,1.93-6,4.38-.03,2.44,2.6,4.44,5.88,4.47Z"/>
        <path class="cls-14" d="M213.17,84.57c3.54.03,6.45-2.09,6.48-4.73.04-2.64-2.81-4.8-6.35-4.83-3.55-.03-6.45,2.09-6.49,4.73-.04,2.64,2.81,4.8,6.35,4.83Z"/>
        <path class="cls-14" d="M227.54,84.95c3.74.03,6.81-2.21,6.85-4.99.04-2.79-2.96-5.07-6.71-5.1-3.74-.03-6.81,2.21-6.85,4.99-.04,2.79,2.96,5.07,6.71,5.1Z"/>
        <path class="cls-14" d="M241.92,85.24c3.87.03,7.05-2.28,7.09-5.17s-3.07-5.25-6.94-5.28-7.05,2.28-7.09,5.17c-.04,2.89,3.07,5.25,6.94,5.28Z"/>
        <path class="cls-14" d="M256.29,85.47c3.96.03,7.21-2.34,7.25-5.29.04-2.95-3.14-5.37-7.1-5.4s-7.21,2.34-7.25,5.29c-.04,2.95,3.14,5.37,7.1,5.4Z"/>
        <path class="cls-14" d="M270.67,85.61c3.98.03,7.25-2.35,7.29-5.32.04-2.97-3.15-5.4-7.14-5.43-3.99-.03-7.25,2.35-7.29,5.32-.04,2.97,3.15,5.4,7.14,5.43Z"/>
        <path class="cls-14" d="M285.04,85.69c3.96.03,7.21-2.34,7.25-5.29.04-2.95-3.14-5.37-7.1-5.4-3.96-.03-7.21,2.34-7.25,5.29-.04,2.95,3.14,5.37,7.1,5.4Z"/>
        <path class="cls-14" d="M299.42,85.72c3.9.03,7.09-2.3,7.13-5.2.04-2.9-3.08-5.28-6.98-5.31-3.9-.03-7.09,2.3-7.13,5.2-.04,2.9,3.09,5.28,6.98,5.31Z"/>
        <path class="cls-14" d="M313.8,85.65c3.76.03,6.85-2.22,6.89-5.02.04-2.8-2.98-5.1-6.74-5.13-3.76-.03-6.85,2.22-6.89,5.02-.04,2.8,2.98,5.1,6.74,5.13Z"/>
        <path class="cls-14" d="M328.18,85.5c3.57.03,6.49-2.1,6.53-4.76.04-2.66-2.82-4.83-6.39-4.86-3.57-.03-6.49,2.1-6.53,4.76-.04,2.66,2.82,4.83,6.39,4.86Z"/>
        <path class="cls-14" d="M342.56,85.25c3.3.03,6.01-1.95,6.04-4.41.04-2.46-2.61-4.47-5.92-4.5-3.3-.03-6.01,1.95-6.04,4.41-.04,2.46,2.61,4.47,5.92,4.5Z"/>
        <path class="cls-14" d="M356.94,84.95c2.99.02,5.45-1.76,5.48-3.99.03-2.23-2.37-4.06-5.36-4.08-2.99-.02-5.45,1.77-5.48,3.99-.03,2.23,2.37,4.06,5.36,4.08Z"/>
        <path class="cls-14" d="M371.32,84.53c2.6.02,4.73-1.53,4.75-3.47.03-1.94-2.06-3.52-4.65-3.54-2.6-.02-4.73,1.53-4.75,3.47-.03,1.94,2.06,3.52,4.65,3.54Z"/>
        <path class="cls-14" d="M385.7,84.08c2.18.02,3.96-1.28,3.99-2.91.02-1.62-1.73-2.95-3.91-2.97-2.18-.02-3.97,1.29-3.99,2.91-.02,1.62,1.72,2.95,3.9,2.97Z"/>
        <path class="cls-14" d="M400.09,83.57c1.72.01,3.12-1.01,3.14-2.29.02-1.28-1.36-2.33-3.08-2.34-1.72-.01-3.12,1.01-3.14,2.29-.02,1.28,1.36,2.33,3.08,2.34Z"/>
        <path class="cls-14" d="M414.47,83.09c1.28.01,2.32-.75,2.34-1.7.01-.95-1.01-1.73-2.29-1.74s-2.32.75-2.34,1.7c-.01.95,1.01,1.73,2.29,1.74Z"/>
        <path class="cls-14" d="M428.86,82.28c.59,0,1.08-.35,1.09-.79,0-.44-.47-.81-1.06-.81-.59,0-1.08.35-1.09.79,0,.44.47.81,1.07.81Z"/>
        <path class="cls-14" d="M98.08,89.65s.08-.03.08-.06c0-.03-.04-.06-.08-.06-.04,0-.08.03-.08.06,0,.03.03.06.08.06Z"/>
        <path class="cls-14" d="M112.44,91.01c.97,0,1.76-.57,1.77-1.29.01-.72-.76-1.31-1.73-1.32-.97,0-1.76.57-1.77,1.29-.01.72.77,1.31,1.73,1.32Z"/>
        <path class="cls-14" d="M126.81,91.78c1.45.01,2.64-.86,2.66-1.94.01-1.08-1.15-1.97-2.6-1.98-1.45-.01-2.64.86-2.66,1.94-.02,1.08,1.15,1.97,2.6,1.98Z"/>
        <path class="cls-14" d="M141.18,92.51c1.91.01,3.48-1.13,3.5-2.56.02-1.43-1.52-2.6-3.43-2.61-1.92-.02-3.48,1.13-3.5,2.56-.02,1.43,1.52,2.59,3.43,2.61Z"/>
        <path class="cls-14" d="M155.54,93.25c2.38.02,4.33-1.4,4.35-3.17.03-1.77-1.88-3.22-4.26-3.24-2.38-.02-4.33,1.4-4.35,3.17-.03,1.77,1.88,3.22,4.26,3.24Z"/>
        <path class="cls-14" d="M169.91,93.96c2.82.02,5.13-1.66,5.16-3.76.03-2.1-2.23-3.82-5.05-3.84-2.82-.02-5.13,1.66-5.16,3.76-.03,2.1,2.23,3.82,5.05,3.84Z"/>
        <path class="cls-14" d="M184.28,94.6c3.21.03,5.85-1.9,5.88-4.29.03-2.39-2.54-4.35-5.76-4.38-3.21-.02-5.85,1.9-5.88,4.29-.03,2.39,2.55,4.35,5.76,4.38Z"/>
        <path class="cls-14" d="M198.64,95.16c3.55.03,6.45-2.09,6.49-4.73.04-2.64-2.81-4.8-6.35-4.83-3.54-.03-6.45,2.09-6.49,4.73-.04,2.64,2.81,4.8,6.35,4.83Z"/>
        <path class="cls-14" d="M213.02,95.6c3.79.03,6.89-2.23,6.93-5.05.04-2.82-3-5.13-6.78-5.16-3.79-.03-6.89,2.23-6.93,5.05-.04,2.82,3,5.13,6.78,5.16Z"/>
        <path class="cls-14" d="M227.39,95.95c3.96.03,7.21-2.34,7.25-5.29.04-2.95-3.14-5.37-7.1-5.4-3.96-.03-7.21,2.34-7.25,5.29-.04,2.95,3.14,5.37,7.1,5.4Z"/>
        <path class="cls-14" d="M241.76,96.24c4.1.03,7.45-2.41,7.49-5.46.04-3.05-3.24-5.55-7.34-5.58-4.09-.03-7.45,2.41-7.49,5.46-.04,3.05,3.24,5.55,7.34,5.58Z"/>
        <path class="cls-14" d="M256.14,96.44c4.16.03,7.57-2.45,7.61-5.55.04-3.1-3.29-5.64-7.45-5.67-4.16-.03-7.57,2.45-7.61,5.55-.04,3.1,3.29,5.64,7.46,5.67Z"/>
        <path class="cls-14" d="M270.51,96.59c4.18.03,7.61-2.47,7.65-5.58.04-3.12-3.31-5.67-7.49-5.7-4.18-.03-7.61,2.47-7.65,5.58-.04,3.12,3.31,5.67,7.49,5.7Z"/>
        <path class="cls-14" d="M284.89,96.67c4.16.03,7.57-2.45,7.61-5.55.04-3.1-3.29-5.64-7.46-5.67-4.16-.03-7.57,2.45-7.61,5.55-.04,3.1,3.29,5.64,7.45,5.67Z"/>
        <path class="cls-14" d="M299.26,96.69c4.09.03,7.45-2.41,7.49-5.46s-3.24-5.55-7.34-5.58-7.45,2.41-7.49,5.46,3.24,5.55,7.34,5.58Z"/>
        <path class="cls-14" d="M313.64,96.66c3.98.03,7.25-2.35,7.29-5.32.04-2.97-3.15-5.4-7.14-5.43-3.98-.03-7.25,2.35-7.29,5.32-.04,2.97,3.15,5.4,7.14,5.43Z"/>
        <path class="cls-14" d="M328.02,96.53c3.81.03,6.93-2.25,6.97-5.08.04-2.84-3.01-5.16-6.82-5.19-3.81-.03-6.93,2.25-6.97,5.08-.04,2.84,3.01,5.16,6.82,5.19Z"/>
        <path class="cls-14" d="M342.4,96.32c3.57.03,6.49-2.1,6.53-4.76.04-2.66-2.82-4.83-6.39-4.86-3.57-.03-6.49,2.1-6.53,4.76-.04,2.66,2.82,4.83,6.39,4.86Z"/>
        <path class="cls-14" d="M356.78,96.01c3.26.03,5.93-1.92,5.96-4.35.03-2.43-2.58-4.41-5.84-4.44-3.26-.03-5.93,1.92-5.96,4.35-.03,2.43,2.58,4.41,5.84,4.44Z"/>
        <path class="cls-14" d="M371.16,95.59c2.86.02,5.21-1.69,5.24-3.82.03-2.13-2.27-3.88-5.13-3.9-2.86-.02-5.21,1.69-5.24,3.82-.03,2.13,2.27,3.88,5.13,3.9Z"/>
        <path class="cls-14" d="M385.55,95.11c2.42.02,4.41-1.43,4.43-3.23.02-1.8-1.92-3.28-4.34-3.3-2.42-.02-4.41,1.43-4.43,3.23-.02,1.8,1.92,3.28,4.34,3.3Z"/>
        <path class="cls-14" d="M399.93,94.6c1.96.01,3.57-1.16,3.59-2.62.02-1.46-1.55-2.65-3.51-2.67-1.96-.01-3.56,1.16-3.58,2.62-.02,1.46,1.55,2.65,3.51,2.67Z"/>
        <path class="cls-14" d="M414.32,94.09c1.5.01,2.72-.88,2.74-2,.02-1.11-1.19-2.03-2.68-2.04-1.5-.01-2.72.88-2.74,2-.02,1.11,1.19,2.03,2.68,2.04Z"/>
        <path class="cls-14" d="M428.7,93.55c1.01,0,1.84-.6,1.85-1.35,0-.75-.8-1.37-1.81-1.38-1.01,0-1.84.6-1.85,1.35-.01.75.8,1.37,1.81,1.38Z"/>
        <path class="cls-14" d="M443.1,92.36s.08-.03.08-.06c0-.03-.03-.06-.08-.06-.04,0-.08.03-.08.06s.04.06.08.06Z"/>
        <path class="cls-14" d="M97.93,100.57c.2,0,.36-.12.36-.26,0-.15-.16-.27-.36-.27-.2,0-.36.12-.36.26s.16.27.36.27Z"/>
        <path class="cls-14" d="M112.29,101.9c1.1,0,2-.65,2.01-1.47s-.87-1.49-1.97-1.5c-1.1,0-2,.65-2.01,1.47-.01.82.87,1.49,1.97,1.5Z"/>
        <path class="cls-14" d="M126.65,102.66c1.59.01,2.88-.94,2.9-2.11.02-1.18-1.25-2.15-2.84-2.16-1.59-.01-2.88.93-2.9,2.11-.02,1.18,1.25,2.15,2.84,2.16Z"/>
        <path class="cls-14" d="M141.02,103.43c2.07.02,3.77-1.22,3.79-2.76.02-1.54-1.64-2.8-3.71-2.82-2.07-.02-3.76,1.22-3.79,2.76-.02,1.54,1.64,2.8,3.71,2.82Z"/>
        <path class="cls-14" d="M155.39,104.16c2.53.02,4.6-1.49,4.63-3.38.03-1.89-2-3.43-4.54-3.45-2.53-.02-4.61,1.49-4.63,3.38-.03,1.89,2,3.43,4.54,3.45Z"/>
        <path class="cls-14" d="M169.75,104.9c2.99.02,5.45-1.77,5.48-4,.03-2.23-2.37-4.06-5.36-4.08-2.99-.02-5.45,1.77-5.48,4-.03,2.23,2.37,4.06,5.36,4.08Z"/>
        <path class="cls-14" d="M184.12,105.52c3.37.03,6.13-1.99,6.16-4.49.03-2.51-2.67-4.56-6.04-4.59-3.37-.03-6.13,1.98-6.16,4.49-.03,2.51,2.67,4.56,6.04,4.59Z"/>
        <path class="cls-14" d="M198.49,106.07c3.7.03,6.73-2.18,6.77-4.94.04-2.76-2.93-5.01-6.63-5.04-3.7-.03-6.73,2.18-6.77,4.94-.04,2.75,2.93,5.01,6.63,5.04Z"/>
        <path class="cls-14" d="M212.86,106.51c3.94.03,7.17-2.32,7.21-5.26.04-2.93-3.12-5.34-7.06-5.37-3.94-.03-7.17,2.32-7.21,5.26-.04,2.94,3.12,5.34,7.06,5.37Z"/>
        <path class="cls-14" d="M227.23,106.83c4.1.03,7.45-2.41,7.49-5.46s-3.24-5.55-7.34-5.58c-4.1-.03-7.45,2.41-7.49,5.46-.04,3.05,3.24,5.55,7.34,5.58Z"/>
        <path class="cls-14" d="M241.61,107.1c4.21.03,7.65-2.48,7.69-5.61.04-3.13-3.33-5.7-7.53-5.73-4.21-.03-7.65,2.48-7.69,5.61-.04,3.13,3.33,5.7,7.53,5.73Z"/>
        <path class="cls-14" d="M255.98,107.27c4.25.03,7.73-2.51,7.78-5.67.04-3.16-3.36-5.76-7.61-5.79-4.25-.03-7.73,2.51-7.78,5.67-.04,3.16,3.36,5.76,7.61,5.79Z"/>
        <path class="cls-14" d="M270.36,107.41c4.27.03,7.77-2.52,7.81-5.7.05-3.18-3.38-5.79-7.65-5.82s-7.77,2.52-7.81,5.7c-.05,3.18,3.38,5.79,7.65,5.82Z"/>
        <path class="cls-14" d="M284.73,107.49c4.25.03,7.73-2.51,7.77-5.67.04-3.16-3.36-5.76-7.61-5.79-4.25-.03-7.73,2.51-7.77,5.67-.05,3.16,3.36,5.76,7.61,5.79Z"/>
        <path class="cls-14" d="M299.11,107.55c4.21.03,7.65-2.48,7.69-5.61.05-3.13-3.33-5.7-7.53-5.73-4.2-.03-7.65,2.48-7.69,5.61-.04,3.13,3.33,5.7,7.53,5.73Z"/>
        <path class="cls-14" d="M313.49,107.54c4.12.03,7.49-2.43,7.53-5.49.04-3.07-3.26-5.58-7.38-5.61-4.12-.03-7.49,2.43-7.53,5.49-.04,3.07,3.26,5.58,7.38,5.61Z"/>
        <path class="cls-14" d="M327.87,107.45c3.96.03,7.21-2.34,7.25-5.29.04-2.95-3.14-5.37-7.1-5.4-3.96-.03-7.21,2.34-7.25,5.29-.04,2.95,3.14,5.37,7.1,5.4Z"/>
        <path class="cls-14" d="M342.24,107.23c3.72.03,6.77-2.19,6.81-4.96.04-2.77-2.95-5.04-6.67-5.07-3.72-.03-6.77,2.19-6.81,4.96-.04,2.77,2.94,5.04,6.66,5.07Z"/>
        <path class="cls-14" d="M356.63,106.93c3.41.03,6.21-2.01,6.24-4.55.03-2.54-2.7-4.62-6.11-4.65-3.41-.03-6.21,2.01-6.24,4.55-.04,2.54,2.7,4.62,6.11,4.65Z"/>
        <path class="cls-14" d="M371.01,106.51c3.02.02,5.49-1.78,5.52-4.02.03-2.25-2.39-4.09-5.4-4.11-3.02-.02-5.49,1.78-5.52,4.02-.03,2.25,2.39,4.09,5.41,4.11Z"/>
        <path class="cls-14" d="M385.39,106.03c2.58.02,4.68-1.52,4.71-3.44.03-1.92-2.04-3.49-4.61-3.51-2.58-.02-4.68,1.52-4.71,3.44-.03,1.92,2.04,3.49,4.61,3.51Z"/>
        <path class="cls-14" d="M399.78,105.52c2.11.02,3.85-1.25,3.87-2.82.02-1.57-1.67-2.86-3.79-2.88s-3.84,1.25-3.87,2.82c-.02,1.57,1.67,2.86,3.79,2.88Z"/>
        <path class="cls-14" d="M414.16,104.94c1.61.01,2.92-.95,2.94-2.14.02-1.2-1.27-2.18-2.88-2.19s-2.92.95-2.94,2.15c-.02,1.2,1.27,2.18,2.88,2.19Z"/>
        <path class="cls-14" d="M428.55,104.43c1.14,0,2.08-.68,2.09-1.53s-.91-1.55-2.05-1.56c-1.14,0-2.08.68-2.09,1.53-.01.85.91,1.55,2.05,1.56Z"/>
        <path class="cls-14" d="M442.94,103.3c.22,0,.4-.13.4-.29,0-.16-.17-.3-.39-.3-.22,0-.4.13-.4.29,0,.16.17.3.39.3Z"/>
        <path class="cls-14" d="M97.78,111.33c.24,0,.44-.14.44-.32,0-.18-.19-.33-.43-.33-.24,0-.44.14-.44.32,0,.18.19.33.43.33Z"/>
        <path class="cls-14" d="M112.14,112.66c1.14,0,2.08-.68,2.09-1.53.01-.85-.91-1.55-2.05-1.56s-2.08.68-2.09,1.53c-.01.85.91,1.55,2.05,1.56Z"/>
        <path class="cls-14" d="M126.5,113.43c1.63.01,2.96-.96,2.98-2.17s-1.29-2.21-2.92-2.22-2.96.96-2.98,2.17c-.02,1.21,1.29,2.21,2.92,2.22Z"/>
        <path class="cls-14" d="M140.87,114.19c2.11.02,3.84-1.25,3.87-2.82.02-1.57-1.67-2.86-3.79-2.88-2.11-.02-3.85,1.25-3.87,2.82-.02,1.57,1.67,2.86,3.79,2.88Z"/>
        <path class="cls-14" d="M155.23,114.96c2.6.02,4.73-1.53,4.75-3.47.03-1.93-2.06-3.52-4.65-3.54-2.6-.02-4.73,1.53-4.75,3.47-.03,1.93,2.06,3.52,4.65,3.54Z"/>
        <path class="cls-14" d="M169.6,115.66c3.04.02,5.53-1.79,5.56-4.05.03-2.26-2.41-4.12-5.44-4.14-3.04-.02-5.53,1.79-5.56,4.05-.03,2.26,2.4,4.12,5.44,4.14Z"/>
        <path class="cls-14" d="M183.97,116.31c3.43.03,6.25-2.02,6.28-4.58.04-2.56-2.72-4.65-6.15-4.68-3.43-.03-6.25,2.02-6.28,4.58-.04,2.56,2.72,4.65,6.15,4.68Z"/>
        <path class="cls-14" d="M198.34,116.84c3.74.03,6.81-2.21,6.85-4.99.04-2.79-2.96-5.07-6.7-5.1-3.74-.03-6.81,2.21-6.85,4.99-.04,2.79,2.96,5.07,6.7,5.1Z"/>
        <path class="cls-14" d="M212.71,117.28c3.99.03,7.25-2.35,7.29-5.32.04-2.97-3.15-5.4-7.14-5.43s-7.25,2.35-7.29,5.32c-.04,2.97,3.15,5.4,7.14,5.43Z"/>
        <path class="cls-14" d="M227.08,117.63c4.16.03,7.57-2.45,7.61-5.55.04-3.1-3.29-5.64-7.45-5.67-4.16-.03-7.57,2.45-7.61,5.55-.04,3.1,3.29,5.64,7.45,5.67Z"/>
        <path class="cls-14" d="M241.46,117.83c4.23.03,7.69-2.49,7.73-5.64.04-3.15-3.35-5.73-7.57-5.76-4.23-.03-7.69,2.49-7.73,5.64-.04,3.15,3.35,5.73,7.57,5.76Z"/>
        <path class="cls-14" d="M255.83,118.03c4.29.03,7.81-2.53,7.85-5.73.05-3.2-3.4-5.82-7.69-5.85-4.29-.03-7.81,2.53-7.86,5.73-.05,3.2,3.4,5.82,7.69,5.85Z"/>
        <path class="cls-14" d="M270.21,118.15c4.29.03,7.81-2.53,7.86-5.73.05-3.2-3.4-5.82-7.69-5.85s-7.81,2.53-7.86,5.73c-.04,3.2,3.4,5.82,7.69,5.85Z"/>
        <path class="cls-14" d="M284.58,118.26c4.29.03,7.81-2.53,7.86-5.73.05-3.2-3.4-5.82-7.69-5.85-4.29-.03-7.81,2.53-7.86,5.73-.04,3.2,3.4,5.82,7.69,5.85Z"/>
        <path class="cls-14" d="M298.96,118.28c4.23.03,7.69-2.49,7.73-5.64.04-3.15-3.35-5.73-7.57-5.76-4.23-.03-7.69,2.49-7.73,5.64-.04,3.15,3.35,5.73,7.57,5.76Z"/>
        <path class="cls-14" d="M313.33,118.31c4.16.03,7.57-2.45,7.61-5.55.04-3.1-3.29-5.64-7.46-5.67-4.16-.03-7.57,2.45-7.61,5.55-.04,3.1,3.29,5.64,7.46,5.67Z"/>
        <path class="cls-14" d="M327.71,118.21c4.01.03,7.29-2.36,7.33-5.35.04-2.98-3.17-5.43-7.18-5.46-4.01-.03-7.29,2.36-7.33,5.35-.04,2.98,3.17,5.43,7.18,5.46Z"/>
        <path class="cls-14" d="M342.09,118.03c3.79.03,6.89-2.23,6.93-5.05.04-2.82-3-5.13-6.78-5.16-3.79-.03-6.89,2.23-6.93,5.05-.04,2.82,3,5.13,6.78,5.16Z"/>
        <path class="cls-14" d="M356.47,117.72c3.48.03,6.33-2.05,6.36-4.64.04-2.59-2.75-4.71-6.23-4.74-3.48-.03-6.33,2.05-6.36,4.64-.04,2.59,2.75,4.71,6.23,4.74Z"/>
        <path class="cls-14" d="M370.86,117.33c3.1.02,5.65-1.83,5.68-4.14.03-2.31-2.46-4.2-5.56-4.23-3.1-.02-5.65,1.83-5.68,4.14-.03,2.31,2.46,4.21,5.56,4.23Z"/>
        <path class="cls-14" d="M385.24,116.82c2.64.02,4.81-1.56,4.83-3.52.03-1.97-2.09-3.58-4.73-3.6-2.64-.02-4.81,1.56-4.83,3.53-.03,1.97,2.09,3.58,4.73,3.6Z"/>
        <path class="cls-14" d="M399.63,116.28c2.16.02,3.93-1.27,3.95-2.88.02-1.61-1.71-2.92-3.86-2.94-2.16-.02-3.93,1.27-3.95,2.88-.02,1.61,1.71,2.92,3.86,2.94Z"/>
        <path class="cls-14" d="M414.01,115.74c1.67.01,3.04-.99,3.06-2.23.02-1.25-1.32-2.27-3-2.28-1.67-.01-3.04.99-3.06,2.23-.02,1.25,1.32,2.27,3,2.28Z"/>
        <path class="cls-14" d="M428.4,115.2c1.19.01,2.16-.7,2.18-1.59.01-.89-.94-1.61-2.13-1.62-1.19,0-2.16.7-2.17,1.59-.01.89.94,1.61,2.13,1.62Z"/>
        <path class="cls-14" d="M442.79,114.07c.26,0,.48-.16.48-.35,0-.2-.21-.36-.47-.36s-.48.16-.48.35.21.36.47.36Z"/>
        <path class="cls-14" d="M97.63,121.98c.2,0,.36-.12.36-.26s-.16-.27-.36-.27c-.2,0-.36.12-.36.26,0,.15.16.27.35.27Z"/>
        <path class="cls-14" d="M111.99,123.34c1.12,0,2.04-.66,2.05-1.5.01-.84-.89-1.52-2.01-1.53s-2.04.66-2.05,1.5c-.01.84.89,1.52,2.01,1.53Z"/>
        <path class="cls-14" d="M126.35,124.07c1.58.01,2.88-.94,2.9-2.11.02-1.18-1.26-2.15-2.84-2.16-1.59-.01-2.89.94-2.9,2.12-.02,1.18,1.26,2.15,2.84,2.16Z"/>
        <path class="cls-14" d="M140.72,124.84c2.07.02,3.76-1.22,3.79-2.76.02-1.54-1.64-2.8-3.71-2.82-2.07-.02-3.77,1.22-3.79,2.76-.02,1.54,1.64,2.8,3.71,2.82Z"/>
        <path class="cls-14" d="M155.08,125.61c2.55.02,4.65-1.51,4.67-3.41.03-1.9-2.02-3.46-4.58-3.48-2.55-.02-4.65,1.51-4.67,3.41-.03,1.9,2.02,3.46,4.58,3.48Z"/>
        <path class="cls-14" d="M169.45,126.31c2.99.02,5.45-1.77,5.48-3.99.03-2.23-2.37-4.06-5.36-4.08-2.99-.02-5.45,1.77-5.48,4-.03,2.23,2.37,4.06,5.36,4.08Z"/>
        <path class="cls-14" d="M183.82,126.96c3.39.03,6.17-2,6.2-4.52.04-2.53-2.68-4.59-6.07-4.62-3.39-.03-6.17,2-6.2,4.52-.04,2.52,2.68,4.59,6.07,4.62Z"/>
        <path class="cls-14" d="M198.19,127.52c3.72.03,6.77-2.19,6.81-4.96.04-2.77-2.95-5.04-6.67-5.07-3.72-.03-6.77,2.19-6.81,4.97-.04,2.77,2.94,5.04,6.67,5.07Z"/>
        <path class="cls-14" d="M212.56,127.93c3.94.03,7.17-2.32,7.21-5.26.04-2.94-3.12-5.34-7.06-5.37-3.94-.03-7.17,2.32-7.21,5.26-.04,2.93,3.12,5.34,7.06,5.37Z"/>
        <path class="cls-14" d="M226.93,128.28c4.12.03,7.49-2.43,7.53-5.49.04-3.07-3.26-5.58-7.38-5.61-4.12-.03-7.49,2.43-7.53,5.49-.04,3.07,3.26,5.58,7.38,5.61Z"/>
        <path class="cls-14" d="M241.3,128.51c4.21.03,7.65-2.48,7.69-5.61.04-3.13-3.33-5.7-7.53-5.73s-7.65,2.48-7.69,5.61c-.04,3.13,3.33,5.7,7.53,5.73Z"/>
        <path class="cls-14" d="M255.68,128.68c4.25.03,7.73-2.51,7.78-5.67.04-3.16-3.36-5.76-7.61-5.79-4.25-.03-7.73,2.51-7.77,5.67-.05,3.16,3.36,5.76,7.61,5.79Z"/>
        <path class="cls-14" d="M270.06,128.82c4.27.03,7.77-2.52,7.81-5.7.04-3.18-3.38-5.79-7.65-5.82-4.27-.03-7.77,2.52-7.81,5.7-.04,3.18,3.38,5.79,7.65,5.82Z"/>
        <path class="cls-14" d="M284.43,128.94c4.27.03,7.77-2.52,7.81-5.7.05-3.18-3.38-5.79-7.65-5.82-4.27-.03-7.77,2.52-7.81,5.7-.05,3.18,3.38,5.79,7.65,5.82Z"/>
        <path class="cls-14" d="M298.81,128.99c4.23.03,7.69-2.49,7.73-5.64.04-3.15-3.35-5.73-7.57-5.76s-7.69,2.49-7.73,5.64c-.04,3.15,3.35,5.73,7.57,5.76Z"/>
        <path class="cls-14" d="M313.18,128.95c4.12.03,7.49-2.43,7.53-5.49.04-3.07-3.26-5.58-7.38-5.61-4.12-.03-7.49,2.43-7.53,5.49-.04,3.07,3.26,5.58,7.38,5.61Z"/>
        <path class="cls-14" d="M327.56,128.86c3.96.03,7.21-2.34,7.25-5.29.04-2.95-3.14-5.37-7.1-5.4-3.96-.03-7.21,2.34-7.25,5.29-.04,2.95,3.14,5.37,7.1,5.4Z"/>
        <path class="cls-14" d="M341.94,128.67c3.74.03,6.81-2.21,6.85-4.99.04-2.79-2.96-5.07-6.71-5.1-3.74-.03-6.81,2.21-6.85,4.99-.04,2.79,2.96,5.07,6.71,5.1Z"/>
        <path class="cls-14" d="M356.32,128.34c3.41.03,6.21-2.01,6.25-4.55.04-2.54-2.7-4.62-6.12-4.65-3.41-.03-6.21,2.01-6.24,4.55-.04,2.54,2.7,4.62,6.11,4.65Z"/>
        <path class="cls-14" d="M370.71,127.95c3.04.02,5.53-1.79,5.56-4.05.03-2.26-2.4-4.12-5.44-4.14-3.04-.02-5.53,1.79-5.56,4.05-.03,2.26,2.4,4.12,5.44,4.14Z"/>
        <path class="cls-14" d="M385.09,127.47c2.6.02,4.72-1.53,4.75-3.47.03-1.93-2.06-3.52-4.65-3.54-2.6-.02-4.73,1.53-4.75,3.47-.03,1.93,2.06,3.52,4.66,3.54Z"/>
        <path class="cls-14" d="M399.48,126.93c2.11.02,3.84-1.25,3.87-2.82.02-1.57-1.67-2.86-3.79-2.88-2.11-.02-3.84,1.25-3.87,2.82-.02,1.57,1.67,2.86,3.79,2.88Z"/>
        <path class="cls-14" d="M413.86,126.39c1.63.01,2.96-.96,2.98-2.17.02-1.21-1.29-2.21-2.92-2.22s-2.96.96-2.98,2.17c-.02,1.21,1.29,2.21,2.92,2.22Z"/>
        <path class="cls-14" d="M428.25,125.85c1.15.01,2.08-.67,2.09-1.53.01-.85-.91-1.55-2.05-1.56-1.15,0-2.08.67-2.1,1.53s.91,1.55,2.05,1.56Z"/>
        <path class="cls-14" d="M442.64,124.71c.22,0,.4-.13.4-.29,0-.16-.17-.3-.39-.3s-.4.13-.4.29.17.3.39.3Z"/>
        <path class="cls-14" d="M97.48,132.48s.08-.03.08-.06c0-.03-.03-.06-.08-.06s-.08.03-.08.06.04.06.08.06Z"/>
        <path class="cls-14" d="M111.84,133.87c.99,0,1.8-.58,1.81-1.32,0-.74-.78-1.34-1.77-1.35-.99,0-1.8.58-1.81,1.32-.01.74.78,1.34,1.77,1.35Z"/>
        <path class="cls-14" d="M126.2,134.6c1.45.01,2.64-.86,2.66-1.94.01-1.08-1.15-1.97-2.6-1.98-1.45-.01-2.64.86-2.66,1.94-.01,1.08,1.15,1.97,2.6,1.98Z"/>
        <path class="cls-14" d="M140.57,135.37c1.94.01,3.52-1.14,3.54-2.59.02-1.44-1.53-2.62-3.47-2.64-1.94-.01-3.52,1.14-3.54,2.58-.02,1.44,1.53,2.63,3.47,2.64Z"/>
        <path class="cls-14" d="M154.94,136.1c2.4.02,4.37-1.41,4.39-3.2.03-1.79-1.9-3.25-4.3-3.27-2.4-.02-4.37,1.41-4.39,3.2-.03,1.79,1.9,3.25,4.3,3.27Z"/>
        <path class="cls-14" d="M169.3,136.81c2.84.02,5.17-1.67,5.2-3.79.03-2.12-2.25-3.85-5.09-3.87-2.84-.02-5.17,1.68-5.2,3.79-.03,2.11,2.25,3.85,5.09,3.87Z"/>
        <path class="cls-14" d="M183.67,137.46c3.24.03,5.89-1.91,5.92-4.32.03-2.41-2.56-4.38-5.8-4.41-3.24-.03-5.89,1.91-5.92,4.32-.03,2.41,2.56,4.39,5.8,4.41Z"/>
        <path class="cls-14" d="M198.04,138.01c3.57.03,6.49-2.1,6.53-4.76s-2.82-4.83-6.39-4.86c-3.57-.03-6.49,2.1-6.53,4.76-.04,2.66,2.82,4.83,6.39,4.86Z"/>
        <path class="cls-14" d="M212.41,138.45c3.81.03,6.93-2.25,6.97-5.08.04-2.84-3.01-5.16-6.82-5.19-3.81-.03-6.93,2.24-6.97,5.08-.04,2.84,3.01,5.16,6.82,5.19Z"/>
        <path class="cls-14" d="M226.78,138.83c4.01.03,7.29-2.36,7.33-5.35.04-2.98-3.17-5.43-7.18-5.46-4.01-.03-7.29,2.36-7.33,5.35-.04,2.99,3.17,5.43,7.18,5.46Z"/>
        <path class="cls-14" d="M241.15,139.09c4.12.03,7.49-2.43,7.53-5.49.04-3.07-3.26-5.58-7.38-5.61-4.12-.03-7.49,2.43-7.53,5.49-.04,3.07,3.26,5.58,7.38,5.61Z"/>
        <path class="cls-14" d="M255.53,139.3c4.18.03,7.61-2.47,7.65-5.58.04-3.12-3.31-5.67-7.49-5.7-4.18-.03-7.61,2.47-7.65,5.58-.04,3.12,3.31,5.67,7.49,5.7Z"/>
        <path class="cls-14" d="M269.9,139.44c4.21.03,7.65-2.48,7.69-5.61.04-3.13-3.33-5.7-7.53-5.73-4.21-.03-7.65,2.48-7.69,5.61-.04,3.13,3.33,5.7,7.53,5.73Z"/>
        <path class="cls-14" d="M284.28,139.52c4.18.03,7.61-2.47,7.65-5.58.04-3.12-3.31-5.67-7.49-5.7-4.18-.03-7.61,2.47-7.65,5.58s3.31,5.67,7.49,5.7Z"/>
        <path class="cls-14" d="M298.66,139.55c4.12.03,7.49-2.43,7.53-5.49.04-3.07-3.26-5.58-7.38-5.61-4.12-.03-7.49,2.43-7.53,5.49-.04,3.07,3.26,5.58,7.38,5.61Z"/>
        <path class="cls-14" d="M313.03,139.51c4.01.03,7.29-2.36,7.33-5.35.04-2.98-3.17-5.43-7.18-5.46-4.01-.03-7.29,2.36-7.33,5.35-.04,2.98,3.17,5.43,7.18,5.46Z"/>
        <path class="cls-14" d="M327.41,139.39c3.83.03,6.97-2.26,7.01-5.11.04-2.85-3.03-5.19-6.86-5.22-3.83-.03-6.97,2.26-7.01,5.11-.04,2.85,3.03,5.19,6.86,5.22Z"/>
        <path class="cls-14" d="M341.79,139.17c3.59.03,6.53-2.11,6.57-4.79.04-2.67-2.84-4.86-6.43-4.89-3.59-.03-6.53,2.12-6.57,4.79-.04,2.67,2.84,4.86,6.43,4.89Z"/>
        <path class="cls-14" d="M356.18,138.84c3.26.02,5.93-1.92,5.96-4.35.03-2.43-2.58-4.41-5.84-4.44-3.26-.02-5.93,1.92-5.96,4.35-.03,2.43,2.58,4.41,5.84,4.44Z"/>
        <path class="cls-14" d="M370.56,138.45c2.88.02,5.25-1.7,5.28-3.85.03-2.15-2.28-3.91-5.17-3.93-2.88-.02-5.25,1.7-5.28,3.85-.03,2.15,2.28,3.91,5.17,3.93Z"/>
        <path class="cls-14" d="M384.94,137.97c2.44.02,4.44-1.44,4.47-3.26.03-1.82-1.93-3.31-4.38-3.33-2.44-.02-4.44,1.44-4.47,3.26-.02,1.82,1.93,3.31,4.38,3.33Z"/>
        <path class="cls-14" d="M399.33,137.45c1.98.02,3.6-1.17,3.62-2.64.02-1.48-1.57-2.69-3.55-2.7-1.98-.02-3.61,1.17-3.63,2.64-.02,1.48,1.57,2.68,3.55,2.7Z"/>
        <path class="cls-14" d="M413.71,136.92c1.5.01,2.72-.88,2.74-2s-1.18-2.03-2.68-2.04c-1.5-.01-2.72.88-2.74,2-.01,1.11,1.19,2.03,2.68,2.04Z"/>
        <path class="cls-14" d="M428.1,136.37c1.01,0,1.84-.6,1.85-1.35.01-.75-.8-1.37-1.81-1.38-1.01,0-1.84.6-1.85,1.35,0,.75.8,1.37,1.82,1.38Z"/>
        <path class="cls-14" d="M442.49,135.18s.08-.03.08-.06-.04-.06-.08-.06c-.04,0-.08.03-.08.06s.03.06.08.06Z"/>
        <path class="cls-14" d="M111.69,144.04c.59,0,1.08-.35,1.09-.79,0-.44-.47-.81-1.06-.81-.6,0-1.08.35-1.09.79,0,.44.47.81,1.07.81Z"/>
        <path class="cls-14" d="M126.06,145.07c1.28.01,2.32-.75,2.34-1.7.01-.95-1.01-1.73-2.29-1.74-1.28-.01-2.32.75-2.34,1.7-.01.95,1.01,1.73,2.29,1.74Z"/>
        <path class="cls-14" d="M140.42,145.78c1.72.01,3.12-1.01,3.14-2.29s-1.36-2.33-3.08-2.34c-1.72-.01-3.12,1.01-3.14,2.29-.02,1.28,1.36,2.33,3.08,2.34Z"/>
        <path class="cls-14" d="M154.79,146.48c2.16.02,3.93-1.27,3.95-2.88.02-1.61-1.71-2.92-3.87-2.94-2.16-.02-3.93,1.27-3.95,2.88-.02,1.61,1.71,2.92,3.87,2.94Z"/>
        <path class="cls-14" d="M169.16,147.16c2.58.02,4.69-1.52,4.71-3.44.03-1.92-2.04-3.49-4.61-3.51-2.58-.02-4.69,1.52-4.71,3.44-.03,1.92,2.04,3.49,4.62,3.51Z"/>
        <path class="cls-14" d="M183.52,147.84c2.99.02,5.45-1.77,5.48-3.99.03-2.23-2.37-4.06-5.36-4.08-2.99-.02-5.45,1.77-5.48,3.99-.03,2.23,2.37,4.06,5.36,4.08Z"/>
        <path class="cls-14" d="M197.89,148.37c3.3.03,6.01-1.95,6.04-4.41s-2.61-4.47-5.92-4.5c-3.3-.03-6.01,1.95-6.04,4.41-.03,2.46,2.61,4.47,5.92,4.5Z"/>
        <path class="cls-14" d="M212.26,148.86c3.59.03,6.53-2.11,6.57-4.79.04-2.67-2.84-4.86-6.43-4.89-3.59-.03-6.53,2.11-6.57,4.79-.04,2.67,2.84,4.86,6.43,4.89Z"/>
        <path class="cls-14" d="M226.64,149.24c3.79.03,6.89-2.23,6.93-5.05.04-2.82-3-5.13-6.78-5.16-3.79-.03-6.89,2.23-6.93,5.05-.04,2.82,3,5.13,6.79,5.16Z"/>
        <path class="cls-14" d="M241.01,149.53c3.92.03,7.13-2.31,7.17-5.23.04-2.92-3.1-5.31-7.02-5.34-3.92-.03-7.13,2.31-7.17,5.23-.04,2.92,3.1,5.31,7.02,5.34Z"/>
        <path class="cls-14" d="M255.38,149.74c3.98.03,7.25-2.35,7.29-5.32.04-2.97-3.15-5.4-7.14-5.43s-7.25,2.35-7.29,5.32c-.04,2.97,3.15,5.4,7.14,5.43Z"/>
        <path class="cls-14" d="M269.76,149.88c4.01.03,7.29-2.36,7.33-5.35.04-2.98-3.17-5.43-7.18-5.46-4.01-.03-7.29,2.36-7.33,5.35-.04,2.98,3.17,5.43,7.18,5.46Z"/>
        <path class="cls-14" d="M284.13,149.96c3.98.03,7.25-2.35,7.29-5.32.04-2.97-3.15-5.4-7.14-5.43-3.98-.03-7.25,2.35-7.29,5.32-.04,2.97,3.15,5.4,7.14,5.43Z"/>
        <path class="cls-14" d="M298.51,149.99c3.92.03,7.13-2.31,7.17-5.23.04-2.92-3.1-5.31-7.02-5.34-3.92-.03-7.13,2.31-7.17,5.23-.04,2.92,3.1,5.31,7.02,5.34Z"/>
        <path class="cls-14" d="M312.89,149.92c3.79.03,6.89-2.23,6.93-5.05.04-2.82-3-5.13-6.78-5.16s-6.89,2.23-6.93,5.05c-.04,2.82,3,5.13,6.79,5.16Z"/>
        <path class="cls-14" d="M327.27,149.76c3.59.03,6.53-2.11,6.57-4.79.04-2.67-2.84-4.86-6.43-4.89-3.59-.03-6.53,2.12-6.57,4.79-.04,2.67,2.84,4.86,6.43,4.89Z"/>
        <path class="cls-14" d="M341.65,149.55c3.35.03,6.09-1.97,6.12-4.46.03-2.49-2.65-4.53-5.99-4.56-3.35-.03-6.09,1.97-6.12,4.46-.04,2.49,2.65,4.53,5.99,4.56Z"/>
        <path class="cls-14" d="M356.03,149.22c3.02.02,5.49-1.78,5.52-4.02.03-2.25-2.39-4.09-5.4-4.11-3.02-.02-5.49,1.78-5.52,4.02-.03,2.25,2.39,4.09,5.4,4.11Z"/>
        <path class="cls-14" d="M370.41,148.8c2.62.02,4.77-1.55,4.79-3.5.03-1.95-2.07-3.55-4.69-3.57-2.62-.02-4.77,1.54-4.79,3.5-.03,1.95,2.07,3.55,4.69,3.57Z"/>
        <path class="cls-14" d="M384.8,148.35c2.2.02,4.01-1.3,4.03-2.94.02-1.64-1.74-2.98-3.94-3-2.2-.02-4,1.3-4.03,2.94-.02,1.64,1.74,2.98,3.94,3Z"/>
        <path class="cls-14" d="M399.18,147.86c1.76.01,3.2-1.04,3.22-2.35.02-1.31-1.39-2.39-3.16-2.4s-3.2,1.04-3.22,2.35c-.02,1.31,1.39,2.39,3.16,2.4Z"/>
        <path class="cls-14" d="M413.56,147.38c1.32.01,2.4-.78,2.42-1.76.01-.98-1.05-1.79-2.37-1.8-1.32-.01-2.4.78-2.42,1.76-.01.98,1.05,1.79,2.37,1.8Z"/>
        <path class="cls-14" d="M427.95,146.55c.62,0,1.12-.36,1.13-.82,0-.46-.49-.83-1.1-.84-.62,0-1.12.36-1.13.82,0,.46.49.83,1.1.84Z"/>
        <path class="cls-14" d="M111.55,154.09c.11,0,.2-.07.2-.15,0-.08-.09-.15-.2-.15-.11,0-.2.07-.2.15,0,.08.09.15.2.15Z"/>
        <path class="cls-14" d="M125.91,155.36c.97,0,1.76-.57,1.77-1.29,0-.72-.77-1.31-1.74-1.32-.97,0-1.76.57-1.77,1.29,0,.72.77,1.31,1.74,1.32Z"/>
        <path class="cls-14" d="M140.28,156.1c1.43.01,2.6-.84,2.62-1.91.01-1.07-1.13-1.94-2.56-1.95-1.43-.01-2.6.84-2.62,1.91-.01,1.07,1.13,1.94,2.56,1.95Z"/>
        <path class="cls-14" d="M154.64,156.77c1.85.01,3.37-1.09,3.38-2.47.02-1.38-1.46-2.51-3.31-2.52-1.85-.01-3.36,1.09-3.38,2.47s1.46,2.51,3.31,2.52Z"/>
        <path class="cls-14" d="M169.01,157.42c2.24.02,4.09-1.32,4.11-3,.02-1.67-1.78-3.04-4.02-3.06-2.25-.02-4.09,1.32-4.11,3-.02,1.67,1.78,3.04,4.02,3.06Z"/>
        <path class="cls-14" d="M183.38,158.04c2.62.02,4.77-1.55,4.79-3.5.03-1.95-2.07-3.55-4.69-3.57-2.62-.02-4.77,1.54-4.79,3.5-.03,1.95,2.07,3.55,4.69,3.57Z"/>
        <path class="cls-14" d="M197.75,158.6c2.95.02,5.37-1.74,5.4-3.94.03-2.2-2.34-4-5.29-4.02s-5.37,1.74-5.4,3.94c-.03,2.2,2.34,4,5.29,4.02Z"/>
        <path class="cls-14" d="M212.12,159.07c3.21.02,5.85-1.9,5.88-4.29.03-2.39-2.54-4.35-5.76-4.38-3.21-.02-5.85,1.9-5.88,4.29-.03,2.39,2.55,4.35,5.76,4.38Z"/>
        <path class="cls-14" d="M226.49,159.47c3.43.03,6.25-2.02,6.28-4.58s-2.72-4.65-6.15-4.68c-3.44-.03-6.25,2.03-6.28,4.58-.04,2.56,2.72,4.65,6.15,4.68Z"/>
        <path class="cls-14" d="M240.86,159.77c3.57.03,6.49-2.1,6.53-4.76.04-2.66-2.82-4.83-6.39-4.86-3.57-.03-6.49,2.1-6.53,4.76-.04,2.66,2.82,4.83,6.39,4.86Z"/>
        <path class="cls-14" d="M255.24,160c3.66.03,6.65-2.15,6.69-4.88.04-2.72-2.89-4.95-6.55-4.98-3.66-.03-6.65,2.16-6.69,4.88-.04,2.72,2.89,4.95,6.55,4.98Z"/>
        <path class="cls-14" d="M269.61,160.17c3.7.03,6.73-2.18,6.77-4.94.04-2.75-2.93-5.01-6.63-5.04-3.7-.03-6.73,2.18-6.77,4.93-.04,2.76,2.93,5.01,6.63,5.04Z"/>
        <path class="cls-14" d="M283.99,160.25c3.68.03,6.69-2.17,6.73-4.91.04-2.74-2.91-4.98-6.59-5.01s-6.69,2.17-6.73,4.91c-.04,2.74,2.91,4.98,6.59,5.01Z"/>
        <path class="cls-14" d="M298.36,160.25c3.59.03,6.53-2.12,6.57-4.79.04-2.67-2.84-4.86-6.43-4.89-3.59-.03-6.53,2.11-6.57,4.79-.04,2.67,2.84,4.86,6.43,4.89Z"/>
        <path class="cls-14" d="M312.74,160.18c3.46.03,6.29-2.04,6.33-4.61.04-2.57-2.74-4.68-6.19-4.71-3.46-.03-6.29,2.04-6.32,4.61-.04,2.57,2.74,4.68,6.19,4.71Z"/>
        <path class="cls-14" d="M327.12,160c3.24.03,5.89-1.91,5.92-4.32.03-2.41-2.56-4.38-5.8-4.41-3.24-.03-5.89,1.91-5.92,4.32-.03,2.41,2.56,4.38,5.8,4.41Z"/>
        <path class="cls-14" d="M341.5,159.75c2.97.02,5.41-1.75,5.44-3.97.03-2.21-2.35-4.03-5.32-4.05-2.97-.02-5.41,1.75-5.44,3.97-.03,2.21,2.35,4.03,5.33,4.05Z"/>
        <path class="cls-14" d="M355.88,159.42c2.64.02,4.81-1.56,4.83-3.52.03-1.97-2.09-3.58-4.73-3.6-2.64-.02-4.81,1.56-4.83,3.52-.03,1.97,2.09,3.58,4.73,3.6Z"/>
        <path class="cls-14" d="M370.27,159.03c2.27.02,4.13-1.34,4.15-3.03.02-1.69-1.79-3.07-4.06-3.09-2.27-.02-4.13,1.34-4.15,3.03-.02,1.69,1.79,3.07,4.06,3.09Z"/>
        <path class="cls-14" d="M384.65,158.61c1.87.01,3.4-1.1,3.42-2.5.02-1.39-1.48-2.54-3.35-2.55-1.87-.01-3.41,1.1-3.43,2.5-.02,1.39,1.48,2.54,3.35,2.55Z"/>
        <path class="cls-14" d="M399.03,158.16c1.45.01,2.64-.86,2.66-1.94.02-1.08-1.15-1.97-2.6-1.98-1.45-.01-2.64.86-2.66,1.94-.01,1.08,1.15,1.97,2.6,1.98Z"/>
        <path class="cls-14" d="M413.42,157.67c1.01,0,1.84-.6,1.85-1.35.01-.75-.8-1.37-1.81-1.38-1.01,0-1.84.6-1.85,1.35-.01.75.8,1.37,1.82,1.38Z"/>
        <path class="cls-14" d="M427.81,156.6c.13,0,.24-.08.24-.17s-.1-.18-.24-.18c-.13,0-.24.08-.24.18,0,.1.11.18.24.18Z"/>
        <path class="cls-14" d="M125.77,165.15c.29,0,.52-.17.52-.38,0-.21-.23-.39-.51-.39s-.52.17-.52.38.23.39.51.39Z"/>
        <path class="cls-14" d="M140.13,166.33c1.08,0,1.96-.64,1.97-1.44.01-.8-.85-1.46-1.93-1.47-1.08,0-1.96.64-1.97,1.44s.85,1.46,1.93,1.47Z"/>
        <path class="cls-14" d="M154.5,166.95c1.45.01,2.64-.86,2.66-1.94.01-1.08-1.15-1.97-2.6-1.98-1.45-.01-2.64.86-2.66,1.94-.01,1.08,1.15,1.97,2.6,1.98Z"/>
        <path class="cls-14" d="M168.87,167.56c1.83.01,3.32-1.08,3.34-2.44.02-1.36-1.45-2.48-3.28-2.49-1.83-.01-3.32,1.08-3.34,2.44-.02,1.36,1.45,2.47,3.27,2.49Z"/>
        <path class="cls-14" d="M183.24,168.15c2.18.02,3.97-1.29,3.99-2.91.02-1.62-1.72-2.95-3.9-2.97-2.18-.02-3.97,1.28-3.99,2.91-.02,1.62,1.72,2.95,3.9,2.97Z"/>
        <path class="cls-14" d="M197.61,168.68c2.49.02,4.53-1.47,4.55-3.32.03-1.85-1.97-3.37-4.46-3.39-2.49-.02-4.53,1.47-4.55,3.32-.03,1.85,1.97,3.37,4.46,3.39Z"/>
        <path class="cls-14" d="M211.98,169.15c2.75.02,5.01-1.62,5.04-3.67.03-2.05-2.18-3.73-4.93-3.75-2.75-.02-5.01,1.62-5.03,3.67-.03,2.05,2.18,3.73,4.93,3.75Z"/>
        <path class="cls-14" d="M226.35,169.56c2.97.02,5.41-1.75,5.44-3.97.03-2.21-2.35-4.03-5.32-4.05-2.97-.02-5.41,1.75-5.44,3.97-.03,2.21,2.35,4.03,5.33,4.05Z"/>
        <path class="cls-14" d="M240.72,169.88c3.13.02,5.69-1.84,5.72-4.17.03-2.33-2.47-4.24-5.6-4.26-3.13-.02-5.69,1.84-5.72,4.17-.03,2.33,2.47,4.24,5.6,4.26Z"/>
        <path class="cls-14" d="M255.09,170.11c3.21.03,5.85-1.9,5.88-4.29.03-2.39-2.54-4.35-5.76-4.38-3.21-.03-5.85,1.9-5.88,4.29-.03,2.39,2.54,4.36,5.76,4.38Z"/>
        <path class="cls-14" d="M269.47,170.28c3.26.03,5.93-1.92,5.96-4.35.03-2.43-2.58-4.41-5.84-4.44-3.26-.02-5.93,1.92-5.96,4.35-.04,2.43,2.58,4.41,5.84,4.44Z"/>
        <path class="cls-14" d="M283.85,170.34c3.21.02,5.85-1.9,5.88-4.29.03-2.39-2.54-4.36-5.76-4.38-3.21-.02-5.85,1.9-5.88,4.29-.03,2.39,2.54,4.35,5.76,4.38Z"/>
        <path class="cls-14" d="M298.22,170.33c3.13.02,5.69-1.84,5.72-4.17.03-2.33-2.48-4.24-5.6-4.26-3.13-.02-5.69,1.84-5.72,4.17-.03,2.33,2.47,4.24,5.6,4.26Z"/>
        <path class="cls-14" d="M312.6,170.26c2.99.02,5.45-1.77,5.48-3.99.03-2.23-2.37-4.06-5.37-4.08-2.99-.02-5.45,1.76-5.48,3.99-.03,2.23,2.37,4.06,5.36,4.08Z"/>
        <path class="cls-14" d="M326.98,170.08c2.77.02,5.05-1.64,5.07-3.7.03-2.07-2.2-3.76-4.97-3.78-2.77-.02-5.05,1.64-5.08,3.7-.03,2.07,2.2,3.76,4.97,3.78Z"/>
        <path class="cls-14" d="M341.36,169.84c2.51.02,4.57-1.48,4.59-3.35.03-1.87-1.99-3.4-4.5-3.42-2.51-.02-4.57,1.48-4.59,3.35-.03,1.87,1.99,3.4,4.5,3.42Z"/>
        <path class="cls-14" d="M355.74,169.53c2.2.02,4.01-1.3,4.03-2.94.02-1.64-1.74-2.98-3.94-3-2.2-.02-4,1.3-4.03,2.94-.02,1.64,1.74,2.98,3.94,3Z"/>
        <path class="cls-14" d="M370.12,169.2c1.87.01,3.4-1.1,3.42-2.5.02-1.39-1.48-2.54-3.35-2.55-1.87-.02-3.4,1.1-3.42,2.5-.02,1.39,1.48,2.54,3.35,2.55Z"/>
        <path class="cls-14" d="M384.51,168.81c1.5.01,2.72-.88,2.74-2,.01-1.11-1.19-2.03-2.68-2.04-1.5-.01-2.72.88-2.74,2-.02,1.11,1.19,2.03,2.68,2.04Z"/>
        <path class="cls-14" d="M398.89,168.39c1.1,0,2-.65,2.01-1.47s-.87-1.49-1.97-1.5c-1.1,0-2,.65-2.01,1.47-.01.82.87,1.49,1.97,1.5Z"/>
        <path class="cls-14" d="M413.28,167.43c.31,0,.56-.18.56-.41,0-.23-.24-.42-.55-.42-.31,0-.56.18-.56.41,0,.23.24.42.55.42Z"/>
        <path class="cls-14" d="M139.99,175.97c.29,0,.52-.17.52-.38,0-.21-.23-.39-.51-.39-.29,0-.52.17-.52.38,0,.21.23.39.51.39Z"/>
        <path class="cls-14" d="M154.36,177.03c.99,0,1.8-.59,1.81-1.32.01-.74-.78-1.34-1.77-1.35-.99,0-1.8.58-1.81,1.32,0,.74.78,1.34,1.77,1.35Z"/>
        <path class="cls-14" d="M168.73,177.64c1.37.01,2.48-.8,2.5-1.82.01-1.02-1.08-1.85-2.45-1.86-1.37-.01-2.48.81-2.5,1.82-.01,1.02,1.08,1.85,2.45,1.86Z"/>
        <path class="cls-14" d="M183.1,178.17c1.67.01,3.04-.99,3.06-2.23.02-1.25-1.32-2.27-3-2.28-1.67-.01-3.04.99-3.06,2.23-.02,1.25,1.32,2.27,3,2.28Z"/>
        <path class="cls-14" d="M197.47,178.67c1.96.02,3.56-1.15,3.59-2.61.02-1.46-1.55-2.65-3.51-2.67-1.96-.01-3.57,1.16-3.59,2.62-.02,1.46,1.55,2.65,3.51,2.67Z"/>
        <path class="cls-14" d="M211.84,179.11c2.2.02,4-1.3,4.03-2.94s-1.74-2.98-3.94-3c-2.2-.02-4.01,1.3-4.03,2.94-.02,1.64,1.74,2.98,3.94,3Z"/>
        <path class="cls-14" d="M226.21,179.49c2.4.02,4.36-1.41,4.39-3.2.03-1.79-1.9-3.25-4.3-3.27-2.4-.02-4.37,1.41-4.39,3.2s1.9,3.25,4.3,3.27Z"/>
        <path class="cls-14" d="M240.58,179.81c2.55.02,4.65-1.5,4.67-3.41s-2.02-3.46-4.58-3.48c-2.55-.02-4.65,1.51-4.67,3.41-.03,1.9,2.02,3.46,4.58,3.48Z"/>
        <path class="cls-14" d="M254.95,180.04c2.64.02,4.81-1.56,4.83-3.53.03-1.97-2.09-3.58-4.73-3.6-2.64-.02-4.81,1.56-4.83,3.52-.03,1.97,2.09,3.58,4.73,3.6Z"/>
        <path class="cls-14" d="M269.33,180.19c2.66.02,4.85-1.57,4.87-3.55.03-1.98-2.11-3.61-4.77-3.63-2.66-.02-4.85,1.57-4.87,3.55-.03,1.98,2.11,3.61,4.77,3.63Z"/>
        <path class="cls-14" d="M283.71,180.27c2.64.02,4.81-1.56,4.83-3.52.03-1.97-2.09-3.58-4.73-3.6-2.64-.02-4.81,1.56-4.83,3.53-.03,1.97,2.09,3.58,4.73,3.6Z"/>
        <path class="cls-14" d="M298.08,180.26c2.55.02,4.65-1.51,4.67-3.41.03-1.9-2.02-3.46-4.58-3.48-2.55-.02-4.65,1.5-4.67,3.41-.03,1.9,2.02,3.46,4.58,3.48Z"/>
        <path class="cls-14" d="M312.46,180.2c2.42.02,4.4-1.43,4.43-3.23.02-1.8-1.92-3.28-4.34-3.3-2.42-.02-4.4,1.43-4.43,3.23-.03,1.8,1.92,3.28,4.34,3.3Z"/>
        <path class="cls-14" d="M326.84,180.04c2.22.02,4.05-1.31,4.07-2.97.02-1.66-1.76-3.01-3.98-3.03-2.22-.02-4.05,1.31-4.07,2.97-.02,1.66,1.76,3.01,3.98,3.03Z"/>
        <path class="cls-14" d="M341.22,179.83c1.98.02,3.6-1.17,3.63-2.64.02-1.47-1.57-2.68-3.55-2.7-1.98-.02-3.6,1.17-3.62,2.64-.02,1.47,1.57,2.68,3.55,2.7Z"/>
        <path class="cls-14" d="M355.6,179.56c1.69.01,3.08-1,3.1-2.26.02-1.26-1.34-2.3-3.04-2.31-1.69-.01-3.08,1-3.1,2.26-.02,1.26,1.34,2.3,3.04,2.31Z"/>
        <path class="cls-14" d="M369.98,179.25c1.39.01,2.52-.82,2.54-1.85.01-1.03-1.1-1.88-2.49-1.89-1.39-.01-2.52.82-2.54,1.85-.01,1.03,1.1,1.88,2.49,1.89Z"/>
        <path class="cls-14" d="M384.36,178.89c1.04,0,1.88-.61,1.89-1.38.01-.77-.82-1.4-1.85-1.41-1.03,0-1.88.61-1.89,1.38-.01.77.82,1.4,1.85,1.41Z"/>
        <path class="cls-14" d="M398.75,178.02c.31,0,.56-.18.56-.41,0-.23-.24-.42-.55-.42-.31,0-.56.18-.56.41,0,.23.24.42.55.42Z"/>
        <path class="cls-14" d="M154.22,186.58c.13,0,.24-.08.24-.18,0-.1-.1-.18-.24-.18-.13,0-.24.08-.24.18,0,.1.11.18.24.18Z"/>
        <path class="cls-14" d="M168.59,187.43c.68,0,1.24-.4,1.25-.91,0-.51-.54-.93-1.22-.93-.68,0-1.24.4-1.25.91,0,.51.54.93,1.22.93Z"/>
        <path class="cls-14" d="M182.95,188.17c1.15,0,2.08-.68,2.09-1.53.01-.85-.91-1.55-2.05-1.56-1.15,0-2.08.68-2.09,1.53-.01.85.91,1.55,2.05,1.56Z"/>
        <path class="cls-14" d="M197.33,188.64c1.41.01,2.56-.83,2.58-1.88.01-1.05-1.12-1.91-2.52-1.92-1.41-.01-2.56.83-2.58,1.88s1.12,1.91,2.52,1.92Z"/>
        <path class="cls-14" d="M211.7,189.02c1.61.01,2.92-.95,2.94-2.15.02-1.2-1.27-2.18-2.88-2.19-1.61-.01-2.92.95-2.94,2.14-.02,1.2,1.27,2.18,2.88,2.19Z"/>
        <path class="cls-14" d="M226.07,189.37c1.78.01,3.24-1.05,3.26-2.38.02-1.33-1.41-2.42-3.19-2.43-1.78-.01-3.24,1.05-3.26,2.38-.02,1.33,1.41,2.42,3.2,2.43Z"/>
        <path class="cls-14" d="M240.44,189.66c1.92.02,3.49-1.13,3.51-2.56.02-1.43-1.52-2.59-3.43-2.61-1.91-.01-3.48,1.13-3.51,2.56-.02,1.43,1.52,2.59,3.43,2.61Z"/>
        <path class="cls-14" d="M254.82,189.89c2,.02,3.64-1.18,3.67-2.67.02-1.49-1.59-2.71-3.59-2.73-2-.02-3.65,1.18-3.67,2.67-.02,1.49,1.59,2.71,3.59,2.73Z"/>
        <path class="cls-14" d="M269.19,190.06c2.05.02,3.72-1.21,3.74-2.73.02-1.53-1.62-2.77-3.67-2.79-2.05-.02-3.72,1.21-3.75,2.73-.02,1.53,1.62,2.77,3.67,2.79Z"/>
        <path class="cls-14" d="M283.57,190.11c2,.01,3.65-1.18,3.67-2.67s-1.59-2.71-3.59-2.73c-2-.01-3.64,1.18-3.67,2.67-.02,1.49,1.59,2.71,3.59,2.73Z"/>
        <path class="cls-14" d="M297.94,190.14c1.94.02,3.52-1.14,3.54-2.58.02-1.44-1.53-2.63-3.47-2.64-1.94-.02-3.52,1.14-3.55,2.58-.02,1.44,1.53,2.63,3.47,2.64Z"/>
        <path class="cls-14" d="M312.32,190.07c1.81.01,3.28-1.06,3.3-2.41.02-1.34-1.43-2.45-3.23-2.46-1.81-.01-3.29,1.06-3.3,2.41-.02,1.34,1.43,2.45,3.23,2.46Z"/>
        <path class="cls-14" d="M326.7,189.95c1.63.01,2.96-.96,2.98-2.17.02-1.21-1.29-2.21-2.92-2.22-1.63-.01-2.96.96-2.98,2.17-.02,1.21,1.29,2.21,2.92,2.22Z"/>
        <path class="cls-14" d="M341.08,189.79c1.43.01,2.6-.84,2.62-1.91.01-1.07-1.13-1.94-2.56-1.95-1.43-.01-2.6.84-2.62,1.91-.01,1.07,1.13,1.94,2.56,1.95Z"/>
        <path class="cls-14" d="M355.46,189.55c1.17,0,2.12-.69,2.14-1.56.01-.87-.92-1.58-2.09-1.59-1.17,0-2.12.69-2.13,1.56-.01.87.92,1.58,2.09,1.59Z"/>
        <path class="cls-14" d="M369.84,189.04c.7,0,1.28-.41,1.29-.94s-.56-.95-1.26-.96c-.7,0-1.28.42-1.29.94,0,.52.56.95,1.26.96Z"/>
        <path class="cls-14" d="M384.23,188.38c.13,0,.24-.08.24-.18,0-.1-.1-.18-.24-.18-.13,0-.24.08-.24.18,0,.1.1.18.24.18Z"/>
        <path class="cls-14" d="M182.82,197.6c.2,0,.36-.12.36-.26,0-.15-.16-.27-.35-.27-.2,0-.36.12-.36.26s.16.27.36.27Z"/>
        <path class="cls-14" d="M197.19,198.24c.59,0,1.08-.35,1.09-.79,0-.44-.47-.81-1.07-.81-.59,0-1.08.35-1.09.79,0,.44.47.81,1.07.81Z"/>
        <path class="cls-14" d="M211.56,198.83c.95,0,1.72-.56,1.73-1.26,0-.71-.75-1.28-1.7-1.29-.95,0-1.72.56-1.73,1.26-.01.71.75,1.28,1.7,1.29Z"/>
        <path class="cls-14" d="M225.93,199.27c1.19,0,2.16-.7,2.18-1.59.01-.89-.94-1.61-2.13-1.62-1.19-.01-2.16.7-2.18,1.59-.01.89.94,1.61,2.13,1.62Z"/>
        <path class="cls-14" d="M240.3,199.53c1.3.01,2.36-.77,2.38-1.73s-1.03-1.76-2.33-1.77c-1.3-.01-2.36.77-2.38,1.73-.01.97,1.03,1.76,2.33,1.77Z"/>
        <path class="cls-14" d="M254.68,199.73c1.37.01,2.48-.81,2.5-1.82.01-1.02-1.08-1.85-2.45-1.86s-2.48.8-2.5,1.82c-.01,1.02,1.08,1.85,2.44,1.86Z"/>
        <path class="cls-14" d="M269.05,199.88c1.39.01,2.52-.82,2.54-1.85.01-1.03-1.1-1.88-2.49-1.89-1.39-.01-2.52.82-2.54,1.85-.01,1.03,1.1,1.88,2.48,1.89Z"/>
        <path class="cls-14" d="M283.43,199.96c1.37.01,2.48-.8,2.5-1.82.01-1.02-1.08-1.85-2.45-1.86-1.37-.01-2.48.8-2.5,1.82s1.08,1.85,2.45,1.86Z"/>
        <path class="cls-14" d="M297.8,199.98c1.3.01,2.36-.77,2.38-1.73.01-.97-1.03-1.76-2.33-1.77s-2.36.77-2.38,1.73c-.01.97,1.03,1.76,2.33,1.77Z"/>
        <path class="cls-14" d="M312.18,199.95c1.19,0,2.16-.7,2.17-1.59.01-.88-.94-1.61-2.13-1.62-1.19,0-2.16.7-2.18,1.59-.01.88.94,1.61,2.13,1.62Z"/>
        <path class="cls-14" d="M326.56,199.76c.97,0,1.76-.57,1.77-1.29.01-.72-.76-1.31-1.73-1.32-.97,0-1.76.57-1.77,1.29,0,.72.77,1.31,1.74,1.32Z"/>
        <path class="cls-14" d="M340.94,199.37c.6,0,1.08-.35,1.09-.79,0-.44-.47-.81-1.07-.81-.6,0-1.08.35-1.09.79,0,.44.47.81,1.06.81Z"/>
        <path class="cls-14" d="M355.33,198.95c.2,0,.36-.12.36-.26,0-.15-.16-.27-.36-.27-.2,0-.36.12-.36.26,0,.15.16.27.35.27Z"/>
        <path class="cls-14" d="M211.42,208.29s.04-.01.04-.03c0-.02-.02-.03-.04-.03s-.04.01-.04.03.02.03.04.03Z"/>
        <path class="cls-14" d="M225.8,208.55c.13,0,.24-.08.24-.18,0-.1-.1-.18-.24-.18s-.24.08-.24.18c0,.1.1.18.24.18Z"/>
        <path class="cls-14" d="M240.17,208.87c.29,0,.52-.17.52-.38,0-.21-.23-.39-.51-.39-.29,0-.52.17-.52.38,0,.21.23.39.51.39Z"/>
        <path class="cls-14" d="M254.54,209.07c.35,0,.64-.21.64-.47,0-.26-.28-.48-.63-.48-.35,0-.64.21-.64.47,0,.26.28.48.63.48Z"/>
        <path class="cls-14" d="M268.92,209.22c.38,0,.68-.22.69-.5,0-.28-.3-.51-.67-.51-.37,0-.68.22-.69.5,0,.28.3.51.67.51Z"/>
        <path class="cls-14" d="M283.29,209.3c.35,0,.64-.21.64-.47,0-.26-.28-.48-.63-.48s-.64.21-.64.47c0,.26.28.48.63.48Z"/>
        <path class="cls-14" d="M297.67,209.32c.29,0,.52-.17.52-.38,0-.21-.23-.39-.51-.39s-.52.17-.52.38c0,.21.23.39.51.39Z"/>
        <path class="cls-14" d="M312.05,209.23c.13,0,.24-.08.24-.18,0-.1-.1-.18-.24-.18-.13,0-.24.08-.24.18,0,.1.1.18.24.18Z"/>
        <path class="cls-14" d="M326.43,209.19s.04-.01.04-.03c0-.02-.02-.03-.04-.03-.02,0-.04.01-.04.03,0,.02.02.03.04.03Z"/>
      </g>
      <polygon class="cls-12" points="443.85 137.72 386.65 126.17 402.99 127.46 439.42 129.43 443.85 137.72"/>
      <polygon class="cls-12" points="139.73 48.44 178.4 75.95 168.96 72.3 126.74 53.44 139.73 48.44"/>
      <path d="M286.05,8.29c0,49.51-63.05,62.8-119.7,25.23,56.65,37.56,23.11,71.22-63.69,63.89,86.8,7.32,98.45,45.59,22.12,72.65,76.33-27.06,127.73-2.08,97.58,47.42,30.14-49.51,97.24-49.51,127.38,0-30.14-49.51,21.25-74.48,97.58-47.42-76.33-27.06-64.68-65.33,22.12-72.65-86.8,7.32-120.34-26.33-63.69-63.89-56.65,37.56-119.7,24.27-119.7-25.23Z"/>
      <path class="cls-15" d="M335.27,192.44c-14.02-11.37-31.34-17.73-49.62-17.73s-35.61,6.36-49.62,17.73c.61-8.29-1.54-15.73-6.45-21.89-8.89-11.11-25.94-17.23-48.04-17.23-5.75,0-11.8.42-18.07,1.24,12.81-9.21,18.74-19.12,16.77-28.83-2.17-10.73-13.37-19.5-31.99-25.6,25.88-3,43.36-11.33,49.15-23.85,3.58-7.74,2.29-16.25-3.59-25.02,12.6,4.47,25.31,6.82,37.41,6.82h.01c25.72,0,45.38-10.6,54.41-27.9,9.03,17.31,28.69,27.9,54.4,27.9,12.11,0,24.82-2.35,37.42-6.82-5.88,8.77-7.18,17.28-3.58,25.02,5.79,12.52,23.27,20.84,49.15,23.84-18.61,6.1-29.81,14.87-31.99,25.6-1.96,9.72,3.97,19.62,16.77,28.83-6.27-.82-12.32-1.24-18.06-1.24-22.09,0-39.15,6.12-48.03,17.23-4.92,6.16-7.06,13.6-6.45,21.89Z"/>
      <polygon class="cls-12" points="367.35 19.08 338.94 76.95 382.11 17.81 367.35 19.08"/>
      <polygon class="cls-12" points="125.73 121.13 201.62 109.9 127.73 114.17 125.73 121.13"/>
    </g>
    <g>
      <g>
        <rect class="cls-12" x="238.03" y="35.31" width="5.99" height="9.95" transform="translate(1.26 87.48) rotate(-20.62)"/>
        <path class="cls-12" d="M240.94,36.53l-2.33.88c-5.56,2.09-11.79-.73-13.88-6.29l-4.02-10.69,2.69-1.01,4.02,10.69c1.53,4.08,6.1,6.15,10.18,4.61l2.33-.88c4.08-1.53,6.15-6.1,4.61-10.18l-4.02-10.69,2.69-1.01,4.02,10.69c2.09,5.56-.73,11.79-6.29,13.88Z"/>
        <rect class="cls-12" x="235.05" y="43.37" width="15.26" height="2.65" transform="translate(-.19 88.34) rotate(-20.62)"/>
      </g>
      <path class="cls-12" d="M227.26.41l-2.18.82c-3.33,1.25-5.03,5-3.77,8.33l3.29,8.73.45,1.19,3.29,8.73c1.25,3.33,5,5.03,8.33,3.77l2.18-.82c3.33-1.25,5.03-5,3.77-8.33l-3.29-8.73-.45-1.19-3.29-8.73c-1.25-3.33-5-5.03-8.33-3.77ZM225.78,17.85l-3.29-8.73c-1.01-2.68.35-5.68,3.03-6.69l2.18-.82c2.68-1.01,5.68.35,6.69,3.03l3.29,8.73-11.91,4.48Z"/>
      <g>
        <path class="cls-12" d="M225.58,6.14c.19.49-.06,1.04-.56,1.23s-1.04-.06-1.23-.56.06-1.04.56-1.23,1.04.06,1.23.56Z"/>
        <path class="cls-12" d="M228.74,4.95c.19.49-.06,1.04-.56,1.23s-1.04-.06-1.23-.56.06-1.04.56-1.23,1.04.06,1.23.56Z"/>
        <path class="cls-12" d="M231.91,3.76c.19.49-.06,1.04-.56,1.23s-1.04-.06-1.23-.56.06-1.04.56-1.23,1.04.06,1.23.56Z"/>
        <path class="cls-12" d="M227.05,10.06c.19.49-.06,1.04-.56,1.23s-1.04-.06-1.23-.56.06-1.04.56-1.23,1.04.06,1.23.56Z"/>
        <path class="cls-12" d="M230.22,8.87c.19.49-.06,1.04-.56,1.23s-1.04-.06-1.23-.56.06-1.04.56-1.23,1.04.06,1.23.56Z"/>
        <path class="cls-12" d="M233.38,7.68c.19.49-.06,1.04-.56,1.23s-1.04-.06-1.23-.56.06-1.04.56-1.23,1.04.06,1.23.56Z"/>
        <path class="cls-12" d="M228.53,13.97c.19.49-.06,1.04-.56,1.23s-1.04-.06-1.23-.56.06-1.04.56-1.23,1.04.06,1.23.56Z"/>
        <path class="cls-12" d="M231.69,12.78c.19.49-.06,1.04-.56,1.23s-1.04-.06-1.23-.56.06-1.04.56-1.23,1.04.06,1.23.56Z"/>
        <path class="cls-12" d="M234.85,11.59c.19.49-.06,1.04-.56,1.23s-1.04-.06-1.23-.56.06-1.04.56-1.23,1.04.06,1.23.56Z"/>
      </g>
    </g>
    <path class="cls-13" d="M323.08,25.79c-.38,1.17.79,2.41,1.67,3.29s2.12,2.05,3.29,1.67c1.73-.56,3.2-2.22,3.75-3.95.37-1.15-.42-2.35-1.42-3.34s-2.19-1.79-3.34-1.42c-1.73.55-3.39,2.02-3.95,3.75h0ZM332.48,25.87c4.24.47,9.23,2.23,11.12,3.42.42.26.66,1.25.42,1.71-1.76,3.24-7.66,8.59-11.87,10.35-.56.23-1.56.14-1.92-.31-1.73-2.14-2.97-6.02-3.28-9.68.42.11.85.13,1.29-.02,1.93-.62,3.53-2.44,4.14-4.35.12-.38.15-.76.1-1.12h0ZM327.97,21.36c-.47-4.24-2.23-9.23-3.42-11.12-.26-.42-1.26-.67-1.71-.42-3.24,1.76-8.59,7.66-10.35,11.87-.23.56-.14,1.56.31,1.92,2.14,1.73,6.02,2.97,9.68,3.28-.11-.42-.13-.85.02-1.29.62-1.93,2.44-3.53,4.35-4.14.38-.12.76-.15,1.12-.1h0Z"/>
  </g>
  <g id="_文字_x2460_" data-name="文字_x2460_">
    <path d="M11.73,172.23V47.23h59.86c10.23,0,18.27,2.9,24.13,8.7,5.85,5.8,8.78,13.59,8.78,23.36,0,8.87-2.13,15.46-6.4,19.78-4.26,4.32-9.75,6.71-16.46,7.16v1.02c4.21,0,8.44,1.02,12.7,3.07,4.26,2.05,7.82,5.26,10.66,9.63,2.84,4.38,4.26,9.92,4.26,16.63s-1.42,12.45-4.26,17.91c-2.84,5.46-6.71,9.78-11.6,12.96-4.89,3.18-10.35,4.78-16.37,4.78H11.73ZM65.62,98.9c3.86,0,6.88-1.08,9.04-3.24s3.24-5.17,3.24-9.04v-5.29c0-3.75-1.08-6.74-3.24-8.95-2.16-2.22-5.17-3.32-9.04-3.32h-27.97v29.84h27.97ZM69.71,150.4c3.98,0,7.08-1.11,9.29-3.33s3.33-5.26,3.33-9.12v-5.8c0-3.86-1.11-6.85-3.33-8.95-2.22-2.1-5.32-3.15-9.29-3.15h-32.06v30.35h32.06Z"/>
    <path d="M121.91,171.9c-4.04-2.47-6.66-6.37-7.86-11.7-1.4-6.21-.21-11.39,3.56-15.54,3.77-4.15,9.81-7.16,18.11-9.03l9.72-2.19-.89-3.93c-1.49-6.63-5.7-9.16-12.62-7.6-3.13.71-5.59,1.94-7.38,3.7-1.78,1.76-3.19,3.92-4.22,6.49l-11.53-6.31c1.64-4.25,4.14-7.78,7.49-10.59,3.35-2.81,7.97-4.88,13.87-6.21,8.3-1.87,15.04-1.42,20.22,1.35,5.18,2.78,8.57,7.7,10.16,14.76l6.11,27.1,5.68-1.28,2.83,12.56-8.96,2.02c-3.06.69-5.8.31-8.23-1.13-2.43-1.44-4.22-3.72-5.38-6.82l-.66.15c-.08,4.07-1.45,7.48-4.12,10.23-2.67,2.74-6.3,4.64-10.89,5.67-5.97,1.35-10.98.79-15.02-1.68ZM147.57,157.1c1.72-1.89,2.27-4.19,1.66-6.91l-1.71-7.59-8.63,1.95c-3.5.79-6.01,2.01-7.55,3.67-1.54,1.66-2.04,3.66-1.52,6.01l.4,1.76c1.04,4.62,4.37,6.3,9.98,5.04,3.2-.72,5.67-2.03,7.38-3.92Z"/>
    <path d="M191.4,165.88l-16.29-3.07,16.12-85.52,16.29,3.07-9.6,50.96.55.1,9.8-9.66,15.57-12.45,18.05,3.4-24.85,19.37,15.42,41.54-19.37-3.65-9.04-28.83-9.34,7.24-3.3,17.5Z"/>
    <path d="M255.98,167.17c-4.04-3.62-6.73-9.25-8.06-16.9l-6.63-38.07,16.33-2.84,6.4,36.74c.72,4.12,1.97,7.05,3.75,8.78,1.78,1.74,4.25,2.33,7.42,1.78,3.16-.55,5.69-1.82,7.58-3.82,1.89-1.99,2.58-4.46,2.06-7.41l-6.9-39.61,16.33-2.84,10.57,60.69-16.33,2.84-1.77-10.15-.55.1c-.64,3.75-2.15,6.91-4.54,9.49s-5.83,4.26-10.32,5.04c-6.18,1.08-11.29-.19-15.33-3.81Z"/>
    <path d="M334.46,173.11h-22.95V55.49h26.64l33.54,57.61,11.23,23.91h.64V55.49h22.95v117.63h-26.64l-33.54-57.61-11.39-23.91h-.48v81.52Z"/>
    <path d="M423.74,169.98c-3.95-2.6-6.44-6.59-7.46-11.96-1.19-6.25.18-11.39,4.09-15.41,3.91-4.02,10.05-6.82,18.41-8.41l9.79-1.86-.75-3.96c-1.27-6.67-5.39-9.35-12.35-8.03-3.15.6-5.65,1.75-7.5,3.44-1.84,1.7-3.32,3.81-4.44,6.35l-11.3-6.7c1.79-4.19,4.4-7.64,7.84-10.33,3.44-2.69,8.13-4.61,14.07-5.73,8.36-1.59,15.08-.9,20.17,2.04,5.08,2.95,8.3,7.98,9.65,15.1l5.18,27.29,5.72-1.09,2.4,12.65-9.02,1.71c-3.08.58-5.81.12-8.19-1.41-2.38-1.52-4.1-3.86-5.15-7l-.66.13c-.22,4.07-1.71,7.43-4.47,10.08-2.77,2.65-6.46,4.42-11.08,5.29-6.02,1.14-11,.41-14.95-2.19ZM449.88,156.07c1.78-1.83,2.41-4.11,1.89-6.85l-1.45-7.64-8.69,1.65c-3.52.67-6.08,1.81-7.67,3.41-1.6,1.6-2.17,3.59-1.72,5.95l.34,1.77c.88,4.65,4.15,6.45,9.8,5.37,3.23-.61,5.73-1.83,7.51-3.66Z"/>
    <path d="M504.08,174.41l-18.71-6.22.19-64.85,15.52,5.16-.51,26.74-1.57,22.85.96.32,12.52-19.21,15.39-21.8,14.88,4.94-38.66,52.06Z"/>
    <path d="M573.68,170.95l-16.28,3.1-11.53-60.51,16.28-3.1,11.53,60.51Z"/>
    <path d="M554.97,102.59l-5.32,1.01c-3.03.58-5.95-1.41-6.53-4.44l-1-5.26c-.58-3.03,1.41-5.95,4.44-6.53l5.32-1.01c3.03-.58,5.95,1.41,6.53,4.44l1,5.26c.58,3.03-1.41,5.95-4.44,6.53Z"/>
    <path class="cls-5" d="M.61,173.32V48.32h59.86c10.23,0,18.27,2.9,24.13,8.7,5.85,5.8,8.78,13.59,8.78,23.36,0,8.87-2.13,15.46-6.4,19.78-4.26,4.32-9.75,6.71-16.46,7.16v1.02c4.21,0,8.44,1.02,12.7,3.07,4.26,2.05,7.82,5.26,10.66,9.63,2.84,4.38,4.26,9.92,4.26,16.63s-1.42,12.45-4.26,17.91c-2.84,5.46-6.71,9.78-11.6,12.96-4.89,3.18-10.35,4.78-16.37,4.78H.61ZM54.5,99.99c3.86,0,6.88-1.08,9.04-3.24s3.24-5.17,3.24-9.04v-5.29c0-3.75-1.08-6.74-3.24-8.95-2.16-2.22-5.17-3.32-9.04-3.32h-27.97v29.84h27.97ZM58.59,151.49c3.98,0,7.08-1.11,9.29-3.33s3.33-5.26,3.33-9.12v-5.8c0-3.86-1.11-6.85-3.33-8.95-2.22-2.1-5.32-3.15-9.29-3.15H26.53v30.35h32.06Z"/>
    <path class="cls-2" d="M110.8,172.99c-4.04-2.47-6.66-6.37-7.86-11.7-1.4-6.21-.21-11.39,3.56-15.54,3.77-4.15,9.81-7.16,18.11-9.03l9.72-2.19-.89-3.93c-1.49-6.63-5.7-9.16-12.62-7.6-3.13.71-5.59,1.94-7.38,3.7-1.78,1.76-3.19,3.92-4.22,6.49l-11.53-6.31c1.64-4.25,4.14-7.78,7.49-10.59,3.35-2.81,7.97-4.88,13.87-6.21,8.3-1.87,15.04-1.42,20.22,1.35,5.18,2.78,8.57,7.7,10.16,14.76l6.11,27.1,5.68-1.28,2.83,12.56-8.96,2.02c-3.06.69-5.8.31-8.23-1.13-2.43-1.44-4.22-3.72-5.38-6.82l-.66.15c-.08,4.07-1.45,7.48-4.12,10.23-2.67,2.74-6.3,4.64-10.89,5.67-5.97,1.35-10.98.79-15.02-1.68ZM136.45,158.19c1.72-1.89,2.27-4.19,1.66-6.91l-1.71-7.59-8.63,1.95c-3.5.79-6.01,2.01-7.55,3.67-1.54,1.66-2.04,3.66-1.52,6.01l.4,1.76c1.04,4.62,4.37,6.3,9.98,5.04,3.2-.72,5.67-2.03,7.38-3.92Z"/>
    <path class="cls-3" d="M180.28,166.97l-16.29-3.07,16.12-85.52,16.29,3.07-9.6,50.96.55.1,9.8-9.66,15.57-12.45,18.05,3.4-24.85,19.37,15.42,41.54-19.37-3.65-9.04-28.83-9.34,7.24-3.3,17.5Z"/>
    <path class="cls-8" d="M244.86,168.26c-4.04-3.62-6.73-9.25-8.06-16.9l-6.63-38.07,16.33-2.84,6.4,36.74c.72,4.12,1.97,7.05,3.75,8.78,1.78,1.74,4.25,2.33,7.42,1.78s5.69-1.82,7.58-3.82c1.89-1.99,2.58-4.46,2.06-7.41l-6.9-39.61,16.33-2.84,10.57,60.69-16.33,2.84-1.77-10.15-.55.1c-.64,3.75-2.15,6.91-4.54,9.49s-5.83,4.26-10.32,5.04c-6.18,1.08-11.29-.19-15.33-3.81Z"/>
    <path class="cls-11" d="M322.34,173.2h-22.95V55.57h26.64l33.54,57.61,11.23,23.91h.64V55.57h22.95v117.63h-26.64l-33.54-57.61-11.39-23.91h-.48v81.52Z"/>
    <path class="cls-9" d="M412.62,171.07c-3.95-2.6-6.44-6.59-7.46-11.96-1.19-6.25.18-11.39,4.09-15.41,3.91-4.02,10.05-6.82,18.41-8.41l9.79-1.86-.75-3.96c-1.27-6.67-5.39-9.35-12.35-8.03-3.15.6-5.65,1.75-7.5,3.44-1.84,1.7-3.32,3.81-4.44,6.35l-11.3-6.7c1.79-4.19,4.4-7.64,7.84-10.33,3.44-2.69,8.13-4.61,14.07-5.73,8.36-1.59,15.08-.9,20.17,2.04,5.08,2.95,8.3,7.98,9.65,15.1l5.18,27.29,5.72-1.09,2.4,12.65-9.02,1.71c-3.08.58-5.81.12-8.19-1.41-2.38-1.52-4.1-3.86-5.15-7l-.66.13c-.22,4.07-1.71,7.43-4.47,10.08-2.77,2.65-6.46,4.42-11.08,5.29-6.02,1.14-11,.41-14.95-2.19ZM438.76,157.16c1.78-1.83,2.41-4.11,1.89-6.85l-1.45-7.64-8.69,1.65c-3.52.67-6.08,1.81-7.67,3.41-1.6,1.6-2.17,3.59-1.72,5.95l.34,1.77c.88,4.65,4.15,6.45,9.8,5.37,3.23-.61,5.73-1.83,7.51-3.66Z"/>
    <path class="cls-10" d="M492.97,175.49l-18.71-6.22.19-64.85,15.52,5.16-.51,26.74-1.57,22.85.96.32,12.52-19.21,15.39-21.8,14.88,4.94-38.66,52.06Z"/>
    <path class="cls-7" d="M562.56,172.04l-16.28,3.1-11.53-60.51,16.28-3.1,11.53,60.51Z"/>
    <path class="cls-6" d="M543.85,103.67l-5.32,1.01c-3.03.58-5.95-1.41-6.53-4.44l-1-5.26c-.58-3.03,1.41-5.95,4.44-6.53l5.32-1.01c3.03-.58,5.95,1.41,6.53,4.44l1,5.26c.58,3.03-1.41,5.95-4.44,6.53Z"/>
    <g>
      <circle class="cls-4" cx="50.54" cy="138.04" r="29.5" transform="translate(-87.78 187.79) rotate(-89.67)"/>
      <path d="M11.9,103.07c-.26.51-.05,1.14.46,1.4,3.24,1.83,4.86,3,2.95,5.51-1.92,2.31-1.47,5.13,1.22,7.11.33.24.77.27,1.13.08h0c.67-.36.75-1.29.15-1.75-.85-.65-1.56-1.43-1.62-2.29.06-1.76,2.29-2.98,2.04-5.2-.12-1.96-1.73-3.7-4.92-5.31-.51-.26-1.14-.06-1.4.45,0,0,0,0,0,.01Z"/>
      <path d="M4.36,98.14c-.54.83-.31,1.93.52,2.48h0s2.2,1.44,2.2,1.44c.83.54,1.94.3,2.47-.53.54-.83.3-1.93-.52-2.47l-2.2-1.44c-.83-.54-1.93-.31-2.48.52h0Z"/>
      <path d="M13.34,98.91c.7-.81-.19-2.96-.29-3.87-.21-.97-1.16-1.58-2.12-1.37,0,0,0,0,0,0-2.27.56-1.09,3.12-.83,4.64.22.97,1.19,1.57,2.16,1.35.44-.1.83-.37,1.09-.75Z"/>
      <path d="M16.36,95.7l-1.38,2.11c-.54.83-.31,1.93.51,2.48.83.54,1.93.31,2.48-.51,0,0,0,0,0,0l1.38-2.11c.52-.84.27-1.94-.57-2.47-.81-.51-1.89-.29-2.43.51Z"/>
      <path d="M9.93,112.07l1.38-2.11c.54-.83.3-1.94-.53-2.47-.83-.54-1.93-.3-2.47.52l-1.38,2.11c-.52.84-.27,1.94.57,2.47.81.51,1.89.29,2.43-.51Z"/>
      <path class="cls-15" d="M39.17,155.77c-1.42-2.22-4.37-3.45-5.79-5.67-1.42-2.22-1.41-5.29-2.56-7.73-.12-.19-.54-1.3-1.84-1.59-.82-.18-1.72-.05-2.48.44-1.53.98-1.18,2.52-1,4.55.22,2.6,1.4,5.38,2.8,7.58,1.43,2.24,3.25,3.96,5.7,5.73.18.13.18.21,1.64.99.74.4,2.15.5,2.91.01h0c1.53-.98,1.6-2.78.62-4.31Z"/>
      <rect class="cls-15" x="41.77" y="158.6" width="4.77" height="4.77" rx="2.2" ry="2.2" transform="translate(46.95 -5.92) rotate(16.3)"/>
      <path d="M7.52,106.84c.96-.22,1.57-1.18,1.35-2.14-.21-.94-1.12-1.54-2.07-1.37l-2.52.51c-.96.22-1.57,1.18-1.35,2.14.21.94,1.12,1.54,2.07,1.37l2.52-.51Z"/>
      <path class="cls-1" d="M32.22,112.05c-2.07,1.63-5.21,4.48-8.04,8.82-2.8,4.28-4.15,8.24-4.82,10.77-2.22-1.36-3.85-2.41-4.46-2.81-.16-.11-.48-.32-.73-.75-.17-.3-.26-.63-.31-.98-.12-.92.29-1.74.5-2.1,3.23-4.94,6.46-9.88,9.69-14.82.21-.32.8-1.02,1.66-1.29.43-.13.86-.09.97-.08.47.04.82.19,1.09.33.69.35,2.34,1.4,4.45,2.91Z"/>
    </g>
  </g>
</svg>