<?xml version="1.0" encoding="UTF-8"?>
<svg id="_レイヤー_2" data-name="レイヤー_2" xmlns="http://www.w3.org/2000/svg" xmlns:xlink="http://www.w3.org/1999/xlink" viewBox="0 0 561.5 374.34">
  <defs>
    <style>
      .cls-1 {
        stroke-width: .26px;
      }

      .cls-1, .cls-2, .cls-3, .cls-4, .cls-5, .cls-6, .cls-7, .cls-8, .cls-9, .cls-10, .cls-11 {
        stroke: #000;
        stroke-miterlimit: 10;
      }

      .cls-2 {
        fill: url(#_名称未設定グラデーション_38-2);
        stroke-width: .96px;
      }

      .cls-3 {
        fill: url(#_名称未設定グラデーション_38-3);
      }

      .cls-3, .cls-4, .cls-5, .cls-6, .cls-7, .cls-10, .cls-11 {
        stroke-width: 1.01px;
      }

      .cls-4 {
        fill: url(#_名称未設定グラデーション_43-2);
      }

      .cls-5 {
        fill: url(#_名称未設定グラデーション_43-3);
      }

      .cls-6 {
        fill: url(#_名称未設定グラデーション_43-5);
      }

      .cls-7 {
        fill: url(#_名称未設定グラデーション_43-4);
      }

      .cls-12, .cls-13 {
        fill: #f0a7c5;
      }

      .cls-8 {
        fill: url(#_名称未設定グラデーション_38);
        stroke-width: 1.13px;
      }

      .cls-14 {
        fill: #d6daf6;
      }

      .cls-13 {
        fill-rule: evenodd;
      }

      .cls-9 {
        fill: #7d85c3;
        stroke-width: 1.47px;
      }

      .cls-15 {
        fill: #fff;
      }

      .cls-10 {
        fill: url(#_名称未設定グラデーション_35);
      }

      .cls-11 {
        fill: url(#_名称未設定グラデーション_43);
      }
    </style>
    <linearGradient id="_名称未設定グラデーション_38" data-name="名称未設定グラデーション 38" x1="137.89" y1="130.77" x2="227.67" y2="130.77" gradientUnits="userSpaceOnUse">
      <stop offset="0" stop-color="#d6daf6"/>
      <stop offset=".37" stop-color="#d7d7f3"/>
      <stop offset=".6" stop-color="#dbceeb"/>
      <stop offset=".8" stop-color="#e3c0dd"/>
      <stop offset=".97" stop-color="#edabc9"/>
      <stop offset="1" stop-color="#f0a7c5"/>
    </linearGradient>
    <linearGradient id="_名称未設定グラデーション_43" data-name="名称未設定グラデーション 43" x1="179.76" y1="166.75" x2="239.1" y2="166.75" gradientTransform="translate(16.34 31.24) rotate(-12.7)" gradientUnits="userSpaceOnUse">
      <stop offset="0" stop-color="#f0a7c5"/>
      <stop offset=".36" stop-color="#eea9c7"/>
      <stop offset=".59" stop-color="#eab2d0"/>
      <stop offset=".8" stop-color="#e2c1de"/>
      <stop offset=".98" stop-color="#d7d6f2"/>
      <stop offset="1" stop-color="#d6daf6"/>
    </linearGradient>
    <linearGradient id="_名称未設定グラデーション_35" data-name="名称未設定グラデーション 35" x1="337.64" y1="117.99" x2="396.41" y2="117.99" gradientTransform="translate(-8.82 -42.05) rotate(10.67)" gradientUnits="userSpaceOnUse">
      <stop offset="0" stop-color="#d6daf6"/>
      <stop offset=".37" stop-color="#d7d7f3"/>
      <stop offset=".6" stop-color="#dbceeb"/>
      <stop offset=".8" stop-color="#e3c0dd"/>
      <stop offset=".97" stop-color="#edabc9"/>
      <stop offset="1" stop-color="#f0a7c5"/>
    </linearGradient>
    <linearGradient id="_名称未設定グラデーション_43-2" data-name="名称未設定グラデーション 43" x1="326.91" y1="172.6" x2="381.06" y2="172.6" gradientTransform="translate(13.44 45.87) rotate(-9.88)" xlink:href="#_名称未設定グラデーション_43"/>
    <linearGradient id="_名称未設定グラデーション_38-2" data-name="名称未設定グラデーション 38" x1="137.75" y1="253.98" x2="229.41" y2="253.98" gradientTransform="translate(3.07 2.72) rotate(.66)" xlink:href="#_名称未設定グラデーション_38"/>
    <linearGradient id="_名称未設定グラデーション_43-3" data-name="名称未設定グラデーション 43" x1="182.29" y1="219.28" x2="241.62" y2="219.28" gradientTransform="translate(20.14 84.24) rotate(-10.09)" xlink:href="#_名称未設定グラデーション_43"/>
    <linearGradient id="_名称未設定グラデーション_38-3" data-name="名称未設定グラデーション 38" x1="410.14" y1="304.41" x2="470.83" y2="304.41" gradientTransform="translate(7.82 -161.59) rotate(18.38)" xlink:href="#_名称未設定グラデーション_38"/>
    <linearGradient id="_名称未設定グラデーション_43-4" data-name="名称未設定グラデーション 43" x1="318.36" y1="224.83" x2="335.06" y2="224.83" gradientTransform="translate(22.56 102.9) rotate(-10.79)" xlink:href="#_名称未設定グラデーション_43"/>
    <linearGradient id="_名称未設定グラデーション_43-5" data-name="名称未設定グラデーション 43" x1="317.06" y1="183.17" x2="333.76" y2="183.17" gradientTransform="translate(22.56 102.9) rotate(-10.79)" xlink:href="#_名称未設定グラデーション_43"/>
  </defs>
  <g id="_装飾_x2461_" data-name="装飾_x2461_">
    <g>
      <g>
        <path class="cls-14" d="M183.66,27.71s.06-.02.06-.05-.03-.05-.06-.05-.06.02-.06.05c0,.03.03.05.06.05Z"/>
        <path class="cls-14" d="M204.85,28.09c.16,0,.3-.11.3-.25,0-.14-.13-.26-.29-.26-.16,0-.3.11-.3.25,0,.14.13.25.29.26Z"/>
        <path class="cls-14" d="M226.04,28.59c.36,0,.65-.25.65-.56,0-.31-.28-.56-.64-.57-.36,0-.65.25-.65.56,0,.31.28.56.64.57Z"/>
        <path class="cls-14" d="M247.24,28.98c.49,0,.89-.34.89-.76,0-.42-.39-.77-.87-.77-.49,0-.89.33-.89.76,0,.42.38.77.87.77Z"/>
        <path class="cls-14" d="M268.43,29.21c.52,0,.95-.36.95-.81,0-.45-.41-.82-.93-.82-.52,0-.94.36-.95.81,0,.45.41.82.93.82Z"/>
        <path class="cls-14" d="M289.63,29.35c.49,0,.89-.33.89-.76,0-.42-.39-.77-.87-.77-.49,0-.89.34-.89.76,0,.42.38.77.87.77Z"/>
        <path class="cls-14" d="M310.83,29.33c.36,0,.65-.25.65-.55,0-.31-.28-.56-.64-.57-.36,0-.65.25-.65.56,0,.31.28.56.64.56Z"/>
        <path class="cls-14" d="M332.03,29.21c.16,0,.29-.11.3-.25,0-.14-.13-.26-.29-.26-.16,0-.3.11-.3.25,0,.14.13.26.29.26Z"/>
        <path class="cls-14" d="M353.23,29.19s.06-.02.06-.05c0-.03-.03-.05-.06-.05-.03,0-.06.02-.06.05s.03.05.06.05Z"/>
        <path class="cls-14" d="M141.03,46.08c.26,0,.47-.18.48-.4,0-.22-.2-.41-.46-.41-.26,0-.47.18-.48.4,0,.23.2.41.46.41Z"/>
        <path class="cls-14" d="M162.21,47.13c.81,0,1.47-.56,1.49-1.26,0-.7-.64-1.28-1.45-1.29-.81,0-1.48.56-1.49,1.26,0,.7.64,1.28,1.45,1.29Z"/>
        <path class="cls-14" d="M183.4,48.13c1.33.01,2.42-.91,2.43-2.07.02-1.15-1.05-2.1-2.38-2.11-1.33-.01-2.42.91-2.43,2.07-.01,1.15,1.05,2.1,2.38,2.11Z"/>
        <path class="cls-14" d="M204.59,48.83c1.65.02,3.01-1.14,3.03-2.57.02-1.43-1.31-2.61-2.96-2.63-1.66-.02-3.01,1.14-3.03,2.57-.02,1.43,1.31,2.61,2.97,2.63Z"/>
        <path class="cls-14" d="M225.78,49.27c1.82.02,3.31-1.25,3.33-2.83.02-1.58-1.44-2.87-3.26-2.89-1.82-.02-3.31,1.25-3.33,2.83-.02,1.58,1.44,2.87,3.26,2.88Z"/>
        <path class="cls-14" d="M246.98,49.61c1.92.02,3.49-1.32,3.51-2.98.02-1.66-1.51-3.02-3.43-3.04-1.92-.02-3.48,1.32-3.5,2.98-.02,1.66,1.51,3.02,3.43,3.04Z"/>
        <path class="cls-14" d="M268.17,49.84c1.95.02,3.54-1.34,3.56-3.03.02-1.69-1.54-3.07-3.49-3.09-1.95-.02-3.54,1.34-3.56,3.03-.02,1.69,1.54,3.07,3.49,3.09Z"/>
        <path class="cls-14" d="M289.37,49.98c1.92.02,3.48-1.32,3.5-2.98.02-1.66-1.51-3.02-3.43-3.04-1.91-.02-3.48,1.32-3.5,2.98-.02,1.66,1.51,3.02,3.43,3.04Z"/>
        <path class="cls-14" d="M310.57,50.01c1.82.01,3.31-1.25,3.33-2.83.02-1.58-1.44-2.87-3.26-2.88-1.82-.01-3.31,1.25-3.33,2.83-.02,1.57,1.44,2.87,3.26,2.88Z"/>
        <path class="cls-14" d="M331.77,49.94c1.66.02,3.01-1.14,3.03-2.57.02-1.44-1.31-2.61-2.96-2.63-1.66-.01-3.01,1.14-3.03,2.57-.02,1.44,1.31,2.61,2.97,2.63Z"/>
        <path class="cls-14" d="M352.97,49.62c1.33.01,2.42-.91,2.43-2.07.02-1.15-1.05-2.1-2.38-2.11-1.33-.01-2.42.91-2.44,2.07-.01,1.16,1.05,2.1,2.38,2.11Z"/>
        <path class="cls-14" d="M374.18,48.98c.81,0,1.48-.56,1.49-1.26,0-.7-.64-1.28-1.45-1.29-.81,0-1.48.56-1.49,1.26,0,.7.64,1.28,1.45,1.29Z"/>
        <path class="cls-14" d="M395.38,48.3c.26,0,.47-.18.48-.4,0-.22-.2-.41-.46-.41-.26,0-.47.18-.48.4,0,.23.2.41.46.41Z"/>
        <path class="cls-14" d="M98.41,63.95c.16,0,.3-.11.3-.25,0-.14-.13-.26-.29-.26-.16,0-.3.11-.3.25,0,.14.13.26.29.26Z"/>
        <path class="cls-14" d="M119.59,65.35c.94,0,1.71-.65,1.72-1.46.01-.82-.74-1.48-1.69-1.49-.94,0-1.71.65-1.72,1.46-.01.82.74,1.49,1.69,1.49Z"/>
        <path class="cls-14" d="M140.77,66.61c1.62.01,2.95-1.11,2.97-2.52.02-1.41-1.28-2.56-2.91-2.58-1.62-.02-2.95,1.11-2.97,2.52-.02,1.41,1.28,2.56,2.91,2.57Z"/>
        <path class="cls-14" d="M161.96,67.36c1.98.02,3.6-1.36,3.62-3.08.02-1.72-1.57-3.12-3.55-3.14-1.98-.02-3.6,1.36-3.62,3.08-.02,1.72,1.57,3.12,3.55,3.14Z"/>
        <path class="cls-14" d="M183.15,68.05c2.3.02,4.19-1.58,4.22-3.59.02-2-1.82-3.64-4.13-3.65-2.3-.02-4.19,1.58-4.22,3.58-.02,2,1.82,3.64,4.13,3.66Z"/>
        <path class="cls-14" d="M204.34,68.59c2.53.02,4.61-1.74,4.63-3.94.03-2.2-2-3.99-4.54-4.02-2.53-.02-4.61,1.74-4.63,3.94-.03,2.2,2,3.99,4.54,4.02Z"/>
        <path class="cls-14" d="M225.54,69.08c2.73.02,4.96-1.88,4.99-4.24.03-2.36-2.16-4.3-4.88-4.33-2.73-.02-4.96,1.87-4.99,4.24-.03,2.36,2.16,4.3,4.88,4.33Z"/>
        <path class="cls-14" d="M246.73,69.47c2.86.03,5.2-1.96,5.23-4.44.03-2.48-2.26-4.51-5.12-4.53-2.86-.03-5.2,1.96-5.23,4.44-.03,2.48,2.26,4.51,5.12,4.53Z"/>
        <path class="cls-14" d="M267.92,69.76c2.92.02,5.32-2.01,5.35-4.54s-2.31-4.61-5.23-4.64c-2.92-.03-5.32,2.01-5.35,4.54-.03,2.53,2.31,4.61,5.23,4.64Z"/>
        <path class="cls-14" d="M289.12,69.84c2.86.02,5.2-1.96,5.23-4.44.03-2.48-2.26-4.51-5.12-4.53-2.86-.02-5.2,1.96-5.23,4.44-.03,2.48,2.26,4.51,5.12,4.53Z"/>
        <path class="cls-14" d="M310.32,69.88c2.76.02,5.02-1.9,5.05-4.29.03-2.39-2.18-4.35-4.94-4.38-2.76-.02-5.02,1.9-5.05,4.29-.03,2.39,2.18,4.35,4.94,4.38Z"/>
        <path class="cls-14" d="M331.52,69.75c2.56.02,4.66-1.76,4.69-3.99.03-2.22-2.03-4.05-4.59-4.07-2.56-.02-4.66,1.76-4.69,3.99-.03,2.22,2.03,4.05,4.6,4.07Z"/>
        <path class="cls-14" d="M352.72,69.53c2.3.02,4.19-1.58,4.22-3.58.02-2-1.82-3.64-4.13-3.66-2.3-.02-4.19,1.58-4.22,3.58-.02,2,1.82,3.64,4.13,3.66Z"/>
        <path class="cls-14" d="M373.92,69.26c2.01.02,3.66-1.38,3.68-3.13.02-1.75-1.59-3.18-3.6-3.19-2.01-.02-3.66,1.38-3.68,3.13-.02,1.75,1.59,3.18,3.6,3.19Z"/>
        <path class="cls-14" d="M395.13,68.88c1.66.02,3.01-1.14,3.03-2.57.02-1.44-1.31-2.61-2.97-2.63-1.66-.01-3.01,1.14-3.03,2.57-.02,1.43,1.31,2.61,2.97,2.63Z"/>
        <path class="cls-14" d="M416.34,68c.97,0,1.77-.67,1.78-1.51s-.77-1.54-1.74-1.54c-.97,0-1.77.67-1.78,1.51,0,.84.77,1.54,1.75,1.54Z"/>
        <path class="cls-14" d="M437.55,66.91c.16,0,.29-.11.3-.25,0-.14-.13-.26-.29-.26-.16,0-.29.11-.3.25,0,.14.13.25.29.26Z"/>
        <path class="cls-14" d="M76.98,82.5c.39,0,.71-.27.71-.61,0-.34-.31-.61-.7-.62-.39,0-.71.27-.71.61,0,.34.31.61.7.62Z"/>
        <path class="cls-14" d="M98.15,84.27c1.4.01,2.54-.96,2.56-2.17.01-1.21-1.1-2.2-2.5-2.22-1.39-.01-2.54.96-2.55,2.17-.02,1.21,1.1,2.2,2.5,2.22Z"/>
        <path class="cls-14" d="M119.34,85.32c1.95.02,3.54-1.34,3.56-3.03.02-1.69-1.54-3.07-3.49-3.09-1.95-.02-3.54,1.34-3.57,3.03-.02,1.69,1.54,3.07,3.49,3.09Z"/>
        <path class="cls-14" d="M140.52,86.22c2.4.02,4.37-1.65,4.4-3.73.03-2.08-1.9-3.79-4.3-3.81-2.4-.02-4.37,1.65-4.4,3.73-.03,2.08,1.9,3.79,4.3,3.81Z"/>
        <path class="cls-14" d="M161.71,87.02c2.79.02,5.08-1.92,5.11-4.34.03-2.42-2.21-4.4-5-4.43-2.79-.02-5.08,1.92-5.11,4.34-.03,2.42,2.21,4.41,5,4.43Z"/>
        <path class="cls-14" d="M182.9,87.76c3.15.03,5.73-2.16,5.77-4.9.03-2.73-2.49-4.97-5.64-4.99-3.15-.03-5.73,2.17-5.76,4.9-.04,2.73,2.49,4.97,5.64,4.99Z"/>
        <path class="cls-14" d="M204.09,88.41c3.44.03,6.26-2.37,6.3-5.35.04-2.98-2.72-5.43-6.16-5.46-3.44-.03-6.26,2.37-6.3,5.35-.04,2.98,2.72,5.43,6.16,5.46Z"/>
        <path class="cls-14" d="M225.29,88.95c3.67.03,6.67-2.52,6.71-5.7.04-3.18-2.9-5.79-6.57-5.82-3.67-.03-6.67,2.52-6.71,5.7-.04,3.18,2.9,5.79,6.57,5.82Z"/>
        <path class="cls-14" d="M246.48,89.34c3.8.03,6.91-2.61,6.95-5.91.04-3.29-3-5.99-6.8-6.03-3.8-.03-6.91,2.61-6.95,5.91-.04,3.29,3,5.99,6.8,6.03Z"/>
        <path class="cls-14" d="M267.68,89.57c3.83.03,6.97-2.63,7.01-5.96.04-3.32-3.03-6.04-6.86-6.08-3.83-.03-6.97,2.63-7.01,5.95-.04,3.32,3.03,6.04,6.86,6.08Z"/>
        <path class="cls-14" d="M288.87,89.71c3.8.03,6.91-2.61,6.95-5.91.04-3.29-3-5.99-6.8-6.03-3.8-.03-6.91,2.61-6.95,5.91-.04,3.29,3,5.99,6.8,6.03Z"/>
        <path class="cls-14" d="M310.07,89.74c3.7.03,6.73-2.54,6.77-5.75.04-3.21-2.92-5.84-6.63-5.87-3.7-.03-6.73,2.54-6.77,5.75-.04,3.21,2.93,5.84,6.63,5.87Z"/>
        <path class="cls-14" d="M331.27,89.57c3.47.03,6.32-2.39,6.36-5.4.04-3.01-2.75-5.48-6.22-5.51-3.47-.03-6.32,2.39-6.36,5.4s2.75,5.48,6.22,5.51Z"/>
        <path class="cls-14" d="M352.47,89.29c3.18.03,5.79-2.19,5.82-4.95.03-2.76-2.52-5.02-5.7-5.05s-5.79,2.19-5.82,4.95c-.04,2.76,2.52,5.02,5.7,5.05Z"/>
        <path class="cls-14" d="M373.68,88.97c2.86.03,5.2-1.96,5.23-4.44.03-2.48-2.26-4.51-5.12-4.53-2.85-.02-5.2,1.96-5.23,4.44-.03,2.48,2.26,4.51,5.12,4.53Z"/>
        <path class="cls-14" d="M394.88,88.49c2.43.02,4.43-1.67,4.46-3.79.03-2.11-1.93-3.84-4.36-3.86-2.44-.02-4.43,1.67-4.46,3.79-.03,2.11,1.92,3.84,4.36,3.86Z"/>
        <path class="cls-14" d="M416.09,87.97c1.98.02,3.6-1.36,3.62-3.08.02-1.72-1.57-3.12-3.54-3.14-1.98-.02-3.6,1.36-3.63,3.08-.02,1.72,1.57,3.13,3.55,3.14Z"/>
        <path class="cls-14" d="M437.29,87.28c1.43.01,2.6-.98,2.61-2.22.02-1.24-1.13-2.25-2.56-2.27-1.43-.01-2.6.98-2.61,2.22-.02,1.24,1.13,2.25,2.56,2.27Z"/>
        <path class="cls-14" d="M458.51,85.89c.42,0,.77-.29.77-.66,0-.37-.33-.67-.75-.67-.42,0-.77.29-.77.66,0,.37.33.67.76.67Z"/>
        <path class="cls-14" d="M55.55,100.71c.39,0,.71-.27.71-.61,0-.34-.31-.61-.7-.62-.39,0-.71.27-.71.61,0,.34.31.61.7.62Z"/>
        <path class="cls-14" d="M76.72,102.68c1.53.01,2.77-1.05,2.79-2.37s-1.21-2.41-2.73-2.42c-1.53-.01-2.78,1.05-2.79,2.37-.02,1.32,1.21,2.41,2.73,2.42Z"/>
        <path class="cls-14" d="M97.91,103.73c2.08.02,3.78-1.43,3.8-3.23.02-1.8-1.64-3.28-3.72-3.3-2.08-.02-3.78,1.43-3.8,3.23s1.64,3.28,3.72,3.3Z"/>
        <path class="cls-14" d="M119.1,104.78c2.63.02,4.78-1.81,4.81-4.09.03-2.28-2.08-4.15-4.71-4.17-2.63-.02-4.78,1.81-4.81,4.09-.03,2.28,2.08,4.15,4.71,4.17Z"/>
        <path class="cls-14" d="M140.28,105.78c3.15.03,5.73-2.17,5.76-4.9.03-2.73-2.49-4.97-5.64-5-3.15-.03-5.73,2.17-5.76,4.9-.03,2.73,2.49,4.97,5.64,5Z"/>
        <path class="cls-14" d="M161.47,106.68c3.6.03,6.56-2.48,6.6-5.6.04-3.13-2.85-5.69-6.45-5.72-3.6-.03-6.56,2.48-6.59,5.6-.04,3.13,2.85,5.69,6.45,5.72Z"/>
        <path class="cls-14" d="M182.66,107.48c3.99.04,7.27-2.74,7.31-6.21s-3.16-6.3-7.15-6.34c-3.99-.03-7.26,2.74-7.31,6.21s3.16,6.3,7.15,6.33Z"/>
        <path class="cls-14" d="M203.85,108.12c4.29.04,7.8-2.95,7.84-6.66.05-3.72-3.39-6.76-7.68-6.8-4.28-.04-7.8,2.94-7.84,6.66s3.39,6.76,7.68,6.8Z"/>
        <path class="cls-14" d="M225.04,108.66c4.51.04,8.21-3.1,8.26-7.02.05-3.91-3.57-7.12-8.08-7.16-4.51-.04-8.21,3.1-8.26,7.02-.05,3.91,3.57,7.12,8.08,7.16Z"/>
        <path class="cls-14" d="M246.23,109.05c4.64.04,8.44-3.19,8.5-7.22.05-4.03-3.67-7.32-8.32-7.36-4.64-.04-8.44,3.19-8.5,7.22-.05,4.03,3.67,7.32,8.32,7.36Z"/>
        <path class="cls-14" d="M267.43,109.34c4.71.04,8.56-3.23,8.62-7.32.05-4.08-3.72-7.43-8.43-7.47-4.71-.04-8.56,3.23-8.61,7.32-.05,4.08,3.72,7.43,8.43,7.47Z"/>
        <path class="cls-14" d="M288.62,109.47c4.68.04,8.51-3.21,8.56-7.27.05-4.06-3.7-7.38-8.37-7.42-4.68-.04-8.51,3.21-8.56,7.27s3.7,7.38,8.37,7.42Z"/>
        <path class="cls-14" d="M309.82,109.45c4.55.04,8.27-3.12,8.32-7.07.05-3.94-3.6-7.17-8.14-7.21-4.54-.04-8.27,3.13-8.32,7.07-.05,3.94,3.6,7.17,8.14,7.21Z"/>
        <path class="cls-14" d="M331.02,109.28c4.32.04,7.86-2.97,7.9-6.71.05-3.75-3.41-6.81-7.73-6.85-4.32-.04-7.86,2.97-7.9,6.71-.05,3.75,3.41,6.81,7.73,6.85Z"/>
        <path class="cls-14" d="M352.23,109.01c4.03.03,7.32-2.77,7.37-6.26.04-3.49-3.19-6.35-7.21-6.39-4.03-.03-7.32,2.77-7.37,6.26-.04,3.49,3.18,6.35,7.21,6.39Z"/>
        <path class="cls-14" d="M373.43,108.58c3.63.03,6.61-2.5,6.65-5.65.04-3.15-2.88-5.74-6.51-5.77-3.64-.03-6.61,2.5-6.65,5.65-.04,3.15,2.88,5.74,6.51,5.77Z"/>
        <path class="cls-14" d="M394.64,108.05c3.18.03,5.79-2.19,5.82-4.95.03-2.76-2.52-5.02-5.7-5.05-3.18-.03-5.79,2.19-5.82,4.95-.03,2.76,2.52,5.02,5.7,5.05Z"/>
        <path class="cls-14" d="M415.84,107.42c2.66.02,4.84-1.83,4.87-4.14.03-2.31-2.11-4.2-4.77-4.22s-4.84,1.83-4.87,4.14c-.03,2.31,2.11,4.2,4.77,4.22Z"/>
        <path class="cls-14" d="M437.05,106.79c2.14.02,3.9-1.47,3.92-3.33.02-1.86-1.69-3.38-3.84-3.4-2.14-.02-3.9,1.47-3.92,3.33-.02,1.86,1.69,3.38,3.84,3.4Z"/>
        <path class="cls-14" d="M458.26,106.06c1.56.01,2.83-1.07,2.85-2.42.02-1.35-1.23-2.46-2.79-2.47-1.56-.01-2.83,1.07-2.85,2.42-.02,1.35,1.23,2.46,2.79,2.47Z"/>
        <path class="cls-14" d="M479.47,104.46c.42,0,.77-.29.77-.65,0-.37-.33-.67-.76-.67-.42,0-.77.29-.77.66,0,.36.33.67.76.67Z"/>
        <path class="cls-14" d="M34.13,118.55c.16,0,.3-.11.3-.25,0-.14-.13-.26-.29-.26-.16,0-.29.11-.3.25,0,.14.13.26.29.26Z"/>
        <path class="cls-14" d="M55.3,120.68c1.4.01,2.54-.96,2.56-2.17.01-1.21-1.11-2.2-2.5-2.22-1.4-.01-2.54.96-2.55,2.17-.01,1.21,1.1,2.2,2.5,2.21Z"/>
        <path class="cls-14" d="M76.48,121.88c2.05.02,3.72-1.4,3.74-3.18.02-1.77-1.62-3.23-3.66-3.24-2.05-.02-3.72,1.4-3.74,3.18-.02,1.77,1.62,3.23,3.66,3.24Z"/>
        <path class="cls-14" d="M97.67,123.03c2.66.02,4.84-1.83,4.87-4.14.03-2.31-2.1-4.2-4.77-4.22-2.66-.02-4.84,1.83-4.87,4.14-.03,2.31,2.11,4.2,4.77,4.22Z"/>
        <path class="cls-14" d="M118.85,124.14c3.25.03,5.91-2.23,5.94-5.05.04-2.82-2.57-5.12-5.81-5.15-3.25-.03-5.91,2.23-5.94,5.05s2.57,5.12,5.81,5.15Z"/>
        <path class="cls-14" d="M140.04,125.19c3.8.03,6.91-2.61,6.95-5.9.04-3.3-3-5.99-6.8-6.03-3.8-.03-6.91,2.61-6.95,5.91-.04,3.3,3,5.99,6.8,6.03Z"/>
        <path class="cls-14" d="M161.22,126.14c4.29.04,7.8-2.95,7.84-6.66.05-3.72-3.39-6.76-7.67-6.8-4.28-.04-7.8,2.95-7.84,6.66-.05,3.72,3.39,6.76,7.67,6.8Z"/>
        <path class="cls-14" d="M182.41,126.99c4.71.04,8.56-3.23,8.61-7.32s-3.72-7.43-8.43-7.47c-4.71-.04-8.56,3.23-8.61,7.32-.05,4.08,3.72,7.43,8.43,7.47Z"/>
        <path class="cls-14" d="M203.6,127.63c5,.04,9.1-3.44,9.15-7.77.05-4.34-3.95-7.89-8.95-7.93s-9.09,3.44-9.15,7.77c-.05,4.34,3.95,7.89,8.95,7.93Z"/>
        <path class="cls-14" d="M224.79,128.17c5.23.05,9.51-3.59,9.57-8.13.06-4.53-4.13-8.24-9.36-8.29-5.23-.05-9.51,3.59-9.57,8.13-.06,4.54,4.13,8.25,9.36,8.29Z"/>
        <path class="cls-14" d="M245.99,128.56c5.36.05,9.75-3.68,9.8-8.33.06-4.65-4.24-8.45-9.59-8.5-5.36-.05-9.75,3.68-9.8,8.33-.06,4.65,4.24,8.45,9.59,8.5Z"/>
        <path class="cls-14" d="M267.18,128.8c5.39.05,9.8-3.7,9.86-8.38.06-4.67-4.26-8.5-9.65-8.55-5.39-.05-9.8,3.71-9.86,8.38-.06,4.68,4.26,8.5,9.65,8.55Z"/>
        <path class="cls-14" d="M288.38,128.93c5.36.05,9.75-3.68,9.8-8.33.06-4.65-4.24-8.45-9.59-8.5-5.36-.05-9.75,3.68-9.8,8.33-.06,4.65,4.23,8.45,9.59,8.5Z"/>
        <path class="cls-14" d="M309.58,128.91c5.23.05,9.51-3.59,9.57-8.13.06-4.53-4.14-8.25-9.36-8.29-5.22-.04-9.51,3.59-9.57,8.13-.06,4.53,4.14,8.24,9.36,8.29Z"/>
        <path class="cls-14" d="M330.78,128.79c5.03.04,9.15-3.46,9.21-7.82.05-4.37-3.98-7.94-9.01-7.98-5.03-.05-9.16,3.46-9.21,7.82-.05,4.37,3.98,7.94,9.01,7.98Z"/>
        <path class="cls-14" d="M351.98,128.47c4.71.04,8.56-3.24,8.61-7.32.05-4.08-3.72-7.43-8.43-7.47-4.71-.04-8.56,3.24-8.62,7.32-.05,4.08,3.72,7.43,8.43,7.47Z"/>
        <path class="cls-14" d="M373.19,128.04c4.32.04,7.86-2.97,7.9-6.71.05-3.75-3.41-6.81-7.73-6.85-4.32-.04-7.86,2.97-7.9,6.71-.05,3.75,3.41,6.81,7.73,6.85Z"/>
        <path class="cls-14" d="M394.39,127.51c3.86.03,7.03-2.66,7.07-6.01.04-3.35-3.06-6.09-6.92-6.13-3.86-.03-7.03,2.66-7.07,6.01-.04,3.35,3.06,6.09,6.92,6.13Z"/>
        <path class="cls-14" d="M415.6,126.83c3.31.03,6.02-2.28,6.06-5.15.04-2.87-2.62-5.22-5.93-5.25-3.31-.03-6.02,2.28-6.06,5.15-.04,2.87,2.62,5.22,5.93,5.25Z"/>
        <path class="cls-14" d="M436.81,126.1c2.73.02,4.96-1.87,4.99-4.24.03-2.37-2.16-4.3-4.88-4.33-2.73-.02-4.96,1.87-4.99,4.24-.03,2.36,2.16,4.3,4.88,4.33Z"/>
        <path class="cls-14" d="M458.01,125.31c2.11.02,3.84-1.45,3.86-3.28.02-1.83-1.67-3.33-3.78-3.35-2.11-.02-3.84,1.45-3.86,3.28-.02,1.83,1.67,3.33,3.78,3.35Z"/>
        <path class="cls-14" d="M479.22,124.48c1.46.01,2.66-1,2.67-2.27.02-1.27-1.16-2.3-2.62-2.32-1.46-.01-2.66,1-2.67,2.27-.02,1.27,1.16,2.3,2.62,2.32Z"/>
        <path class="cls-14" d="M500.45,122.62c.16,0,.29-.11.3-.25,0-.14-.13-.26-.29-.26-.16,0-.29.11-.3.25,0,.14.13.26.29.26Z"/>
        <path class="cls-14" d="M33.88,138.01c.84,0,1.54-.58,1.55-1.31.01-.73-.67-1.33-1.51-1.34-.85,0-1.54.58-1.55,1.31,0,.73.67,1.33,1.51,1.34Z"/>
        <path class="cls-14" d="M55.06,139.78c1.85.01,3.36-1.27,3.39-2.88s-1.46-2.92-3.31-2.94c-1.85-.02-3.37,1.27-3.39,2.88-.02,1.6,1.47,2.92,3.32,2.94Z"/>
        <path class="cls-14" d="M76.24,140.98c2.5.02,4.55-1.72,4.57-3.89.03-2.17-1.98-3.94-4.48-3.97-2.5-.02-4.55,1.72-4.58,3.89-.03,2.17,1.98,3.94,4.48,3.97Z"/>
        <path class="cls-14" d="M97.43,142.19c3.15.03,5.73-2.17,5.77-4.9.03-2.73-2.49-4.97-5.64-5-3.15-.03-5.73,2.16-5.76,4.89s2.49,4.97,5.64,5Z"/>
        <path class="cls-14" d="M118.61,143.34c3.76.03,6.85-2.59,6.89-5.86.04-3.27-2.98-5.94-6.74-5.97-3.77-.03-6.85,2.59-6.89,5.85-.04,3.27,2.98,5.94,6.74,5.98Z"/>
        <path class="cls-14" d="M139.8,144.44c4.35.04,7.92-2.99,7.96-6.76.05-3.77-3.44-6.86-7.79-6.9-4.35-.04-7.91,2.99-7.96,6.76-.05,3.77,3.44,6.86,7.79,6.9Z"/>
        <path class="cls-14" d="M160.98,145.39c4.84.04,8.8-3.33,8.85-7.52.05-4.19-3.83-7.63-8.66-7.67-4.83-.04-8.8,3.32-8.85,7.52-.05,4.2,3.83,7.63,8.66,7.67Z"/>
        <path class="cls-14" d="M182.17,146.19c5.22.05,9.51-3.59,9.56-8.13.06-4.53-4.13-8.25-9.36-8.29-5.23-.05-9.51,3.59-9.57,8.13-.06,4.53,4.13,8.25,9.36,8.29Z"/>
        <path class="cls-14" d="M203.36,146.83c5.52.05,10.04-3.79,10.1-8.58.06-4.79-4.37-8.71-9.88-8.76-5.52-.05-10.04,3.79-10.1,8.58-.06,4.79,4.37,8.71,9.88,8.76Z"/>
        <path class="cls-14" d="M224.55,147.32c5.71.05,10.39-3.93,10.46-8.88s-4.52-9.01-10.23-9.06c-5.71-.05-10.39,3.93-10.46,8.88-.06,4.96,4.52,9.01,10.23,9.06Z"/>
        <path class="cls-14" d="M245.75,147.71c5.84.05,10.63-4.02,10.7-9.08.06-5.07-4.62-9.22-10.47-9.27s-10.63,4.02-10.7,9.08c-.06,5.07,4.62,9.22,10.47,9.27Z"/>
        <path class="cls-14" d="M266.94,147.95c5.88.05,10.69-4.04,10.76-9.14.06-5.1-4.65-9.27-10.52-9.32-5.88-.05-10.69,4.04-10.76,9.13-.06,5.1,4.65,9.27,10.52,9.32Z"/>
        <path class="cls-14" d="M288.14,148.08c5.84.05,10.63-4.02,10.69-9.09.06-5.07-4.62-9.22-10.47-9.27-5.84-.05-10.63,4.02-10.69,9.09-.06,5.07,4.62,9.22,10.47,9.27Z"/>
        <path class="cls-14" d="M309.34,148.12c5.75.05,10.45-3.95,10.52-8.93.06-4.99-4.54-9.07-10.29-9.12-5.75-.05-10.45,3.95-10.52,8.93-.06,4.98,4.55,9.07,10.29,9.12Z"/>
        <path class="cls-14" d="M330.54,148c5.55.05,10.1-3.82,10.16-8.63.06-4.82-4.39-8.76-9.94-8.81-5.55-.05-10.1,3.82-10.16,8.63-.06,4.82,4.39,8.76,9.94,8.81Z"/>
        <path class="cls-14" d="M351.74,147.72c5.26.05,9.57-3.61,9.63-8.18.06-4.56-4.16-8.3-9.42-8.34-5.26-.05-9.57,3.61-9.63,8.18-.06,4.56,4.16,8.3,9.42,8.34Z"/>
        <path class="cls-14" d="M372.94,147.29c4.87.04,8.86-3.35,8.91-7.57.05-4.23-3.85-7.68-8.72-7.73-4.87-.04-8.86,3.35-8.91,7.57-.05,4.22,3.85,7.68,8.72,7.73Z"/>
        <path class="cls-14" d="M394.15,146.77c4.42.04,8.03-3.03,8.08-6.86.05-3.83-3.49-6.97-7.91-7-4.42-.04-8.03,3.03-8.08,6.86-.05,3.83,3.49,6.97,7.91,7Z"/>
        <path class="cls-14" d="M415.36,146.03c3.83.03,6.97-2.63,7.01-5.96.04-3.32-3.03-6.04-6.86-6.08-3.83-.03-6.97,2.63-7.01,5.96-.04,3.32,3.03,6.04,6.86,6.08Z"/>
        <path class="cls-14" d="M436.57,145.25c3.21.03,5.85-2.21,5.88-5,.03-2.79-2.54-5.07-5.76-5.1-3.21-.03-5.85,2.21-5.88,5-.03,2.79,2.54,5.07,5.76,5.1Z"/>
        <path class="cls-14" d="M457.78,144.36c2.53.02,4.61-1.74,4.63-3.94.03-2.2-2-3.99-4.54-4.02-2.53-.02-4.61,1.74-4.63,3.94-.03,2.2,2,3.99,4.54,4.02Z"/>
        <path class="cls-14" d="M478.99,143.53c1.88.02,3.42-1.29,3.44-2.93.02-1.63-1.49-2.97-3.37-2.99s-3.42,1.29-3.44,2.93c-.02,1.63,1.49,2.97,3.37,2.99Z"/>
        <path class="cls-14" d="M500.2,142.13c.88,0,1.59-.6,1.6-1.36.01-.76-.69-1.38-1.57-1.39-.88,0-1.59.6-1.61,1.36,0,.76.69,1.38,1.57,1.39Z"/>
        <path class="cls-14" d="M12.47,154.99c.07,0,.12-.05.12-.1,0-.06-.05-.1-.12-.1-.07,0-.12.04-.12.1,0,.06.05.1.11.1Z"/>
        <path class="cls-14" d="M33.64,157.31c1.43.01,2.6-.98,2.61-2.22.02-1.24-1.13-2.25-2.56-2.27-1.43-.01-2.6.98-2.61,2.22-.02,1.24,1.13,2.25,2.56,2.27Z"/>
        <path class="cls-14" d="M54.83,158.62c2.14.02,3.9-1.47,3.92-3.33.02-1.86-1.69-3.38-3.84-3.4-2.14-.02-3.9,1.47-3.92,3.33-.02,1.86,1.69,3.38,3.84,3.4Z"/>
        <path class="cls-14" d="M76.01,159.88c2.82.02,5.14-1.94,5.17-4.39.03-2.45-2.23-4.46-5.06-4.48-2.83-.03-5.14,1.94-5.17,4.39-.03,2.45,2.23,4.46,5.06,4.48Z"/>
        <path class="cls-14" d="M97.19,161.13c3.51.03,6.38-2.41,6.42-5.45.04-3.04-2.77-5.53-6.28-5.56-3.51-.03-6.38,2.41-6.42,5.45-.04,3.04,2.77,5.53,6.28,5.56Z"/>
        <path class="cls-14" d="M118.37,162.34c4.16.04,7.56-2.86,7.61-6.46.04-3.61-3.29-6.56-7.44-6.59-4.16-.04-7.56,2.86-7.6,6.46-.04,3.6,3.29,6.56,7.44,6.59Z"/>
        <path class="cls-14" d="M139.56,163.44c4.74.04,8.62-3.26,8.67-7.37.05-4.11-3.75-7.48-8.49-7.52-4.74-.04-8.62,3.26-8.67,7.37-.05,4.11,3.75,7.48,8.49,7.52Z"/>
        <path class="cls-14" d="M160.74,164.39c5.23.05,9.51-3.59,9.57-8.13.06-4.53-4.13-8.25-9.36-8.29-5.23-.05-9.51,3.59-9.57,8.13-.06,4.53,4.13,8.24,9.36,8.29Z"/>
        <path class="cls-14" d="M181.93,165.14c5.58.05,10.16-3.84,10.22-8.68.06-4.84-4.42-8.81-10-8.86-5.58-.05-10.16,3.84-10.22,8.68-.06,4.84,4.42,8.81,10,8.86Z"/>
        <path class="cls-14" d="M203.13,165.73c5.84.05,10.63-4.02,10.7-9.09.06-5.07-4.62-9.22-10.47-9.27-5.84-.05-10.63,4.02-10.69,9.09-.07,5.07,4.62,9.22,10.46,9.27Z"/>
        <path class="cls-14" d="M224.32,166.22c6.04.05,10.99-4.15,11.05-9.39.07-5.24-4.77-9.53-10.81-9.58-6.04-.05-10.99,4.15-11.05,9.39-.07,5.24,4.78,9.53,10.81,9.58Z"/>
        <path class="cls-14" d="M245.51,166.56c6.13.05,11.16-4.22,11.23-9.54.07-5.32-4.85-9.68-10.99-9.73-6.13-.05-11.16,4.22-11.23,9.54-.07,5.32,4.85,9.68,10.99,9.73Z"/>
        <path class="cls-14" d="M266.71,166.8c6.17.05,11.22-4.24,11.29-9.59.07-5.35-4.88-9.73-11.05-9.79-6.17-.05-11.22,4.24-11.29,9.59-.07,5.35,4.88,9.73,11.05,9.79Z"/>
        <path class="cls-14" d="M287.9,166.93c6.13.05,11.16-4.22,11.23-9.54.07-5.32-4.85-9.68-10.99-9.73-6.13-.05-11.16,4.22-11.23,9.54-.07,5.32,4.85,9.68,10.99,9.73Z"/>
        <path class="cls-14" d="M309.1,166.96c6.04.05,10.99-4.15,11.05-9.39s-4.77-9.53-10.81-9.58c-6.04-.05-10.99,4.15-11.05,9.39s4.78,9.53,10.81,9.58Z"/>
        <path class="cls-14" d="M330.3,166.89c5.88.05,10.69-4.04,10.75-9.14.06-5.1-4.65-9.27-10.52-9.32-5.88-.05-10.69,4.04-10.76,9.13-.06,5.1,4.65,9.27,10.52,9.32Z"/>
        <path class="cls-14" d="M351.51,166.67c5.61.05,10.22-3.86,10.28-8.73.06-4.87-4.44-8.86-10.06-8.91-5.62-.05-10.22,3.86-10.28,8.73-.06,4.87,4.44,8.86,10.06,8.91Z"/>
        <path class="cls-14" d="M372.71,166.29c5.26.05,9.57-3.61,9.63-8.18.06-4.56-4.16-8.3-9.42-8.34-5.26-.05-9.57,3.62-9.63,8.18-.06,4.56,4.16,8.3,9.42,8.34Z"/>
        <path class="cls-14" d="M393.91,165.77c4.81.04,8.74-3.3,8.79-7.47.05-4.17-3.8-7.58-8.6-7.62-4.81-.04-8.74,3.3-8.79,7.47-.05,4.17,3.8,7.58,8.6,7.62Z"/>
        <path class="cls-14" d="M415.12,165.03c4.22.04,7.68-2.9,7.72-6.56.04-3.66-3.34-6.66-7.56-6.69-4.22-.04-7.68,2.9-7.72,6.56-.05,3.66,3.34,6.66,7.56,6.7Z"/>
        <path class="cls-14" d="M436.33,164.2c3.57.03,6.5-2.45,6.54-5.55.04-3.1-2.82-5.64-6.4-5.67-3.57-.03-6.5,2.45-6.54,5.55-.04,3.1,2.82,5.64,6.4,5.67Z"/>
        <path class="cls-14" d="M457.54,163.31c2.89.02,5.26-1.99,5.29-4.49.03-2.5-2.28-4.56-5.18-4.58-2.89-.02-5.26,1.99-5.29,4.49-.03,2.5,2.28,4.56,5.17,4.58Z"/>
        <path class="cls-14" d="M478.75,162.43c2.21.02,4.02-1.52,4.04-3.43.02-1.91-1.75-3.48-3.95-3.5-2.21-.02-4.02,1.52-4.04,3.43-.02,1.91,1.75,3.48,3.95,3.5Z"/>
        <path class="cls-14" d="M499.96,161.49c1.49.01,2.72-1.03,2.73-2.32.02-1.29-1.18-2.36-2.67-2.37-1.49-.01-2.72,1.03-2.73,2.32-.02,1.3,1.18,2.36,2.67,2.37Z"/>
        <path class="cls-14" d="M521.18,159.43c.06,0,.12-.05.12-.1,0-.06-.05-.1-.12-.1-.07,0-.12.05-.12.1s.05.1.12.1Z"/>
        <path class="cls-14" d="M12.24,173.73c.29,0,.53-.2.54-.45,0-.25-.23-.46-.52-.46-.29,0-.53.2-.54.45s.23.46.52.46Z"/>
        <path class="cls-14" d="M33.41,176.01c1.62.01,2.95-1.12,2.97-2.52s-1.28-2.56-2.91-2.57c-1.62-.02-2.95,1.11-2.97,2.52-.02,1.41,1.28,2.56,2.91,2.58Z"/>
        <path class="cls-14" d="M54.59,177.32c2.34.02,4.25-1.61,4.28-3.63.03-2.03-1.85-3.69-4.18-3.71-2.34-.02-4.25,1.6-4.28,3.63-.03,2.03,1.85,3.69,4.18,3.71Z"/>
        <path class="cls-14" d="M75.77,178.62c3.05.03,5.55-2.1,5.59-4.74.03-2.65-2.41-4.81-5.47-4.84-3.05-.03-5.55,2.1-5.59,4.74-.03,2.65,2.41,4.81,5.47,4.84Z"/>
        <path class="cls-14" d="M96.96,179.88c3.73.03,6.79-2.57,6.83-5.81.04-3.24-2.95-5.89-6.69-5.92-3.73-.03-6.79,2.57-6.83,5.8-.04,3.24,2.95,5.89,6.69,5.92Z"/>
        <path class="cls-14" d="M118.14,181.14c4.41.04,8.03-3.04,8.08-6.87.05-3.83-3.49-6.96-7.91-7-4.41-.04-8.03,3.03-8.08,6.87-.05,3.83,3.49,6.97,7.91,7.01Z"/>
        <path class="cls-14" d="M139.32,182.19c4.97.05,9.04-3.41,9.09-7.72.05-4.31-3.93-7.84-8.9-7.88-4.97-.05-9.04,3.41-9.09,7.72-.05,4.31,3.93,7.84,8.9,7.88Z"/>
        <path class="cls-14" d="M160.51,183.14c5.45.05,9.92-3.75,9.98-8.48.06-4.73-4.31-8.6-9.77-8.65-5.45-.05-9.92,3.75-9.98,8.48-.06,4.73,4.31,8.6,9.77,8.65Z"/>
        <path class="cls-14" d="M181.7,183.88c5.81.05,10.57-3.99,10.64-9.04.06-5.04-4.6-9.17-10.41-9.22-5.81-.05-10.57,3.99-10.64,9.03-.06,5.04,4.6,9.17,10.41,9.22Z"/>
        <path class="cls-14" d="M202.89,184.42c6.04.05,10.99-4.15,11.05-9.39.07-5.24-4.77-9.53-10.81-9.58-6.04-.05-10.99,4.15-11.05,9.39-.07,5.24,4.77,9.53,10.81,9.58Z"/>
        <path class="cls-14" d="M224.09,184.86c6.2.05,11.28-4.26,11.35-9.64.07-5.38-4.91-9.78-11.11-9.84-6.2-.05-11.28,4.26-11.35,9.64-.07,5.38,4.9,9.78,11.11,9.84Z"/>
        <path class="cls-14" d="M245.28,185.15c6.27.06,11.4-4.31,11.47-9.74.07-5.44-4.96-9.89-11.22-9.94-6.27-.05-11.4,4.31-11.47,9.74-.07,5.44,4.96,9.89,11.22,9.94Z"/>
        <path class="cls-14" d="M266.47,185.39c6.3.06,11.46-4.33,11.53-9.79.07-5.46-4.98-9.94-11.28-9.99-6.3-.05-11.46,4.33-11.53,9.79-.07,5.46,4.98,9.94,11.28,9.99Z"/>
        <path class="cls-14" d="M287.67,185.52c6.26.06,11.4-4.31,11.46-9.74.07-5.44-4.95-9.89-11.22-9.94-6.27-.05-11.4,4.31-11.47,9.74-.07,5.44,4.95,9.89,11.22,9.94Z"/>
        <path class="cls-14" d="M308.87,185.6c6.2.05,11.28-4.26,11.35-9.64.07-5.38-4.9-9.78-11.1-9.84-6.2-.05-11.28,4.26-11.35,9.64-.07,5.38,4.9,9.78,11.1,9.84Z"/>
        <path class="cls-14" d="M330.07,185.59c6.07.05,11.04-4.17,11.11-9.44.07-5.27-4.8-9.58-10.87-9.63-6.07-.05-11.05,4.17-11.11,9.44-.07,5.27,4.8,9.58,10.87,9.63Z"/>
        <path class="cls-14" d="M351.27,185.41c5.84.05,10.63-4.02,10.7-9.08.06-5.07-4.62-9.22-10.47-9.27-5.84-.05-10.63,4.02-10.7,9.09-.06,5.07,4.62,9.22,10.47,9.27Z"/>
        <path class="cls-14" d="M372.47,185.04c5.49.05,9.98-3.77,10.04-8.53.06-4.76-4.34-8.66-9.83-8.7-5.49-.05-9.98,3.77-10.04,8.53-.06,4.76,4.34,8.66,9.82,8.7Z"/>
        <path class="cls-14" d="M393.68,184.51c5.03.04,9.15-3.46,9.21-7.82.05-4.37-3.98-7.94-9.01-7.98-5.03-.05-9.16,3.46-9.21,7.82-.05,4.36,3.98,7.94,9.01,7.98Z"/>
        <path class="cls-14" d="M414.89,183.78c4.45.04,8.09-3.06,8.14-6.91.05-3.86-3.52-7.02-7.97-7.06-4.45-.04-8.09,3.06-8.14,6.92-.05,3.86,3.52,7.02,7.97,7.05Z"/>
        <path class="cls-14" d="M436.1,182.94c3.8.03,6.91-2.61,6.95-5.91.04-3.29-3-5.99-6.8-6.02-3.8-.03-6.91,2.61-6.95,5.91-.04,3.29,3,5.99,6.8,6.02Z"/>
        <path class="cls-14" d="M457.3,182.06c3.12.03,5.67-2.14,5.7-4.85.04-2.7-2.46-4.92-5.58-4.94s-5.67,2.14-5.71,4.85c-.03,2.7,2.47,4.92,5.58,4.94Z"/>
        <path class="cls-14" d="M478.51,181.07c2.37.02,4.31-1.63,4.34-3.68.03-2.06-1.87-3.74-4.24-3.76-2.37-.02-4.31,1.63-4.34,3.69-.03,2.05,1.88,3.74,4.24,3.76Z"/>
        <path class="cls-14" d="M499.72,180.18c1.69.01,3.07-1.16,3.09-2.63.02-1.46-1.34-2.66-3.02-2.68-1.69-.01-3.07,1.16-3.09,2.63-.02,1.46,1.34,2.66,3.02,2.68Z"/>
        <path class="cls-14" d="M520.95,178.23c.32,0,.59-.22.6-.51,0-.28-.26-.51-.58-.52-.32,0-.59.22-.6.51,0,.28.26.51.58.52Z"/>
        <path class="cls-14" d="M12.01,192.22c.36,0,.65-.25.65-.56,0-.31-.28-.56-.64-.57-.36,0-.65.25-.65.56,0,.31.28.56.64.57Z"/>
        <path class="cls-14" d="M33.18,194.5c1.69.02,3.07-1.16,3.09-2.63.02-1.46-1.34-2.66-3.02-2.68s-3.07,1.16-3.09,2.63c-.02,1.46,1.34,2.66,3.02,2.68Z"/>
        <path class="cls-14" d="M54.36,195.81c2.4.02,4.37-1.65,4.4-3.73s-1.9-3.79-4.3-3.81-4.37,1.65-4.4,3.73c-.02,2.08,1.9,3.79,4.3,3.81Z"/>
        <path class="cls-14" d="M75.54,197.11c3.12.03,5.67-2.14,5.7-4.84.03-2.7-2.47-4.92-5.58-4.94-3.12-.03-5.67,2.14-5.7,4.84-.04,2.7,2.46,4.92,5.58,4.95Z"/>
        <path class="cls-14" d="M96.72,198.42c3.83.03,6.97-2.63,7.01-5.96.04-3.32-3.03-6.04-6.86-6.08-3.83-.03-6.97,2.63-7.01,5.96-.04,3.32,3.03,6.04,6.86,6.08Z"/>
        <path class="cls-14" d="M117.91,199.62c4.48.04,8.15-3.08,8.2-6.97.05-3.89-3.54-7.07-8.02-7.11-4.48-.04-8.15,3.08-8.2,6.97-.05,3.89,3.54,7.07,8.02,7.11Z"/>
        <path class="cls-14" d="M139.09,200.73c5.06.04,9.21-3.48,9.27-7.87.05-4.39-4.01-7.99-9.07-8.03-5.06-.05-9.21,3.48-9.27,7.87-.06,4.39,4.01,7.99,9.07,8.04Z"/>
        <path class="cls-14" d="M160.28,201.63c5.52.05,10.04-3.79,10.1-8.58.06-4.79-4.37-8.71-9.88-8.76-5.52-.05-10.04,3.79-10.1,8.58-.06,4.79,4.37,8.71,9.88,8.76Z"/>
        <path class="cls-14" d="M181.47,202.37c5.88.05,10.69-4.04,10.75-9.13.06-5.1-4.65-9.27-10.52-9.32-5.88-.05-10.69,4.04-10.76,9.14-.06,5.1,4.65,9.27,10.52,9.32Z"/>
        <path class="cls-14" d="M202.66,202.97c6.13.05,11.16-4.22,11.23-9.54.07-5.32-4.85-9.68-10.99-9.73-6.13-.05-11.16,4.22-11.23,9.54-.07,5.32,4.85,9.68,10.99,9.73Z"/>
        <path class="cls-14" d="M223.85,203.3c6.23.05,11.34-4.28,11.41-9.69s-4.93-9.83-11.16-9.89c-6.23-.05-11.34,4.29-11.41,9.69-.07,5.41,4.93,9.83,11.16,9.89Z"/>
        <path class="cls-14" d="M245.05,203.64c6.33.06,11.52-4.35,11.58-9.84.07-5.49-5-9.99-11.34-10.04-6.33-.06-11.52,4.35-11.59,9.84-.07,5.49,5.01,9.99,11.34,10.04Z"/>
        <path class="cls-14" d="M266.24,203.83c6.33.06,11.52-4.35,11.59-9.84.07-5.49-5.01-9.99-11.34-10.04-6.33-.06-11.52,4.35-11.59,9.84-.07,5.49,5.01,9.99,11.34,10.04Z"/>
        <path class="cls-14" d="M287.44,204.01c6.33.06,11.52-4.35,11.59-9.84.07-5.49-5.01-9.99-11.34-10.04-6.33-.05-11.52,4.35-11.59,9.84-.07,5.49,5.01,9.99,11.34,10.04Z"/>
        <path class="cls-14" d="M308.64,204.04c6.23.05,11.34-4.28,11.41-9.69.07-5.41-4.93-9.83-11.16-9.89-6.23-.05-11.34,4.29-11.41,9.69-.07,5.41,4.93,9.83,11.16,9.89Z"/>
        <path class="cls-14" d="M329.84,204.07c6.13.05,11.16-4.22,11.23-9.54.07-5.32-4.85-9.68-10.99-9.73-6.13-.05-11.16,4.22-11.23,9.54-.07,5.32,4.85,9.68,10.99,9.73Z"/>
        <path class="cls-14" d="M351.04,203.9c5.91.05,10.75-4.06,10.81-9.19.07-5.12-4.67-9.32-10.58-9.37-5.91-.05-10.75,4.06-10.81,9.19-.06,5.12,4.67,9.32,10.58,9.37Z"/>
        <path class="cls-14" d="M372.24,203.58c5.58.05,10.16-3.84,10.22-8.68.06-4.84-4.42-8.81-10-8.86-5.58-.05-10.16,3.84-10.22,8.68-.06,4.84,4.42,8.81,10,8.86Z"/>
        <path class="cls-14" d="M393.45,203.05c5.13.05,9.33-3.52,9.39-7.97.06-4.45-4.06-8.09-9.19-8.14-5.13-.04-9.33,3.53-9.39,7.97-.06,4.45,4.06,8.09,9.19,8.14Z"/>
        <path class="cls-14" d="M414.65,202.37c4.58.04,8.33-3.15,8.38-7.12.05-3.97-3.62-7.22-8.2-7.26-4.58-.04-8.33,3.14-8.38,7.12-.05,3.97,3.62,7.22,8.2,7.26Z"/>
        <path class="cls-14" d="M435.86,201.48c3.9.03,7.09-2.68,7.13-6.06.04-3.38-3.08-6.15-6.98-6.18-3.89-.03-7.09,2.68-7.13,6.06-.04,3.38,3.08,6.15,6.98,6.18Z"/>
        <path class="cls-14" d="M457.07,200.55c3.18.03,5.79-2.19,5.82-4.95.04-2.76-2.52-5.02-5.7-5.05-3.18-.03-5.79,2.19-5.82,4.95-.04,2.76,2.52,5.02,5.7,5.05Z"/>
        <path class="cls-14" d="M478.28,199.61c2.47.02,4.49-1.7,4.52-3.84.02-2.14-1.95-3.89-4.42-3.91-2.47-.02-4.49,1.7-4.52,3.84-.03,2.14,1.95,3.89,4.42,3.91Z"/>
        <path class="cls-14" d="M499.49,198.67c1.75.02,3.19-1.2,3.21-2.72.02-1.52-1.39-2.77-3.14-2.78-1.75-.02-3.19,1.2-3.21,2.73-.02,1.52,1.38,2.77,3.14,2.78Z"/>
        <path class="cls-14" d="M520.72,196.72c.39,0,.71-.27.71-.61,0-.34-.31-.61-.7-.62s-.71.27-.71.61.31.61.7.62Z"/>
        <path class="cls-14" d="M11.78,210.51c.29,0,.53-.2.54-.45s-.23-.46-.52-.46c-.29,0-.53.2-.53.45,0,.25.23.46.52.46Z"/>
        <path class="cls-14" d="M32.95,212.84c1.66.01,3.01-1.14,3.03-2.57.02-1.44-1.31-2.61-2.96-2.63s-3.01,1.14-3.03,2.57c-.02,1.44,1.31,2.61,2.96,2.63Z"/>
        <path class="cls-14" d="M54.13,214.09c2.34.02,4.25-1.61,4.28-3.63.02-2.03-1.85-3.69-4.19-3.71-2.34-.02-4.25,1.61-4.28,3.64-.03,2.03,1.85,3.69,4.19,3.71Z"/>
        <path class="cls-14" d="M75.31,215.4c3.05.03,5.55-2.1,5.59-4.75.03-2.65-2.42-4.81-5.46-4.84-3.05-.03-5.55,2.1-5.59,4.74-.04,2.65,2.41,4.81,5.46,4.84Z"/>
        <path class="cls-14" d="M96.49,216.71c3.76.03,6.85-2.59,6.89-5.85.04-3.27-2.98-5.94-6.74-5.98-3.77-.03-6.85,2.59-6.89,5.85-.04,3.27,2.98,5.94,6.74,5.98Z"/>
        <path class="cls-14" d="M117.68,217.91c4.42.04,8.03-3.03,8.08-6.86.05-3.83-3.49-6.97-7.91-7.01-4.42-.04-8.03,3.04-8.08,6.87-.05,3.83,3.49,6.96,7.91,7Z"/>
        <path class="cls-14" d="M138.86,219.01c5,.04,9.1-3.44,9.15-7.77.05-4.34-3.95-7.89-8.95-7.93-5-.05-9.1,3.44-9.15,7.77-.05,4.34,3.95,7.89,8.95,7.93Z"/>
        <path class="cls-14" d="M160.05,219.96c5.49.05,9.98-3.77,10.04-8.53.06-4.76-4.34-8.66-9.83-8.7-5.49-.05-9.98,3.77-10.04,8.53-.06,4.76,4.34,8.66,9.83,8.7Z"/>
        <path class="cls-14" d="M181.24,220.66c5.81.05,10.57-3.99,10.64-9.03.06-5.04-4.6-9.17-10.41-9.22-5.81-.05-10.57,4-10.64,9.04-.06,5.04,4.6,9.17,10.41,9.22Z"/>
        <path class="cls-14" d="M202.43,221.25c6.07.05,11.05-4.17,11.11-9.44.07-5.27-4.8-9.58-10.87-9.63-6.07-.05-11.04,4.17-11.11,9.44-.07,5.27,4.8,9.58,10.87,9.63Z"/>
        <path class="cls-14" d="M223.62,221.64c6.2.05,11.28-4.26,11.35-9.64.07-5.38-4.9-9.78-11.1-9.84s-11.28,4.26-11.35,9.64c-.07,5.38,4.91,9.78,11.1,9.84Z"/>
        <path class="cls-14" d="M244.82,221.93c6.27.05,11.4-4.31,11.47-9.74.07-5.43-4.96-9.89-11.22-9.94-6.26-.06-11.4,4.31-11.47,9.74-.07,5.44,4.96,9.89,11.22,9.94Z"/>
        <path class="cls-14" d="M266.02,222.16c6.3.06,11.46-4.33,11.53-9.79.07-5.46-4.98-9.94-11.28-9.99-6.3-.06-11.46,4.33-11.53,9.79-.07,5.46,4.98,9.94,11.28,9.99Z"/>
        <path class="cls-14" d="M287.21,222.35c6.3.05,11.46-4.33,11.53-9.79.07-5.46-4.98-9.94-11.28-9.99-6.3-.05-11.46,4.33-11.53,9.79-.07,5.46,4.98,9.94,11.28,9.99Z"/>
        <path class="cls-14" d="M308.41,222.43c6.23.05,11.34-4.29,11.41-9.69.07-5.41-4.93-9.83-11.16-9.89-6.23-.05-11.34,4.28-11.41,9.69-.07,5.41,4.93,9.83,11.16,9.89Z"/>
        <path class="cls-14" d="M329.61,222.36c6.07.05,11.05-4.17,11.11-9.44.07-5.27-4.8-9.58-10.87-9.63-6.07-.05-11.05,4.17-11.11,9.44-.07,5.27,4.8,9.58,10.87,9.63Z"/>
        <path class="cls-14" d="M350.81,222.19c5.84.05,10.63-4.02,10.69-9.09.06-5.07-4.62-9.22-10.47-9.27-5.84-.05-10.63,4.02-10.69,9.09-.06,5.07,4.62,9.22,10.47,9.27Z"/>
        <path class="cls-14" d="M372.01,221.86c5.52.05,10.04-3.79,10.1-8.58.06-4.79-4.37-8.71-9.88-8.76-5.52-.05-10.04,3.79-10.1,8.58-.06,4.79,4.37,8.71,9.88,8.76Z"/>
        <path class="cls-14" d="M393.22,221.28c5.03.04,9.16-3.46,9.21-7.82.05-4.36-3.98-7.94-9.01-7.98-5.03-.04-9.15,3.46-9.21,7.82-.05,4.37,3.98,7.94,9.01,7.98Z"/>
        <path class="cls-14" d="M414.42,220.6c4.48.04,8.15-3.08,8.2-6.97.05-3.89-3.54-7.07-8.02-7.11-4.48-.04-8.15,3.08-8.2,6.97-.05,3.89,3.54,7.07,8.02,7.11Z"/>
        <path class="cls-14" d="M435.63,219.77c3.83.03,6.97-2.63,7.01-5.96.04-3.32-3.03-6.04-6.86-6.08-3.83-.03-6.97,2.63-7.01,5.96-.04,3.32,3.03,6.04,6.86,6.08Z"/>
        <path class="cls-14" d="M456.84,218.83c3.12.03,5.67-2.14,5.7-4.85.03-2.7-2.46-4.92-5.58-4.95-3.12-.03-5.67,2.14-5.7,4.85-.03,2.7,2.47,4.92,5.58,4.95Z"/>
        <path class="cls-14" d="M478.05,217.89c2.4.02,4.37-1.65,4.4-3.73.03-2.08-1.9-3.79-4.3-3.81-2.4-.02-4.37,1.65-4.4,3.73-.03,2.08,1.9,3.79,4.3,3.81Z"/>
        <path class="cls-14" d="M499.26,216.96c1.69.02,3.07-1.16,3.09-2.62.02-1.46-1.33-2.66-3.02-2.68-1.69-.02-3.07,1.16-3.09,2.62s1.34,2.66,3.02,2.68Z"/>
        <path class="cls-14" d="M520.49,215c.32,0,.59-.22.6-.5,0-.28-.26-.51-.58-.51s-.59.22-.59.5.26.51.58.51Z"/>
        <path class="cls-14" d="M11.55,228.54c.06,0,.12-.04.12-.1,0-.06-.05-.1-.12-.1s-.12.05-.12.1.05.1.12.1Z"/>
        <path class="cls-14" d="M32.72,230.92c1.46.01,2.66-1,2.67-2.27.01-1.27-1.16-2.3-2.62-2.32-1.46-.01-2.66,1-2.67,2.27-.02,1.27,1.15,2.3,2.62,2.32Z"/>
        <path class="cls-14" d="M53.9,232.17c2.14.02,3.9-1.47,3.92-3.33.02-1.86-1.69-3.38-3.84-3.4-2.14-.02-3.9,1.47-3.92,3.33-.02,1.86,1.7,3.38,3.84,3.4Z"/>
        <path class="cls-14" d="M75.09,233.48c2.86.02,5.2-1.97,5.23-4.44.03-2.48-2.26-4.51-5.12-4.53-2.86-.02-5.2,1.97-5.23,4.44-.03,2.48,2.26,4.51,5.12,4.53Z"/>
        <path class="cls-14" d="M96.27,234.73c3.54.03,6.44-2.43,6.48-5.5.04-3.07-2.8-5.58-6.34-5.61-3.54-.03-6.44,2.43-6.48,5.5-.04,3.07,2.8,5.58,6.34,5.61Z"/>
        <path class="cls-14" d="M117.45,235.94c4.19.04,7.62-2.88,7.66-6.51.04-3.63-3.31-6.61-7.5-6.65-4.19-.04-7.62,2.88-7.66,6.51-.04,3.63,3.31,6.61,7.5,6.64Z"/>
        <path class="cls-14" d="M138.64,237.04c4.77.04,8.68-3.28,8.73-7.42.05-4.14-3.77-7.53-8.55-7.57-4.77-.04-8.68,3.28-8.73,7.42-.05,4.14,3.77,7.53,8.55,7.57Z"/>
        <path class="cls-14" d="M159.82,237.99c5.26.05,9.57-3.61,9.63-8.18.06-4.56-4.16-8.3-9.42-8.34-5.26-.05-9.57,3.61-9.63,8.18-.06,4.56,4.16,8.3,9.42,8.34Z"/>
        <path class="cls-14" d="M181.01,238.74c5.62.05,10.22-3.86,10.28-8.73.06-4.87-4.44-8.86-10.06-8.91-5.61-.05-10.22,3.86-10.28,8.73-.06,4.87,4.44,8.86,10.06,8.91Z"/>
        <path class="cls-14" d="M202.2,239.38c5.91.05,10.75-4.06,10.81-9.19.06-5.13-4.68-9.32-10.58-9.37-5.91-.05-10.75,4.06-10.81,9.19-.06,5.13,4.67,9.32,10.58,9.37Z"/>
        <path class="cls-14" d="M223.39,239.82c6.07.05,11.05-4.17,11.11-9.44.07-5.27-4.8-9.58-10.87-9.63-6.07-.05-11.05,4.17-11.11,9.44-.07,5.27,4.8,9.58,10.87,9.63Z"/>
        <path class="cls-14" d="M244.59,240.16c6.17.05,11.22-4.24,11.29-9.59.07-5.35-4.88-9.73-11.05-9.79-6.17-.05-11.22,4.24-11.29,9.59-.07,5.35,4.88,9.73,11.05,9.79Z"/>
        <path class="cls-14" d="M265.79,240.4c6.2.05,11.28-4.26,11.35-9.64.07-5.38-4.91-9.78-11.1-9.84-6.2-.05-11.28,4.26-11.35,9.64-.07,5.38,4.91,9.78,11.1,9.84Z"/>
        <path class="cls-14" d="M286.98,240.53c6.17.05,11.22-4.24,11.29-9.59.07-5.35-4.88-9.73-11.05-9.79-6.17-.05-11.22,4.24-11.29,9.59s4.88,9.73,11.04,9.79Z"/>
        <path class="cls-14" d="M308.18,240.56c6.07.05,11.05-4.17,11.11-9.44.07-5.27-4.8-9.58-10.87-9.63-6.07-.05-11.05,4.17-11.11,9.44-.07,5.27,4.8,9.58,10.87,9.63Z"/>
        <path class="cls-14" d="M329.38,240.49c5.91.05,10.75-4.06,10.82-9.19.06-5.13-4.67-9.32-10.58-9.37-5.91-.05-10.75,4.06-10.81,9.19-.07,5.13,4.67,9.32,10.58,9.37Z"/>
        <path class="cls-14" d="M350.58,240.27c5.65.05,10.28-3.88,10.34-8.78.06-4.9-4.47-8.91-10.12-8.96-5.65-.05-10.28,3.88-10.34,8.78-.06,4.9,4.47,8.91,10.12,8.96Z"/>
        <path class="cls-14" d="M371.78,239.89c5.29.05,9.63-3.64,9.69-8.23.06-4.59-4.19-8.35-9.48-8.4-5.29-.05-9.63,3.64-9.69,8.23-.06,4.59,4.19,8.35,9.48,8.39Z"/>
        <path class="cls-14" d="M392.99,239.32c4.8.04,8.74-3.3,8.79-7.47.05-4.17-3.8-7.58-8.61-7.62-4.8-.04-8.74,3.3-8.79,7.47-.05,4.17,3.8,7.58,8.6,7.62Z"/>
        <path class="cls-14" d="M414.2,238.63c4.25.04,7.74-2.92,7.78-6.61.05-3.69-3.36-6.71-7.62-6.75-4.25-.04-7.74,2.92-7.78,6.61-.05,3.69,3.36,6.71,7.62,6.75Z"/>
        <path class="cls-14" d="M435.41,237.8c3.6.03,6.55-2.48,6.59-5.6.04-3.12-2.85-5.69-6.45-5.72-3.6-.03-6.55,2.48-6.6,5.6-.04,3.13,2.85,5.68,6.46,5.72Z"/>
        <path class="cls-14" d="M456.62,236.91c2.92.03,5.32-2.01,5.35-4.54.03-2.53-2.31-4.61-5.23-4.64-2.92-.03-5.32,2.01-5.35,4.54-.03,2.53,2.31,4.61,5.23,4.63Z"/>
        <path class="cls-14" d="M477.83,235.98c2.21.02,4.02-1.52,4.04-3.43.02-1.91-1.75-3.48-3.95-3.5-2.21-.02-4.02,1.52-4.04,3.43-.02,1.91,1.75,3.48,3.95,3.5Z"/>
        <path class="cls-14" d="M499.04,235.04c1.49.02,2.72-1.03,2.73-2.32.02-1.29-1.18-2.35-2.67-2.37-1.49-.01-2.72,1.03-2.73,2.32-.02,1.3,1.18,2.36,2.68,2.37Z"/>
        <path class="cls-14" d="M520.26,232.98c.07,0,.12-.05.12-.1s-.05-.1-.12-.1c-.07,0-.12.04-.12.1s.05.1.12.1Z"/>
        <path class="cls-14" d="M32.5,248.39c.88,0,1.6-.6,1.6-1.36.01-.76-.69-1.38-1.57-1.39-.88,0-1.59.6-1.61,1.36,0,.76.69,1.38,1.57,1.39Z"/>
        <path class="cls-14" d="M53.68,250.15c1.88.02,3.42-1.29,3.45-2.93.02-1.63-1.49-2.97-3.37-2.99-1.88-.02-3.43,1.29-3.45,2.93-.02,1.63,1.49,2.97,3.37,2.99Z"/>
        <path class="cls-14" d="M74.86,251.36c2.53.02,4.61-1.74,4.63-3.94s-2-3.99-4.53-4.02c-2.53-.02-4.61,1.74-4.63,3.94-.03,2.2,2,3.99,4.53,4.02Z"/>
        <path class="cls-14" d="M96.05,252.56c3.18.03,5.79-2.19,5.82-4.95.04-2.76-2.52-5.02-5.7-5.05-3.18-.03-5.79,2.19-5.82,4.95-.03,2.76,2.52,5.02,5.7,5.05Z"/>
        <path class="cls-14" d="M117.23,253.72c3.8.03,6.91-2.61,6.95-5.91.04-3.3-3-5.99-6.8-6.03-3.8-.03-6.91,2.61-6.95,5.91-.04,3.3,3,5.99,6.8,6.03Z"/>
        <path class="cls-14" d="M138.41,254.87c4.41.04,8.03-3.03,8.08-6.86.05-3.83-3.49-6.97-7.91-7.01-4.42-.04-8.03,3.03-8.08,6.86-.05,3.83,3.49,6.97,7.91,7.01Z"/>
        <path class="cls-14" d="M159.6,255.77c4.87.04,8.86-3.35,8.91-7.57s-3.85-7.68-8.72-7.73c-4.87-.04-8.86,3.35-8.91,7.57-.05,4.22,3.85,7.68,8.72,7.73Z"/>
        <path class="cls-14" d="M180.79,256.62c5.29.05,9.63-3.64,9.69-8.23.06-4.59-4.18-8.35-9.48-8.39-5.29-.05-9.63,3.64-9.68,8.23-.06,4.59,4.18,8.35,9.48,8.39Z"/>
        <path class="cls-14" d="M201.98,257.26c5.58.05,10.16-3.84,10.22-8.68.06-4.84-4.42-8.81-10-8.86-5.58-.05-10.16,3.84-10.22,8.68-.06,4.84,4.42,8.81,10,8.86Z"/>
        <path class="cls-14" d="M223.17,257.75c5.78.05,10.51-3.97,10.58-8.98.06-5.01-4.57-9.12-10.35-9.17-5.78-.05-10.51,3.97-10.58,8.98-.06,5.01,4.57,9.12,10.35,9.17Z"/>
        <path class="cls-14" d="M244.37,258.09c5.88.05,10.69-4.04,10.75-9.14.06-5.1-4.65-9.27-10.52-9.32-5.88-.05-10.69,4.04-10.76,9.13-.06,5.1,4.65,9.27,10.52,9.32Z"/>
        <path class="cls-14" d="M265.56,258.33c5.91.05,10.75-4.06,10.81-9.19.06-5.12-4.67-9.32-10.58-9.37-5.91-.05-10.75,4.06-10.82,9.19-.06,5.13,4.67,9.32,10.58,9.37Z"/>
        <path class="cls-14" d="M286.76,258.46c5.88.05,10.69-4.04,10.75-9.14.06-5.1-4.65-9.27-10.52-9.32-5.87-.05-10.69,4.04-10.75,9.13-.06,5.1,4.65,9.27,10.52,9.32Z"/>
        <path class="cls-14" d="M307.96,258.49c5.78.05,10.51-3.97,10.58-8.99.06-5.01-4.57-9.12-10.35-9.17-5.78-.05-10.51,3.97-10.58,8.99-.06,5.01,4.57,9.12,10.35,9.17Z"/>
        <path class="cls-14" d="M329.16,258.37c5.58.05,10.16-3.84,10.22-8.68.06-4.84-4.42-8.81-10-8.86-5.58-.05-10.16,3.84-10.22,8.68-.06,4.84,4.42,8.81,10,8.86Z"/>
        <path class="cls-14" d="M350.36,258.1c5.29.05,9.63-3.64,9.69-8.23.06-4.59-4.19-8.35-9.48-8.4-5.29-.05-9.63,3.64-9.69,8.23-.06,4.59,4.19,8.35,9.48,8.39Z"/>
        <path class="cls-14" d="M371.56,257.72c4.93.04,8.98-3.39,9.03-7.67.05-4.28-3.9-7.79-8.84-7.83-4.94-.04-8.98,3.39-9.03,7.67-.05,4.28,3.9,7.79,8.84,7.83Z"/>
        <path class="cls-14" d="M392.77,257.14c4.45.04,8.09-3.06,8.14-6.91.05-3.86-3.52-7.02-7.96-7.06-4.45-.04-8.09,3.06-8.14,6.92-.05,3.86,3.52,7.02,7.96,7.06Z"/>
        <path class="cls-14" d="M413.98,256.41c3.86.03,7.03-2.66,7.07-6.01.04-3.35-3.06-6.09-6.92-6.13-3.86-.03-7.03,2.66-7.07,6.01-.04,3.35,3.06,6.1,6.92,6.13Z"/>
        <path class="cls-14" d="M435.18,255.62c3.25.03,5.91-2.23,5.94-5.05.04-2.82-2.57-5.12-5.81-5.15-3.25-.03-5.91,2.23-5.94,5.05-.04,2.82,2.57,5.12,5.81,5.15Z"/>
        <path class="cls-14" d="M456.39,254.79c2.6.02,4.72-1.79,4.75-4.04.03-2.25-2.05-4.1-4.65-4.12-2.6-.02-4.72,1.78-4.75,4.04-.03,2.25,2.05,4.1,4.65,4.12Z"/>
        <path class="cls-14" d="M477.6,253.95c1.95.02,3.54-1.34,3.56-3.03.02-1.69-1.54-3.07-3.49-3.09-1.95-.02-3.54,1.34-3.56,3.03-.02,1.69,1.54,3.07,3.49,3.09Z"/>
        <path class="cls-14" d="M498.82,252.51c.91,0,1.65-.63,1.66-1.41,0-.79-.72-1.43-1.63-1.44-.91,0-1.65.63-1.66,1.41-.01.79.72,1.43,1.63,1.44Z"/>
        <path class="cls-14" d="M32.28,265.65c.16,0,.3-.11.3-.25,0-.14-.13-.26-.29-.26-.16,0-.3.11-.3.25,0,.14.13.26.29.26Z"/>
        <path class="cls-14" d="M53.46,267.83c1.43.01,2.6-.98,2.61-2.22.01-1.24-1.13-2.25-2.56-2.27-1.43-.01-2.6.98-2.61,2.22-.02,1.24,1.13,2.25,2.56,2.27Z"/>
        <path class="cls-14" d="M74.64,269.08c2.11.02,3.84-1.45,3.86-3.28.02-1.83-1.67-3.33-3.78-3.35-2.11-.02-3.84,1.45-3.86,3.28-.02,1.83,1.67,3.33,3.78,3.35Z"/>
        <path class="cls-14" d="M95.82,270.24c2.73.02,4.96-1.88,4.99-4.24.03-2.36-2.16-4.3-4.88-4.33-2.73-.02-4.96,1.87-4.99,4.24s2.16,4.3,4.88,4.33Z"/>
        <path class="cls-14" d="M117.01,271.34c3.31.03,6.03-2.28,6.06-5.15.04-2.87-2.62-5.22-5.93-5.25-3.31-.03-6.03,2.28-6.06,5.15-.04,2.87,2.62,5.22,5.93,5.25Z"/>
        <path class="cls-14" d="M138.2,272.39c3.86.03,7.03-2.66,7.07-6.01.04-3.35-3.06-6.09-6.92-6.13-3.86-.03-7.03,2.65-7.07,6.01-.04,3.35,3.06,6.09,6.92,6.13Z"/>
        <path class="cls-14" d="M159.38,273.34c4.35.04,7.92-2.99,7.96-6.76.04-3.77-3.44-6.86-7.79-6.9-4.35-.04-7.91,2.99-7.96,6.76-.05,3.77,3.44,6.86,7.79,6.9Z"/>
        <path class="cls-14" d="M180.57,274.14c4.74.04,8.62-3.26,8.67-7.37.05-4.11-3.75-7.48-8.49-7.52-4.74-.04-8.62,3.26-8.67,7.37-.05,4.11,3.75,7.48,8.49,7.52Z"/>
        <path class="cls-14" d="M201.76,274.83c5.06.04,9.21-3.48,9.27-7.87.06-4.39-4.01-7.99-9.07-8.04-5.06-.04-9.21,3.48-9.27,7.88-.05,4.39,4.01,7.99,9.07,8.03Z"/>
        <path class="cls-14" d="M222.95,275.32c5.26.05,9.57-3.62,9.63-8.18.06-4.56-4.16-8.3-9.42-8.34s-9.57,3.62-9.63,8.18c-.06,4.56,4.16,8.3,9.42,8.34Z"/>
        <path class="cls-14" d="M244.14,275.71c5.39.05,9.8-3.7,9.86-8.38.06-4.67-4.26-8.5-9.65-8.55-5.39-.05-9.8,3.71-9.86,8.38-.06,4.67,4.26,8.5,9.65,8.55Z"/>
        <path class="cls-14" d="M265.34,276c5.45.05,9.92-3.75,9.98-8.48.06-4.73-4.31-8.6-9.77-8.65-5.45-.05-9.92,3.75-9.98,8.48-.06,4.73,4.31,8.6,9.77,8.65Z"/>
        <path class="cls-14" d="M286.54,276.13c5.42.05,9.86-3.73,9.92-8.43.06-4.7-4.29-8.55-9.71-8.6-5.42-.05-9.86,3.73-9.92,8.43-.06,4.7,4.29,8.55,9.71,8.6Z"/>
        <path class="cls-14" d="M307.74,276.11c5.29.05,9.63-3.64,9.69-8.23.06-4.59-4.19-8.35-9.48-8.39-5.29-.05-9.63,3.64-9.69,8.23-.06,4.59,4.19,8.35,9.48,8.4Z"/>
        <path class="cls-14" d="M328.93,275.99c5.1.04,9.28-3.5,9.33-7.92.06-4.42-4.03-8.04-9.13-8.09-5.1-.04-9.27,3.5-9.33,7.93-.06,4.42,4.03,8.04,9.13,8.09Z"/>
        <path class="cls-14" d="M350.14,275.67c4.77.04,8.68-3.28,8.73-7.42.05-4.14-3.77-7.53-8.55-7.57-4.77-.04-8.68,3.28-8.73,7.42-.05,4.14,3.77,7.53,8.55,7.57Z"/>
        <path class="cls-14" d="M371.34,275.24c4.38.04,7.97-3.01,8.02-6.81.05-3.8-3.46-6.91-7.85-6.95-4.38-.04-7.97,3.01-8.02,6.81-.05,3.8,3.47,6.91,7.85,6.95Z"/>
        <path class="cls-14" d="M392.55,274.66c3.9.03,7.09-2.68,7.13-6.06.04-3.38-3.08-6.14-6.98-6.18-3.89-.03-7.09,2.68-7.13,6.06-.04,3.38,3.08,6.15,6.98,6.18Z"/>
        <path class="cls-14" d="M413.75,273.98c3.35.03,6.09-2.3,6.12-5.2.04-2.9-2.64-5.28-5.99-5.3-3.34-.03-6.08,2.3-6.12,5.2-.04,2.9,2.64,5.28,5.99,5.31Z"/>
        <path class="cls-14" d="M434.96,273.25c2.76.02,5.02-1.9,5.05-4.29.03-2.39-2.18-4.35-4.94-4.38-2.76-.02-5.02,1.9-5.05,4.29-.03,2.39,2.18,4.35,4.94,4.38Z"/>
        <path class="cls-14" d="M456.17,272.46c2.14.02,3.9-1.47,3.92-3.33.02-1.86-1.69-3.38-3.84-3.4-2.14-.02-3.9,1.47-3.92,3.33-.02,1.86,1.7,3.38,3.84,3.4Z"/>
        <path class="cls-14" d="M477.38,271.63c1.49.01,2.72-1.03,2.73-2.32.02-1.29-1.18-2.36-2.67-2.37-1.49-.01-2.72,1.03-2.73,2.32-.02,1.3,1.18,2.36,2.68,2.37Z"/>
        <path class="cls-14" d="M498.6,269.77c.19,0,.36-.13.36-.3s-.15-.31-.35-.31c-.19,0-.35.13-.36.3,0,.17.16.31.35.31Z"/>
        <path class="cls-14" d="M53.25,284.63c.42,0,.77-.29.77-.66,0-.37-.33-.67-.76-.67s-.77.29-.77.66.34.67.76.67Z"/>
        <path class="cls-14" d="M74.42,286.65c1.59.01,2.89-1.09,2.91-2.47.02-1.38-1.26-2.51-2.85-2.52-1.59-.01-2.89,1.09-2.91,2.47s1.26,2.51,2.85,2.52Z"/>
        <path class="cls-14" d="M95.61,287.71c2.14.02,3.9-1.47,3.92-3.33.02-1.86-1.7-3.38-3.84-3.4-2.14-.02-3.9,1.47-3.92,3.33-.02,1.86,1.69,3.38,3.84,3.4Z"/>
        <path class="cls-14" d="M116.79,288.76c2.69.02,4.9-1.85,4.93-4.19.03-2.34-2.13-4.25-4.83-4.27-2.69-.02-4.9,1.85-4.93,4.19-.03,2.34,2.13,4.25,4.83,4.27Z"/>
        <path class="cls-14" d="M137.98,289.76c3.22.03,5.85-2.21,5.88-5,.04-2.79-2.54-5.07-5.75-5.1-3.22-.03-5.85,2.21-5.88,5-.04,2.79,2.54,5.07,5.75,5.1Z"/>
        <path class="cls-14" d="M159.16,290.66c3.67.03,6.68-2.52,6.72-5.7.04-3.18-2.9-5.79-6.57-5.82-3.67-.03-6.67,2.52-6.71,5.7-.04,3.18,2.9,5.79,6.57,5.82Z"/>
        <path class="cls-14" d="M180.35,291.45c4.06.03,7.38-2.79,7.43-6.31.04-3.52-3.21-6.4-7.27-6.44-4.06-.03-7.38,2.79-7.42,6.31-.04,3.52,3.21,6.4,7.27,6.44Z"/>
        <path class="cls-14" d="M201.54,292.15c4.38.04,7.97-3.01,8.02-6.81.05-3.8-3.46-6.91-7.85-6.95-4.38-.04-7.97,3.01-8.02,6.81-.04,3.8,3.47,6.91,7.85,6.95Z"/>
        <path class="cls-14" d="M222.73,292.69c4.61.04,8.39-3.17,8.44-7.17.05-4-3.65-7.27-8.26-7.31-4.61-.04-8.39,3.17-8.44,7.17-.05,4,3.65,7.27,8.26,7.31Z"/>
        <path class="cls-14" d="M243.93,293.08c4.74.04,8.62-3.26,8.67-7.37.05-4.11-3.75-7.48-8.49-7.52-4.74-.04-8.62,3.26-8.67,7.37-.05,4.11,3.75,7.48,8.49,7.52Z"/>
        <path class="cls-14" d="M265.12,293.37c4.8.04,8.74-3.3,8.79-7.47.05-4.17-3.8-7.58-8.6-7.62-4.81-.04-8.74,3.3-8.79,7.47-.05,4.17,3.8,7.58,8.6,7.62Z"/>
        <path class="cls-14" d="M286.32,293.45c4.74.04,8.62-3.26,8.67-7.37.05-4.11-3.75-7.48-8.49-7.52-4.74-.04-8.62,3.26-8.67,7.37-.05,4.11,3.75,7.48,8.49,7.52Z"/>
        <path class="cls-14" d="M307.52,293.43c4.61.04,8.39-3.17,8.44-7.17.05-4-3.65-7.27-8.26-7.31-4.61-.04-8.39,3.17-8.44,7.17-.05,4,3.65,7.27,8.26,7.31Z"/>
        <path class="cls-14" d="M328.72,293.31c4.41.04,8.03-3.03,8.08-6.86.05-3.83-3.49-6.97-7.91-7-4.41-.04-8.03,3.03-8.08,6.86-.05,3.83,3.49,6.96,7.91,7Z"/>
        <path class="cls-14" d="M349.92,292.98c4.09.04,7.44-2.81,7.48-6.36.04-3.55-3.23-6.45-7.33-6.49-4.09-.03-7.44,2.81-7.49,6.36-.04,3.55,3.24,6.45,7.33,6.49Z"/>
        <path class="cls-14" d="M371.13,292.56c3.7.03,6.73-2.54,6.77-5.75.04-3.21-2.93-5.84-6.63-5.87-3.7-.03-6.73,2.54-6.77,5.76-.04,3.21,2.93,5.84,6.63,5.87Z"/>
        <path class="cls-14" d="M392.33,292.03c3.25.03,5.91-2.23,5.94-5.05.04-2.82-2.57-5.12-5.81-5.15-3.25-.03-5.91,2.23-5.94,5.05-.03,2.82,2.57,5.12,5.81,5.15Z"/>
        <path class="cls-14" d="M413.54,291.45c2.76.02,5.02-1.9,5.05-4.29.03-2.39-2.18-4.35-4.94-4.38-2.76-.03-5.02,1.9-5.05,4.29-.03,2.39,2.18,4.36,4.94,4.38Z"/>
        <path class="cls-14" d="M434.74,290.77c2.21.02,4.02-1.52,4.04-3.43.02-1.91-1.75-3.48-3.95-3.5-2.21-.02-4.02,1.52-4.04,3.43-.02,1.91,1.75,3.48,3.95,3.5Z"/>
        <path class="cls-14" d="M455.95,290.04c1.62.01,2.95-1.11,2.97-2.52s-1.28-2.56-2.91-2.58c-1.62-.01-2.95,1.12-2.97,2.52-.02,1.41,1.28,2.56,2.91,2.58Z"/>
        <path class="cls-14" d="M477.17,288.39c.46,0,.83-.31.83-.71,0-.39-.36-.72-.82-.72-.45,0-.83.31-.83.71,0,.39.36.72.81.72Z"/>
        <path class="cls-14" d="M74.21,303.2c.42,0,.77-.29.77-.66,0-.36-.33-.67-.76-.67-.42,0-.77.29-.77.66,0,.37.34.66.76.67Z"/>
        <path class="cls-14" d="M95.39,305.02c1.46.01,2.66-1.01,2.67-2.27.02-1.27-1.15-2.3-2.62-2.32-1.46-.01-2.66,1-2.67,2.27-.01,1.27,1.15,2.31,2.62,2.32Z"/>
        <path class="cls-14" d="M116.57,306.07c2.01.02,3.66-1.38,3.68-3.13.02-1.75-1.59-3.18-3.61-3.19-2.01-.02-3.66,1.38-3.68,3.13-.02,1.75,1.59,3.18,3.6,3.19Z"/>
        <path class="cls-14" d="M137.76,306.97c2.47.02,4.49-1.7,4.52-3.84.03-2.14-1.95-3.89-4.42-3.91-2.47-.02-4.49,1.7-4.52,3.84-.02,2.14,1.95,3.89,4.42,3.91Z"/>
        <path class="cls-14" d="M158.95,307.82c2.89.03,5.26-1.98,5.29-4.49.03-2.51-2.28-4.56-5.17-4.59-2.89-.02-5.26,1.99-5.29,4.49-.03,2.51,2.29,4.56,5.18,4.58Z"/>
        <path class="cls-14" d="M180.14,308.57c3.25.03,5.91-2.23,5.94-5.05.04-2.82-2.57-5.12-5.81-5.15-3.25-.03-5.91,2.23-5.94,5.05-.04,2.82,2.57,5.12,5.81,5.15Z"/>
        <path class="cls-14" d="M201.33,309.21c3.54.03,6.44-2.43,6.47-5.5.04-3.07-2.8-5.58-6.33-5.61-3.54-.03-6.44,2.43-6.48,5.5-.04,3.07,2.8,5.58,6.34,5.61Z"/>
        <path class="cls-14" d="M222.52,309.75c3.76.03,6.85-2.59,6.89-5.85.04-3.27-2.98-5.94-6.74-5.97-3.77-.03-6.85,2.59-6.89,5.85-.04,3.27,2.98,5.94,6.74,5.97Z"/>
        <path class="cls-14" d="M243.71,310.14c3.9.03,7.09-2.68,7.13-6.06.04-3.38-3.08-6.15-6.98-6.18-3.9-.03-7.09,2.68-7.13,6.06-.04,3.38,3.08,6.15,6.98,6.18Z"/>
        <path class="cls-14" d="M264.91,310.38c3.93.03,7.15-2.7,7.19-6.11.04-3.41-3.11-6.2-7.04-6.23-3.93-.04-7.15,2.7-7.19,6.11-.04,3.41,3.11,6.2,7.03,6.23Z"/>
        <path class="cls-14" d="M286.11,310.51c3.9.03,7.09-2.68,7.13-6.06.04-3.38-3.08-6.15-6.98-6.18-3.9-.03-7.09,2.68-7.13,6.06-.04,3.38,3.08,6.14,6.98,6.18Z"/>
        <path class="cls-14" d="M307.3,310.49c3.77.03,6.85-2.59,6.89-5.85.04-3.27-2.98-5.94-6.74-5.98-3.77-.03-6.85,2.59-6.89,5.85-.04,3.27,2.98,5.94,6.74,5.98Z"/>
        <path class="cls-14" d="M328.51,310.37c3.57.03,6.49-2.46,6.54-5.55.04-3.1-2.82-5.63-6.4-5.66-3.57-.03-6.49,2.45-6.53,5.55-.04,3.1,2.82,5.63,6.4,5.67Z"/>
        <path class="cls-14" d="M349.71,310.1c3.28.03,5.97-2.26,6-5.1.03-2.84-2.59-5.17-5.87-5.2-3.28-.03-5.97,2.25-6,5.1-.04,2.85,2.59,5.17,5.87,5.2Z"/>
        <path class="cls-14" d="M370.91,309.72c2.92.03,5.32-2.01,5.35-4.54.03-2.53-2.31-4.61-5.23-4.63-2.92-.03-5.31,2.01-5.35,4.54-.03,2.53,2.31,4.61,5.23,4.63Z"/>
        <path class="cls-14" d="M392.12,309.24c2.5.02,4.55-1.72,4.58-3.89.03-2.17-1.98-3.94-4.48-3.97-2.5-.02-4.55,1.72-4.57,3.89-.03,2.17,1.98,3.94,4.48,3.96Z"/>
        <path class="cls-14" d="M413.32,308.72c2.05.02,3.72-1.41,3.74-3.18.02-1.77-1.62-3.23-3.66-3.25-2.04-.02-3.72,1.41-3.74,3.18-.02,1.78,1.62,3.23,3.66,3.25Z"/>
        <path class="cls-14" d="M434.53,308.08c1.53.01,2.78-1.05,2.79-2.37.02-1.32-1.21-2.41-2.73-2.42-1.53-.01-2.77,1.05-2.79,2.37-.02,1.32,1.21,2.41,2.73,2.42Z"/>
        <path class="cls-14" d="M455.74,306.59c.45,0,.83-.31.83-.71,0-.39-.36-.72-.81-.72-.45,0-.83.31-.83.71,0,.39.36.72.81.72Z"/>
        <path class="cls-14" d="M95.18,321.42c.19,0,.36-.13.36-.3,0-.17-.15-.31-.35-.31-.19,0-.35.13-.36.3,0,.17.16.31.35.31Z"/>
        <path class="cls-14" d="M116.36,322.88c1.01,0,1.83-.69,1.84-1.56.01-.87-.8-1.59-1.8-1.6-1.01,0-1.83.69-1.84,1.56-.01.87.8,1.59,1.8,1.6Z"/>
        <path class="cls-14" d="M137.55,324.14c1.69.02,3.07-1.16,3.09-2.63.02-1.46-1.33-2.66-3.02-2.68-1.69-.02-3.07,1.16-3.09,2.63-.02,1.46,1.34,2.66,3.02,2.68Z"/>
        <path class="cls-14" d="M158.74,324.93c2.08.02,3.78-1.43,3.8-3.23.02-1.8-1.64-3.28-3.72-3.3-2.08-.02-3.78,1.43-3.8,3.23-.02,1.8,1.64,3.28,3.72,3.3Z"/>
        <path class="cls-14" d="M179.92,325.58c2.37.02,4.31-1.63,4.34-3.69.03-2.05-1.88-3.74-4.25-3.76-2.37-.02-4.31,1.63-4.34,3.68-.03,2.05,1.87,3.74,4.24,3.76Z"/>
        <path class="cls-14" d="M201.12,326.17c2.63.02,4.78-1.81,4.81-4.09.03-2.28-2.08-4.15-4.71-4.17-2.63-.02-4.78,1.81-4.81,4.09-.03,2.28,2.08,4.15,4.71,4.17Z"/>
        <path class="cls-14" d="M222.31,326.66c2.83.03,5.14-1.94,5.17-4.39.03-2.45-2.23-4.46-5.06-4.48-2.82-.02-5.14,1.94-5.17,4.39-.03,2.45,2.23,4.46,5.06,4.48Z"/>
        <path class="cls-14" d="M243.5,327.05c2.95.03,5.37-2.03,5.41-4.59.03-2.56-2.34-4.66-5.29-4.69-2.96-.03-5.38,2.03-5.41,4.59-.03,2.56,2.34,4.66,5.29,4.69Z"/>
        <path class="cls-14" d="M264.7,327.34c3.02.03,5.49-2.08,5.52-4.69.03-2.62-2.39-4.76-5.41-4.79-3.02-.03-5.49,2.07-5.52,4.69-.03,2.62,2.39,4.76,5.41,4.79Z"/>
        <path class="cls-14" d="M285.89,327.42c2.96.02,5.38-2.03,5.41-4.59.03-2.56-2.34-4.66-5.29-4.69-2.95-.02-5.37,2.03-5.41,4.59-.03,2.56,2.34,4.66,5.29,4.69Z"/>
        <path class="cls-14" d="M307.09,327.45c2.86.03,5.2-1.96,5.23-4.44.03-2.48-2.26-4.51-5.12-4.53-2.86-.03-5.2,1.96-5.23,4.44-.03,2.48,2.26,4.51,5.12,4.53Z"/>
        <path class="cls-14" d="M328.29,327.33c2.66.02,4.84-1.83,4.87-4.14.03-2.31-2.11-4.2-4.77-4.22-2.66-.02-4.84,1.83-4.87,4.14-.03,2.31,2.1,4.2,4.77,4.22Z"/>
        <path class="cls-14" d="M349.5,327.11c2.4.02,4.37-1.65,4.4-3.73.03-2.08-1.9-3.79-4.3-3.81-2.4-.02-4.37,1.65-4.4,3.73-.03,2.08,1.9,3.79,4.3,3.81Z"/>
        <path class="cls-14" d="M370.7,326.84c2.11.02,3.84-1.45,3.86-3.28.02-1.83-1.67-3.33-3.78-3.35-2.11-.02-3.84,1.45-3.86,3.28-.02,1.83,1.67,3.33,3.78,3.35Z"/>
        <path class="cls-14" d="M391.9,326.41c1.72.02,3.13-1.18,3.15-2.67.02-1.49-1.36-2.71-3.08-2.73-1.72-.02-3.13,1.18-3.15,2.68-.02,1.49,1.36,2.71,3.08,2.73Z"/>
        <path class="cls-14" d="M413.11,325.52c1.04,0,1.89-.71,1.9-1.61s-.82-1.64-1.86-1.65c-1.04,0-1.89.71-1.9,1.61-.01.9.82,1.64,1.86,1.65Z"/>
        <path class="cls-14" d="M434.32,324.38c.19,0,.35-.14.36-.3,0-.17-.15-.31-.35-.31-.19,0-.36.13-.36.3,0,.17.15.31.35.31Z"/>
        <path class="cls-14" d="M137.34,340.33c.29,0,.53-.2.53-.45,0-.25-.23-.46-.52-.46-.29,0-.53.2-.54.45s.23.46.52.46Z"/>
        <path class="cls-14" d="M158.53,341.43c.88,0,1.59-.6,1.61-1.36,0-.76-.69-1.38-1.57-1.39-.88,0-1.59.6-1.6,1.36,0,.76.69,1.38,1.57,1.39Z"/>
        <path class="cls-14" d="M179.71,342.43c1.39.01,2.54-.96,2.55-2.17.01-1.21-1.1-2.2-2.5-2.22-1.4-.01-2.54.96-2.55,2.17-.02,1.21,1.1,2.2,2.5,2.21Z"/>
        <path class="cls-14" d="M200.9,343.18c1.75.02,3.19-1.2,3.21-2.73.02-1.52-1.39-2.77-3.14-2.78-1.75-.02-3.19,1.2-3.21,2.72-.02,1.52,1.39,2.77,3.14,2.78Z"/>
        <path class="cls-14" d="M222.1,343.62c1.92.02,3.49-1.32,3.51-2.98s-1.51-3.02-3.43-3.04c-1.92-.02-3.48,1.32-3.5,2.98-.02,1.66,1.51,3.02,3.43,3.04Z"/>
        <path class="cls-14" d="M243.29,343.96c2.01.02,3.66-1.38,3.68-3.13.02-1.74-1.59-3.17-3.6-3.19-2.01-.02-3.66,1.38-3.68,3.13-.02,1.75,1.59,3.18,3.6,3.19Z"/>
        <path class="cls-14" d="M264.49,344.2c2.05.02,3.72-1.41,3.74-3.18.02-1.77-1.62-3.23-3.66-3.25-2.04-.02-3.72,1.41-3.74,3.18-.02,1.77,1.62,3.23,3.66,3.25Z"/>
        <path class="cls-14" d="M285.68,344.33c2.01.02,3.66-1.38,3.68-3.13.02-1.75-1.59-3.18-3.6-3.19-2.01-.02-3.66,1.38-3.68,3.13s1.59,3.18,3.6,3.19Z"/>
        <path class="cls-14" d="M306.88,344.36c1.92.02,3.49-1.32,3.51-2.98.02-1.66-1.51-3.02-3.43-3.04-1.92-.02-3.48,1.32-3.51,2.98-.02,1.66,1.52,3.02,3.43,3.04Z"/>
        <path class="cls-14" d="M328.08,344.29c1.75.02,3.19-1.21,3.21-2.73.02-1.52-1.38-2.76-3.14-2.78-1.75-.02-3.19,1.2-3.21,2.73-.02,1.52,1.39,2.77,3.14,2.78Z"/>
        <path class="cls-14" d="M349.28,343.97c1.43.01,2.6-.98,2.61-2.22.02-1.24-1.13-2.25-2.56-2.27-1.43-.01-2.6.98-2.62,2.22-.01,1.24,1.13,2.25,2.56,2.27Z"/>
        <path class="cls-14" d="M370.49,343.29c.88,0,1.6-.6,1.61-1.36,0-.76-.69-1.38-1.57-1.39-.88,0-1.59.6-1.6,1.36-.01.76.69,1.38,1.57,1.39Z"/>
        <path class="cls-14" d="M391.7,342.55c.29,0,.53-.2.54-.45,0-.25-.23-.46-.52-.46-.29,0-.53.2-.53.45,0,.25.23.46.52.46Z"/>
        <path class="cls-14" d="M179.51,358.68s.06-.02.06-.05c0-.03-.03-.05-.06-.05s-.06.02-.06.05.03.05.06.05Z"/>
        <path class="cls-14" d="M200.7,359.12c.19,0,.35-.13.36-.3,0-.17-.15-.31-.35-.31s-.35.13-.36.3c0,.17.15.31.35.31Z"/>
        <path class="cls-14" d="M221.9,359.66c.42,0,.77-.29.77-.66,0-.37-.34-.67-.76-.67-.42,0-.77.29-.77.66,0,.37.33.67.76.67Z"/>
        <path class="cls-14" d="M243.09,360c.52,0,.94-.36.95-.81,0-.45-.41-.82-.93-.82-.52,0-.94.36-.95.81,0,.45.41.82.93.82Z"/>
        <path class="cls-14" d="M264.28,360.24c.55,0,1-.38,1.01-.86,0-.48-.44-.87-.99-.87-.55,0-1,.38-1.01.86,0,.48.44.87.99.87Z"/>
        <path class="cls-14" d="M285.48,360.37c.52,0,.94-.36.95-.81,0-.45-.41-.82-.93-.82s-.94.36-.95.81c0,.45.41.82.93.82Z"/>
        <path class="cls-14" d="M306.68,360.4c.42,0,.77-.29.77-.66,0-.37-.33-.67-.76-.67s-.77.29-.77.66c0,.37.34.67.76.67Z"/>
        <path class="cls-14" d="M327.88,360.23c.2,0,.35-.13.36-.3,0-.17-.15-.31-.35-.31-.2,0-.35.14-.36.3,0,.17.15.31.35.31Z"/>
        <path class="cls-14" d="M349.08,360.16s.06-.02.06-.05c0-.03-.02-.05-.06-.05-.03,0-.06.02-.06.05,0,.03.03.05.06.05Z"/>
      </g>
      <path d="M280.75,15.05c0,85.02-96.52,107.85-183.24,43.34C184.23,122.9,132.87,180.7,0,168.11c132.87,12.58,150.71,78.3,33.86,124.78,116.85-46.48,195.53-3.58,149.38,81.45,46.15-85.02,148.86-85.02,195.01,0-46.15-85.02,32.54-127.92,149.38-81.45-116.85-46.48-99.01-112.2,33.86-124.78-132.87,12.58-184.23-45.22-97.5-109.73-86.73,64.51-183.25,41.69-183.25-43.34Z"/>
      <polygon class="cls-12" points="525.96 243.3 441.75 212.17 466.24 217.65 521.1 228.28 525.96 243.3"/>
      <polygon class="cls-12" points="56.75 84.01 115.94 131.26 101.5 124.98 36.87 92.59 56.75 84.01"/>
      <path class="cls-15" d="M356.1,331.31c-21.46-19.53-47.98-30.45-75.97-30.45s-54.51,10.93-75.96,30.45c.93-14.24-2.35-27.02-9.88-37.59-13.6-19.08-39.71-29.59-73.54-29.59-8.8,0-18.06.71-27.66,2.13,19.61-15.82,28.68-32.83,25.67-49.52-3.32-18.43-20.46-33.49-48.97-43.97,39.62-5.16,66.38-19.46,75.25-40.95,5.48-13.3,3.51-27.9-5.49-42.97,19.29,7.68,38.75,11.72,57.27,11.72h.02c39.37,0,69.47-18.2,83.3-47.92,13.83,29.72,43.93,47.92,83.28,47.92,18.53,0,38-4.04,57.28-11.72-9,15.07-10.99,29.68-5.49,42.98,8.87,21.5,35.62,35.79,75.25,40.95-28.49,10.48-45.64,25.54-48.97,43.97-3,16.69,6.07,33.7,25.67,49.52-9.6-1.42-18.86-2.13-27.65-2.13-33.82,0-59.93,10.51-73.53,29.59-7.53,10.58-10.81,23.35-9.88,37.59Z"/>
      <polygon class="cls-12" points="405.21 33.58 361.71 132.97 427.8 31.4 405.21 33.58"/>
      <polygon class="cls-12" points="30.65 231.58 141.03 213.26 33.55 220.23 30.65 231.58"/>
    </g>
    <g>
      <g>
        <rect class="cls-12" x="217.25" y="48.92" width="8.3" height="13.78" transform="translate(-5.47 81.56) rotate(-20.62)"/>
        <path class="cls-12" d="M221.29,50.62l-3.23,1.22c-7.7,2.9-16.33-1.01-19.23-8.71l-5.57-14.81,3.73-1.4,5.57,14.81c2.13,5.65,8.45,8.52,14.1,6.39l3.23-1.22c5.65-2.13,8.52-8.45,6.39-14.1l-5.57-14.81,3.73-1.4,5.57,14.81c2.9,7.7-1.01,16.33-8.71,19.23Z"/>
        <rect class="cls-12" x="213.13" y="60.09" width="21.15" height="3.67" transform="translate(-7.47 82.76) rotate(-20.62)"/>
      </g>
      <path class="cls-12" d="M202.34.57l-3.03,1.14c-4.61,1.74-6.96,6.93-5.23,11.54l4.55,12.1.62,1.65,4.55,12.1c1.74,4.61,6.93,6.96,11.54,5.23l3.03-1.14c4.61-1.74,6.96-6.93,5.23-11.54l-4.55-12.1-.62-1.65-4.55-12.1c-1.74-4.61-6.93-6.96-11.54-5.23ZM200.29,24.73l-4.55-12.1c-1.4-3.71.49-7.87,4.2-9.27l3.03-1.14c3.71-1.4,7.87.49,9.27,4.2l4.55,12.1-16.5,6.21Z"/>
      <g>
        <path class="cls-12" d="M200.01,8.51c.26.68-.09,1.44-.77,1.7s-1.44-.09-1.7-.77.09-1.44.77-1.7,1.44.09,1.7.77Z"/>
        <path class="cls-12" d="M204.39,6.86c.26.68-.09,1.44-.77,1.7s-1.44-.09-1.7-.77.09-1.44.77-1.7,1.44.09,1.7.77Z"/>
        <path class="cls-12" d="M208.77,5.22c.26.68-.09,1.44-.77,1.7s-1.44-.09-1.7-.77.09-1.44.77-1.7,1.44.09,1.7.77Z"/>
        <path class="cls-12" d="M202.05,13.94c.26.68-.09,1.44-.77,1.7s-1.44-.09-1.7-.77.09-1.44.77-1.7,1.44.09,1.7.77Z"/>
        <path class="cls-12" d="M206.43,12.29c.26.68-.09,1.44-.77,1.7s-1.44-.09-1.7-.77.09-1.44.77-1.7,1.44.09,1.7.77Z"/>
        <path class="cls-12" d="M210.81,10.64c.26.68-.09,1.44-.77,1.7s-1.44-.09-1.7-.77.09-1.44.77-1.7,1.44.09,1.7.77Z"/>
        <path class="cls-12" d="M204.09,19.36c.26.68-.09,1.44-.77,1.7s-1.44-.09-1.7-.77.09-1.44.77-1.7,1.44.09,1.7.77Z"/>
        <path class="cls-12" d="M208.47,17.71c.26.68-.09,1.44-.77,1.7s-1.44-.09-1.7-.77.09-1.44.77-1.7,1.44.09,1.7.77Z"/>
        <path class="cls-12" d="M212.85,16.06c.26.68-.09,1.44-.77,1.7s-1.44-.09-1.7-.77.09-1.44.77-1.7,1.44.09,1.7.77Z"/>
      </g>
    </g>
    <path class="cls-13" d="M337.16,33.11c-.5,1.55,1.05,3.2,2.22,4.37s2.82,2.72,4.37,2.22c2.29-.74,4.24-2.95,4.97-5.24.49-1.53-.56-3.11-1.88-4.44s-2.91-2.37-4.44-1.88c-2.29.73-4.5,2.68-5.24,4.97h0ZM349.63,33.21c5.63.63,12.25,2.97,14.76,4.53.55.35.88,1.67.55,2.27-2.34,4.3-10.16,11.41-15.75,13.74-.74.31-2.06.19-2.55-.41-2.3-2.84-3.94-7.99-4.36-12.85.55.15,1.13.17,1.72-.02,2.56-.83,4.69-3.24,5.5-5.77.16-.5.19-1,.13-1.49h0ZM343.64,27.23c-.63-5.63-2.97-12.25-4.53-14.76-.35-.56-1.67-.88-2.27-.55-4.29,2.34-11.41,10.16-13.74,15.75-.31.74-.19,2.06.41,2.55,2.84,2.3,7.99,3.94,12.85,4.36-.15-.55-.17-1.13.02-1.72.83-2.56,3.24-4.69,5.77-5.5.5-.16,1-.19,1.49-.13h0Z"/>
  </g>
  <g id="_文字_x2461_" data-name="文字_x2461_">
    <path d="M148.12,187.29v-115.05h55.09c9.42,0,16.82,2.67,22.21,8.01,5.39,5.34,8.08,12.5,8.08,21.5,0,8.16-1.96,14.23-5.89,18.21-3.92,3.98-8.97,6.17-15.15,6.59v.94c3.87,0,7.77.94,11.69,2.83,3.92,1.88,7.19,4.84,9.81,8.87,2.61,4.03,3.92,9.13,3.92,15.3s-1.31,11.46-3.92,16.48c-2.62,5.02-6.18,9-10.67,11.93-4.5,2.93-9.52,4.39-15.07,4.39h-60.11ZM197.72,119.8c3.56,0,6.33-.99,8.32-2.98,1.99-1.99,2.98-4.76,2.98-8.32v-4.87c0-3.45-1-6.2-2.98-8.24-1.99-2.04-4.76-3.06-8.32-3.06h-25.74v27.47h25.74ZM201.49,167.2c3.66,0,6.51-1.02,8.55-3.06,2.04-2.04,3.06-4.84,3.06-8.4v-5.34c0-3.56-1.02-6.3-3.06-8.24-2.04-1.93-4.89-2.9-8.55-2.9h-29.51v27.94h29.51Z"/>
    <path d="M250.63,179c-4.07-2.48-6.71-6.41-7.92-11.79-1.41-6.25-.22-11.47,3.58-15.65,3.8-4.18,9.88-7.22,18.24-9.1l9.79-2.21-.89-3.96c-1.5-6.68-5.74-9.23-12.71-7.66-3.16.71-5.63,1.95-7.43,3.73-1.8,1.77-3.21,3.95-4.25,6.54l-11.61-6.36c1.65-4.28,4.17-7.84,7.54-10.67,3.37-2.83,8.03-4.92,13.97-6.26,8.36-1.89,15.15-1.43,20.37,1.36,5.22,2.8,8.63,7.75,10.23,14.87l6.15,27.29,5.72-1.29,2.85,12.66-9.02,2.03c-3.08.69-5.85.32-8.29-1.14-2.45-1.45-4.26-3.74-5.42-6.87l-.66.15c-.08,4.1-1.46,7.54-4.15,10.3-2.69,2.76-6.35,4.67-10.97,5.71-6.02,1.36-11.06.79-15.13-1.69ZM276.47,164.1c1.73-1.9,2.29-4.22,1.67-6.96l-1.72-7.65-8.69,1.96c-3.52.79-6.06,2.03-7.61,3.7-1.55,1.67-2.06,3.69-1.53,6.05l.4,1.77c1.05,4.65,4.4,6.35,10.05,5.07,3.23-.73,5.71-2.04,7.44-3.95Z"/>
    <path d="M320.62,184.91l-16.41-3.09,16.23-86.14,16.41,3.09-9.67,51.33.55.1,9.87-9.73,15.68-12.54,18.18,3.43-25.03,19.51,15.53,41.84-19.51-3.68-9.11-29.04-9.41,7.3-3.32,17.63Z"/>
    <path d="M385.67,182.79c-4.07-3.64-6.78-9.31-8.12-17.02l-6.68-38.34,16.45-2.87,6.45,37.01c.72,4.15,1.98,7.1,3.77,8.85,1.79,1.75,4.28,2.35,7.47,1.79s5.73-1.84,7.63-3.85c1.9-2.01,2.59-4.5,2.08-7.46l-6.95-39.9,16.45-2.87,10.65,61.13-16.45,2.87-1.78-10.22-.56.1c-.64,3.78-2.16,6.96-4.58,9.56-2.41,2.6-5.88,4.29-10.4,5.07-6.22,1.08-11.37-.19-15.44-3.84Z"/>
    <path d="M171.22,315.63h-22.34v-114h25.94l32.66,55.83,10.94,23.17h.63v-79.01h22.34v114h-25.94l-32.66-55.83-11.09-23.17h-.47v79.01Z"/>
    <path d="M259.11,293.43c-3.95-2.67-6.41-6.71-7.37-12.14-1.12-6.31.31-11.47,4.29-15.47,3.99-4,10.2-6.76,18.64-8.26l9.88-1.76-.71-4c-1.2-6.74-5.32-9.48-12.35-8.23-3.18.57-5.71,1.7-7.59,3.38-1.88,1.69-3.39,3.8-4.54,6.34l-11.31-6.88c1.85-4.2,4.52-7.64,8.02-10.31,3.5-2.67,8.24-4.54,14.24-5.61,8.44-1.5,15.2-.74,20.29,2.29,5.08,3.03,8.27,8.14,9.54,15.32l4.9,27.55,5.78-1.03,2.27,12.77-9.11,1.62c-3.11.55-5.85.05-8.23-1.51-2.38-1.56-4.08-3.93-5.1-7.11l-.67.12c-.26,4.1-1.81,7.46-4.62,10.1-2.82,2.64-6.55,4.38-11.22,5.21-6.07,1.08-11.08.29-15.03-2.38ZM285.6,279.72c1.81-1.82,2.48-4.11,1.99-6.87l-1.37-7.72-8.77,1.56c-3.55.63-6.14,1.75-7.77,3.34-1.63,1.6-2.23,3.59-1.8,5.97l.32,1.79c.84,4.7,4.1,6.54,9.81,5.52,3.26-.58,5.79-1.78,7.61-3.6Z"/>
    <path d="M340.33,298.14l-18.81-6.37.56-65.32,15.6,5.28-.66,26.93-1.72,23,.96.33,12.72-19.27,15.62-21.87,14.96,5.07-39.24,52.22Z"/>
    <path d="M409.19,291.01l-16.4,3.12-11.61-60.95,16.4-3.12,11.61,60.95Z"/>
    <path d="M391.93,228.62l-5.36,1.02c-3.05.58-5.99-1.42-6.58-4.47l-1.01-5.3c-.58-3.05,1.42-5.99,4.47-6.58l5.36-1.02c3.05-.58,5.99,1.42,6.58,4.47l1.01,5.3c.58,3.05-1.42,5.99-4.47,6.58Z"/>
    <path class="cls-8" d="M137.89,188.29v-115.05h55.09c9.42,0,16.82,2.67,22.21,8.01,5.39,5.34,8.08,12.5,8.08,21.5,0,8.16-1.96,14.23-5.89,18.21-3.92,3.98-8.97,6.17-15.15,6.59v.94c3.87,0,7.77.94,11.69,2.83,3.92,1.88,7.19,4.84,9.81,8.87,2.61,4.03,3.92,9.13,3.92,15.3s-1.31,11.46-3.92,16.48c-2.62,5.02-6.18,9-10.67,11.93-4.5,2.93-9.52,4.39-15.07,4.39h-60.11ZM187.49,120.8c3.56,0,6.33-.99,8.32-2.98,1.99-1.99,2.98-4.76,2.98-8.32v-4.87c0-3.45-1-6.2-2.98-8.24-1.99-2.04-4.76-3.06-8.32-3.06h-25.74v27.47h25.74ZM191.25,168.2c3.66,0,6.51-1.02,8.55-3.06s3.06-4.84,3.06-8.4v-5.34c0-3.56-1.02-6.3-3.06-8.24-2.04-1.93-4.89-2.9-8.55-2.9h-29.51v27.94h29.51Z"/>
    <path class="cls-11" d="M239.43,180.09c-4.07-2.48-6.71-6.41-7.92-11.79-1.41-6.25-.22-11.47,3.58-15.65,3.8-4.18,9.88-7.22,18.24-9.1l9.79-2.21-.89-3.96c-1.5-6.68-5.74-9.23-12.71-7.66-3.16.71-5.63,1.95-7.43,3.73-1.8,1.77-3.21,3.95-4.25,6.54l-11.61-6.36c1.65-4.28,4.17-7.84,7.54-10.67,3.37-2.83,8.03-4.92,13.97-6.26,8.36-1.89,15.15-1.43,20.37,1.36,5.22,2.8,8.63,7.75,10.23,14.87l6.15,27.29,5.72-1.29,2.85,12.66-9.02,2.03c-3.08.69-5.85.32-8.29-1.14-2.45-1.45-4.26-3.74-5.42-6.87l-.66.15c-.08,4.1-1.46,7.54-4.15,10.3-2.69,2.76-6.35,4.67-10.97,5.71-6.02,1.36-11.06.79-15.13-1.69ZM265.27,165.19c1.73-1.9,2.29-4.22,1.67-6.96l-1.72-7.65-8.69,1.96c-3.52.79-6.06,2.03-7.61,3.7-1.55,1.67-2.06,3.69-1.53,6.05l.4,1.77c1.05,4.65,4.4,6.35,10.05,5.07,3.23-.73,5.71-2.04,7.44-3.95Z"/>
    <path class="cls-10" d="M309.42,182.59l-16.41-3.09,16.23-86.14,16.41,3.09-9.67,51.33.55.1,9.87-9.73,15.68-12.54,18.18,3.43-25.03,19.51,15.53,41.84-19.51-3.68-9.11-29.04-9.41,7.3-3.32,17.63Z"/>
    <path class="cls-4" d="M374.47,183.89c-4.07-3.64-6.78-9.31-8.12-17.02l-6.68-38.34,16.45-2.87,6.45,37.01c.72,4.15,1.98,7.1,3.77,8.85,1.79,1.75,4.28,2.35,7.47,1.79s5.73-1.84,7.63-3.85c1.9-2.01,2.59-4.5,2.08-7.46l-6.95-39.9,16.45-2.87,10.65,61.13-16.45,2.87-1.78-10.22-.56.1c-.64,3.78-2.16,6.96-4.58,9.56s-5.88,4.29-10.4,5.07c-6.22,1.08-11.37-.19-15.44-3.84Z"/>
    <path class="cls-2" d="M159.39,315.25l-22.14-.25,1.3-113.49,25.7.29,31.72,55.95,10.57,23.19h.62s.9-78.64.9-78.64l22.14.25-1.3,113.49-25.7-.29-31.72-55.95-10.73-23.19h-.47s-.9,78.65-.9,78.65Z"/>
    <path class="cls-5" d="M247.89,294.39c-3.95-2.67-6.41-6.71-7.37-12.14-1.12-6.31.31-11.47,4.29-15.47,3.99-4,10.2-6.76,18.64-8.26l9.88-1.76-.71-4c-1.2-6.74-5.32-9.48-12.35-8.23-3.18.57-5.71,1.7-7.59,3.38-1.88,1.69-3.39,3.8-4.54,6.34l-11.31-6.88c1.85-4.2,4.52-7.64,8.02-10.31,3.5-2.67,8.24-4.54,14.24-5.61,8.44-1.5,15.2-.74,20.29,2.29,5.08,3.03,8.27,8.14,9.54,15.32l4.9,27.55,5.78-1.03,2.27,12.77-9.11,1.62c-3.11.55-5.85.05-8.23-1.51-2.38-1.56-4.08-3.93-5.1-7.11l-.67.12c-.26,4.1-1.81,7.46-4.62,10.1-2.82,2.64-6.55,4.38-11.22,5.21-6.07,1.08-11.08.29-15.03-2.38ZM274.39,280.68c1.81-1.82,2.48-4.11,1.99-6.87l-1.37-7.72-8.77,1.56c-3.55.63-6.14,1.75-7.77,3.34-1.63,1.6-2.23,3.59-1.8,5.97l.32,1.79c.84,4.7,4.1,6.54,9.81,5.52,3.26-.58,5.79-1.78,7.61-3.6Z"/>
    <path class="cls-3" d="M329.48,298.76l-18.84-6.26.19-65.32,15.63,5.19-.51,26.93-1.58,23.01.96.32,12.61-19.35,15.5-21.95,14.99,4.98-38.94,52.44Z"/>
    <path class="cls-7" d="M399.58,291.52l-16.4,3.12-11.61-60.95,16.4-3.12,11.61,60.95Z"/>
    <path class="cls-6" d="M380.73,229.59l-5.36,1.02c-3.05.58-5.99-1.42-6.58-4.47l-1.01-5.3c-.58-3.05,1.42-5.99,4.47-6.58l5.36-1.02c3.05-.58,5.99,1.42,6.58,4.47l1.01,5.3c.58,3.05-1.42,5.99-4.47,6.58Z"/>
    <g>
      <circle class="cls-9" cx="182.16" cy="156.01" r="26.04" transform="translate(25.1 337.28) rotate(-89.67)"/>
      <path d="M148.05,125.15c-.23.45-.04,1.01.41,1.23,2.86,1.62,4.29,2.65,2.6,4.86-1.7,2.04-1.3,4.53,1.07,6.28.29.21.68.24,1,.07h0c.59-.32.66-1.14.13-1.55-.75-.57-1.37-1.26-1.43-2.02.05-1.56,2.02-2.63,1.8-4.59-.11-1.73-1.53-3.26-4.35-4.69-.45-.23-1.01-.06-1.24.4,0,0,0,0,0,.01Z"/>
      <path d="M141.39,120.8c-.48.73-.27,1.71.46,2.18h0s1.94,1.27,1.94,1.27c.73.47,1.71.27,2.18-.46.47-.73.27-1.7-.46-2.18l-1.94-1.27c-.73-.48-1.71-.27-2.18.46h0Z"/>
      <path d="M149.33,121.48c.62-.72-.17-2.61-.25-3.41-.18-.85-1.02-1.39-1.88-1.21,0,0,0,0,0,0-2,.49-.96,2.75-.73,4.09.2.86,1.05,1.39,1.91,1.19.39-.09.73-.33.96-.66Z"/>
      <path d="M151.98,118.65l-1.22,1.86c-.48.73-.28,1.71.45,2.19.73.48,1.71.28,2.19-.45,0,0,0,0,0,0l1.22-1.86c.46-.74.24-1.71-.5-2.18-.72-.45-1.67-.25-2.14.45Z"/>
      <path d="M146.32,133.09l1.22-1.86c.47-.73.27-1.71-.46-2.18-.73-.47-1.7-.27-2.18.46l-1.22,1.86c-.46.74-.24,1.71.5,2.18.72.45,1.67.25,2.14-.45Z"/>
      <path class="cls-15" d="M172.12,171.66c-1.25-1.96-3.86-3.05-5.11-5-1.25-1.96-1.24-4.67-2.26-6.82-.11-.16-.47-1.15-1.62-1.4-.73-.16-1.52-.04-2.19.39-1.35.86-1.04,2.23-.88,4.02.2,2.29,1.24,4.75,2.47,6.69,1.26,1.98,2.86,3.5,5.03,5.05.16.11.16.19,1.44.87.66.35,1.9.44,2.57,0h0c1.35-.86,1.41-2.45.55-3.8Z"/>
      <rect class="cls-15" x="174.41" y="174.16" width="4.21" height="4.21" rx="1.94" ry="1.94" transform="translate(56.56 -42.45) rotate(16.3)"/>
      <path d="M144.19,128.48c.85-.19,1.38-1.04,1.19-1.89-.19-.83-.99-1.36-1.82-1.21l-2.22.45c-.85.19-1.38,1.04-1.19,1.89.19.83.99,1.36,1.82,1.21l2.22-.45Z"/>
      <path class="cls-1" d="M165.99,133.08c-1.82,1.44-4.6,3.96-7.1,7.78-2.47,3.78-3.66,7.27-4.25,9.51-1.96-1.2-3.4-2.12-3.94-2.48-.14-.1-.43-.29-.64-.66-.15-.26-.23-.56-.27-.86-.11-.81.26-1.54.44-1.86,2.85-4.36,5.7-8.72,8.55-13.08.18-.28.7-.9,1.47-1.14.38-.12.76-.08.86-.07.42.04.73.17.96.29.61.31,2.07,1.24,3.93,2.57Z"/>
    </g>
  </g>
</svg>