<svg xmlns="http://www.w3.org/2000/svg" width="48" height="48" viewBox="0 0 48 48">
  <defs>
    <style>
      .a, .b {
        fill: none;
        stroke: #231815;
        stroke-width: 2px;
      }

      .b {
        stroke-linecap: round;
        stroke-linejoin: round;
      }
    </style>
  </defs>
  <title>1043_ge_h</title>
  <g>
    <path class="a" d="M24,28.6a4.52,4.52,0,1,1,4.23-2.87A4.44,4.44,0,0,1,24,28.6Z"/>
    <path class="b" d="M35,21.67l1.34-1.1a1.55,1.55,0,0,0,.51-2l-1.68-2.91A1.49,1.49,0,0,0,33.31,15l-1.91.73a1.45,1.45,0,0,1-1.35-.16,10.73,10.73,0,0,0-1.75-1,1.39,1.39,0,0,1-.82-1.09l-.34-2a1.47,1.47,0,0,0-1.46-1.24H22.32a1.47,1.47,0,0,0-1.46,1.24l-.34,2a1.4,1.4,0,0,1-.82,1.09,11.26,11.26,0,0,0-1.76,1,1.42,1.42,0,0,1-1.34.16L14.69,15a1.49,1.49,0,0,0-1.81.65L11.2,18.55a1.48,1.48,0,0,0,.35,1.89l1.53,1.25A1.49,1.49,0,0,1,13.61,23a12.51,12.51,0,0,0,0,2,1.51,1.51,0,0,1-.54,1.29l-1.52,1.24a1.49,1.49,0,0,0-.34,1.89l1.68,2.91a1.49,1.49,0,0,0,1.81.65l1.76-.67a1.46,1.46,0,0,1,1.36.16,10.48,10.48,0,0,0,1.92,1.12,1.47,1.47,0,0,1,.83,1.11l.3,1.84a1.47,1.47,0,0,0,1.46,1.24h3.36a1.47,1.47,0,0,0,1.46-1.24l.3-1.84a1.5,1.5,0,0,1,.83-1.12,10.2,10.2,0,0,0,1.92-1.11,1.43,1.43,0,0,1,1.36-.16l1.76.67a1.49,1.49,0,0,0,1.81-.65l1.68-2.91a1.48,1.48,0,0,0-.35-1.89L35,26.33A1.48,1.48,0,0,1,34.42,25a9,9,0,0,0,0-2A1.48,1.48,0,0,1,35,21.67Z"/>
  </g>
</svg>
