<!--?xml version="1.0" encoding="utf-8"?-->
<!-- Generator: Adobe Illustrator 18.0.0, SVG Export Plug-In . SVG Version: 6.00 Build 0)  -->

<svg version="1.1" id="_x31_0" xmlns="http://www.w3.org/2000/svg" xmlns:xlink="http://www.w3.org/1999/xlink" x="0px" y="0px" viewBox="0 0 512 512" style="width: 32px; height: 32px; opacity: 1;" xml:space="preserve">
<style type="text/css">
	.st0{fill:#374149;}
</style>
<g>
	<path class="st0" d="M256,0C114.614,0,0,114.614,0,256c0,141.383,114.614,256,256,256c141.383,0,256-114.617,256-256
		C512,114.614,397.383,0,256,0z M256,448c-105.871,0-192-86.133-192-192c0-105.871,86.129-192,192-192c105.867,0,192,86.129,192,192
		C448,361.867,361.867,448,256,448z" style="fill: rgb(112, 112, 112);"></path>
	<path class="st0" d="M344.156,358.637l19.547,19.546c5.266-4.366,10.114-9.214,14.48-14.48l-19.546-19.543
		C354.426,349.57,349.566,354.43,344.156,358.637z" style="fill: rgb(112, 112, 112);"></path>
	<path class="st0" d="M93.324,245.758c-0.316,3.375-0.519,6.786-0.519,10.242c0,3.457,0.203,6.863,0.519,10.238h27.566
		c-0.422-3.363-0.71-6.766-0.71-10.238c0-3.477,0.289-6.879,0.71-10.242H93.324z" style="fill: rgb(112, 112, 112);"></path>
	<path class="st0" d="M153.359,344.16l-19.542,19.543c4.363,5.266,9.214,10.114,14.48,14.48l19.543-19.546
		C162.43,354.43,157.57,349.57,153.359,344.16z" style="fill: rgb(112, 112, 112);"></path>
	<path class="st0" d="M418.676,245.758H391.11c0.422,3.363,0.707,6.766,0.707,10.242c0,3.473-0.286,6.875-0.707,10.238h27.566
		c0.312-3.375,0.515-6.782,0.515-10.238C419.191,252.543,418.988,249.133,418.676,245.758z" style="fill: rgb(112, 112, 112);"></path>
	<path class="st0" d="M245.758,391.11v27.566c3.375,0.312,6.786,0.515,10.242,0.515c3.457,0,6.863-0.203,10.238-0.515V391.11
		c-3.363,0.422-6.766,0.71-10.238,0.71C252.523,391.82,249.121,391.531,245.758,391.11z" style="fill: rgb(112, 112, 112);"></path>
	<path class="st0" d="M167.84,153.359l-19.543-19.542c-5.266,4.363-10.114,9.214-14.48,14.48l19.542,19.543
		C157.57,162.43,162.43,157.57,167.84,153.359z" style="fill: rgb(112, 112, 112);"></path>
	<path class="st0" d="M363.703,133.817l-19.547,19.542c5.41,4.211,10.27,9.07,14.481,14.481l19.546-19.543
		C373.817,143.031,368.969,138.183,363.703,133.817z" style="fill: rgb(112, 112, 112);"></path>
	<path class="st0" d="M255.996,96.18c-13.25,0-24,10.746-24,24v98.804L124.34,170.871c-12.102-5.406-26.297,0.015-31.703,12.121
		c-5.406,12.102,0.015,26.297,12.117,31.703l141.454,63.215c3.125,1.398,6.461,2.09,9.789,2.09c4.57,0,9.11-1.305,13.062-3.863
		c6.821-4.426,10.938-12.004,10.938-20.137V120.18C279.996,106.926,269.254,96.18,255.996,96.18z" style="fill: rgb(112, 112, 112);"></path>
</g>
</svg>
